<svg width="205" height="51" viewBox="0 0 205 51" fill="none" xmlns="http://www.w3.org/2000/svg">
<g clip-path="url(#clip0_1804_10701)">
<path d="M10.1113 14.1766H46.0514V9.81419H14.4738V4.36246H46.0514V0H10.1113V14.1766Z" fill="#1A0060"/>
<path d="M41.6909 19.7977V27.9104C41.6909 32.8603 39.7245 37.6076 36.2244 41.1077C32.7242 44.6079 27.977 46.5742 23.027 46.5742C18.077 46.5742 13.3298 44.6079 9.82965 41.1077C6.3295 37.6076 4.36313 32.8603 4.36312 27.9104V0H0V27.9104C0 34.0174 2.42602 39.8743 6.74436 44.1927C11.0627 48.511 16.9196 50.937 23.0267 50.937C29.1337 50.937 34.9907 48.511 39.309 44.1927C43.6273 39.8743 46.0534 34.0174 46.0534 27.9104V19.7977H41.6909Z" fill="#1A0060"/>
<path d="M31.5754 27.5603C31.5554 29.815 30.6458 31.9705 29.0444 33.5578C27.443 35.1451 25.2795 36.0356 23.0247 36.0356C20.77 36.0356 18.6065 35.1451 17.0051 33.5578C15.4037 31.9705 14.4941 29.815 14.4741 27.5603V19.7969H10.1117V27.5603C10.0994 29.2639 10.4243 30.9531 11.0678 32.5305C11.7112 34.108 12.6605 35.5425 13.8608 36.7515C15.0611 37.9605 16.4888 38.92 18.0615 39.5748C19.6343 40.2296 21.3211 40.5667 23.0247 40.5667C24.7284 40.5667 26.4152 40.2296 27.9879 39.5748C29.5607 38.92 30.9884 37.9605 32.1887 36.7515C33.389 35.5425 34.3382 34.108 34.9817 32.5305C35.6251 30.9531 35.9501 29.2639 35.9378 27.5603V19.7969H31.5754V27.5603Z" fill="#1A0060"/>
<path d="M22.9459 28.4148L25.2797 29.8854V19.7949H20.7754V29.8854L22.9459 28.4148Z" fill="#1A0060"/>
<path d="M58.707 15.2536V2.23047H61.4336V12.8489H67.9057V15.2536H58.707Z" fill="#1A0060"/>
<path d="M74.4697 12.3351H77.0805C76.8524 13.2959 76.2853 14.1422 75.4834 14.7184C74.6233 15.3106 73.5965 15.6125 72.5528 15.5802C71.923 15.6099 71.2944 15.4995 70.7124 15.2571C70.1303 15.0148 69.6092 14.6464 69.1866 14.1785C68.3123 13.1126 67.8691 11.7579 67.9441 10.3814C67.8678 9.03072 68.3049 7.70112 69.1679 6.65926C69.5926 6.20158 70.1125 5.8425 70.691 5.60727C71.2694 5.37203 71.8923 5.26636 72.516 5.29767C73.1575 5.25779 73.8001 5.35682 74.3998 5.58799C74.9996 5.81917 75.5424 6.17704 75.9912 6.63718C76.8686 7.70755 77.3065 9.07127 77.2163 10.4523C77.2163 10.6357 77.2143 10.7722 77.2116 10.8631C77.2088 10.9507 77.2012 11.038 77.1889 11.1248H70.6539C70.6412 11.7409 70.8395 12.3429 71.2159 12.8309C71.4027 13.0283 71.6306 13.1821 71.8835 13.2813C72.1364 13.3805 72.4081 13.4228 72.6792 13.405C73.065 13.4209 73.4477 13.3309 73.7859 13.1447C74.0912 12.951 74.3298 12.6685 74.4697 12.3351ZM70.6539 9.43531H74.5065C74.5219 8.89321 74.3338 8.36498 73.9793 7.95462C73.7922 7.77738 73.5706 7.64076 73.3282 7.55336C73.0858 7.46596 72.8279 7.42967 72.5708 7.44678C72.3232 7.43333 72.0755 7.47199 71.8437 7.56028C71.6119 7.64856 71.4012 7.7845 71.2253 7.9593C70.8694 8.37013 70.6674 8.89192 70.6539 9.43531Z" fill="#1A0060"/>
<path d="M83.8135 14.0593C83.4933 14.5516 83.045 14.9473 82.5168 15.2041C81.9348 15.4771 81.2975 15.612 80.6548 15.5982C80.254 15.6238 79.8524 15.5663 79.4749 15.4292C79.0975 15.2922 78.7525 15.0787 78.4615 14.802C77.9155 14.1791 77.6388 13.3651 77.692 12.5385C77.6663 12.1575 77.7216 11.7754 77.8543 11.4173C77.9869 11.0592 78.1938 10.7333 78.4615 10.4609C79.1956 9.89275 80.0798 9.55157 81.0054 9.47938C81.275 9.4379 81.6283 9.39106 82.0672 9.3382C83.1765 9.19636 83.7319 8.88099 83.7332 8.39211C83.7478 8.2329 83.7216 8.0726 83.6569 7.92637C83.5923 7.78014 83.4914 7.65281 83.3639 7.55642C82.9844 7.35775 82.5565 7.27032 82.1294 7.30417C81.7021 7.27725 81.2772 7.38564 80.915 7.61396C80.7765 7.71463 80.6653 7.84821 80.5913 8.00264C80.5174 8.15707 80.4831 8.32748 80.4915 8.4985V8.63967H78.044V8.46303C78.0244 8.01962 78.1105 7.5779 78.2952 7.17433C78.48 6.77076 78.758 6.41691 79.1065 6.14197C79.9594 5.53436 80.9943 5.23643 82.0398 5.29758C83.1335 5.23219 84.2238 5.47415 85.1872 5.99611C85.5331 6.20336 85.817 6.49974 86.0092 6.85425C86.2014 7.20877 86.2949 7.60841 86.2798 8.0114V13.4758C86.2649 13.7804 86.3078 14.0851 86.4062 14.3738C86.4882 14.5691 86.6389 14.7276 86.8298 14.8194V15.2529H84.1019C84.0089 15.0802 83.9392 14.896 83.8945 14.705C83.8454 14.4931 83.8182 14.2767 83.8135 14.0593ZM83.768 10.5232C83.2964 10.7324 82.8032 10.8892 82.2974 10.9909C81.7413 11.1093 81.4543 11.1713 81.4363 11.1769C81.0774 11.2524 80.7445 11.42 80.4701 11.6633C80.2762 11.8848 80.1772 12.1737 80.1944 12.4675C80.1872 12.6255 80.2151 12.7831 80.2759 12.9291C80.3367 13.0751 80.4291 13.2058 80.5464 13.3119C80.8104 13.532 81.1479 13.6441 81.4911 13.6257C81.7945 13.643 82.0983 13.6 82.3849 13.4992C82.6716 13.3984 82.9354 13.2417 83.1612 13.0383C83.3679 12.8274 83.5285 12.5759 83.633 12.2997C83.7375 12.0235 83.7835 11.7287 83.768 11.4338V10.5232Z" fill="#1A0060"/>
<path d="M87.8301 15.2565V5.64639H90.2609V7.29035C90.5328 6.71372 90.9439 6.21383 91.4572 5.83575C91.9408 5.5187 92.5097 5.35692 93.0878 5.37207C93.1881 5.37207 93.2691 5.37341 93.3253 5.37675C93.3815 5.3801 93.429 5.38411 93.4658 5.38946L93.4752 7.99757H92.6013C92.3096 7.97561 92.0164 8.0129 91.7394 8.10719C91.4624 8.20147 91.2073 8.35081 90.9895 8.54622C90.7966 8.76828 90.6496 9.02634 90.5569 9.30551C90.4642 9.58468 90.4277 9.87944 90.4496 10.1728V15.2565H87.8301Z" fill="#1A0060"/>
<path d="M94.1641 15.2538V5.64371H96.7307V6.78451C97.0732 6.33735 97.5172 5.97818 98.026 5.73671C98.5484 5.49829 99.1172 5.37878 99.6914 5.38678C100.131 5.35249 100.573 5.40815 100.99 5.55034C101.407 5.69253 101.791 5.91827 102.118 6.21377C102.704 6.90427 102.994 7.79876 102.924 8.70211V15.2538H100.304V9.44547C100.35 8.92749 100.225 8.40884 99.949 7.96812C99.8028 7.8109 99.6225 7.68932 99.4219 7.61276C99.2214 7.5362 99.0059 7.5067 98.7922 7.52652C98.5234 7.51235 98.2546 7.5533 98.0023 7.64685C97.7499 7.74039 97.5194 7.88456 97.3248 8.07049C97.1392 8.26788 96.9955 8.50087 96.9025 8.75537C96.8094 9.00987 96.769 9.2806 96.7836 9.55119V15.2538H94.1641Z" fill="#1A0060"/>
<path d="M110.472 12.337H113.082C112.853 13.2979 112.285 14.1441 111.483 14.7203C110.623 15.3124 109.596 15.6143 108.553 15.582C107.923 15.6113 107.294 15.5008 106.712 15.2585C106.13 15.0161 105.609 14.6479 105.186 14.1803C104.313 13.1141 103.87 11.7597 103.944 10.3832C103.869 9.03268 104.306 7.70341 105.168 6.66109C105.593 6.20333 106.113 5.84423 106.692 5.609C107.271 5.37377 107.894 5.26813 108.518 5.2995C109.159 5.25994 109.802 5.35911 110.401 5.59027C111.001 5.82143 111.544 6.17914 111.992 6.63901C112.869 7.70986 113.306 9.07335 113.216 10.4542C113.216 10.6375 113.215 10.774 113.211 10.865C113.209 10.9525 113.201 11.0399 113.189 11.1266H106.654C106.642 11.7425 106.841 12.344 107.216 12.8328C107.402 13.0299 107.63 13.1835 107.883 13.2827C108.136 13.382 108.408 13.4243 108.679 13.4068C109.065 13.4227 109.448 13.3327 109.787 13.1466C110.092 12.9523 110.331 12.67 110.472 12.337ZM106.654 9.43714H110.506C110.521 8.89531 110.334 8.3673 109.98 7.95644C109.793 7.77904 109.571 7.64233 109.329 7.55493C109.086 7.46752 108.828 7.43132 108.57 7.44861C108.323 7.43528 108.075 7.474 107.843 7.56228C107.612 7.65056 107.401 7.78643 107.225 7.96113C106.869 8.37196 106.667 8.89375 106.654 9.43714Z" fill="#1A0060"/>
<path d="M114.207 15.2565V5.64639H116.638V7.29035C116.911 6.7139 117.322 6.21411 117.836 5.83575C118.319 5.51871 118.887 5.35692 119.465 5.37207C119.567 5.37207 119.646 5.37341 119.704 5.37675C119.751 5.37866 119.797 5.3829 119.843 5.38947L119.852 7.99757H118.979C118.687 7.97548 118.394 8.01271 118.117 8.10701C117.84 8.20131 117.586 8.35072 117.368 8.54622C117.175 8.768 117.027 9.02599 116.934 9.30521C116.841 9.58443 116.805 9.87932 116.827 10.1728V15.2565H114.207Z" fill="#1A0060"/>
<path d="M119.997 12.1251H122.608C122.605 12.3369 122.652 12.5464 122.746 12.7362C122.84 12.9261 122.978 13.0909 123.148 13.217C123.604 13.4865 124.132 13.6111 124.66 13.5743C125.07 13.5973 125.479 13.5104 125.845 13.3227C125.973 13.2542 126.08 13.1515 126.154 13.026C126.227 12.9004 126.265 12.757 126.262 12.6115C126.262 12.1743 125.74 11.8472 124.695 11.6299C124.27 11.5416 123.93 11.4647 123.679 11.3998C122.722 11.2236 121.816 10.8371 121.027 10.2683C120.78 10.0469 120.586 9.77338 120.457 9.46758C120.329 9.16178 120.27 8.83129 120.285 8.49994C120.267 8.05203 120.356 7.60638 120.545 7.19978C120.734 6.79319 121.016 6.43729 121.37 6.16147C122.222 5.5463 123.259 5.24188 124.308 5.29902C125.403 5.23681 126.488 5.53865 127.393 6.15746C127.763 6.44176 128.063 6.80709 128.269 7.22535C128.476 7.64362 128.584 8.10369 128.585 8.57019H126.038C126.037 8.3869 125.994 8.20625 125.912 8.04228C125.83 7.87831 125.712 7.73544 125.566 7.62477C125.2 7.38095 124.765 7.26302 124.327 7.28889C123.943 7.26383 123.56 7.33997 123.216 7.50969C123.1 7.57576 123.004 7.67269 122.94 7.78973C122.875 7.90677 122.845 8.03934 122.851 8.17276C122.851 8.55614 123.502 8.89515 124.804 9.18977C125.104 9.25467 125.341 9.30753 125.515 9.34834C126.476 9.50234 127.389 9.87452 128.184 10.4363C128.427 10.6646 128.618 10.9437 128.742 11.2538C128.865 11.5639 128.919 11.8975 128.9 12.2308C128.927 12.7113 128.833 13.191 128.628 13.6264C128.423 14.0618 128.112 14.4392 127.725 14.7245C126.704 15.3607 125.509 15.6604 124.308 15.5816C123.182 15.6481 122.066 15.3335 121.14 14.6883C120.766 14.4001 120.468 14.0264 120.269 13.5988C120.07 13.1711 119.977 12.702 119.997 12.2308V12.1251Z" fill="#1A0060"/>
<path d="M58.6237 20.8613H61.379V29.0309C61.3121 29.8159 61.5297 30.5988 61.9919 31.2369C62.2464 31.486 62.5519 31.677 62.8873 31.7967C63.2228 31.9163 63.5802 31.9618 63.9349 31.9301C64.293 31.9625 64.654 31.9177 64.9933 31.7987C65.3327 31.6797 65.6425 31.4892 65.902 31.2402C66.3687 30.6029 66.5881 29.8178 66.5196 29.0309V20.8613H69.2475V29.3226C69.2915 29.997 69.1927 30.6732 68.9576 31.3068C68.7226 31.9405 68.3564 32.5174 67.8832 32.9999C66.7885 33.9201 65.3797 34.3798 63.953 34.2826C62.5191 34.38 61.1026 33.9224 59.9966 33.0046C59.5204 32.5229 59.1517 31.9456 58.9151 31.3109C58.6784 30.6762 58.5791 29.9985 58.6237 29.3226V20.8613Z" fill="#1A0060"/>
<path d="M70.957 33.9198V24.3097H73.5237V25.4505C73.8661 25.0034 74.3102 24.6442 74.819 24.4027C75.3414 24.1642 75.9102 24.0447 76.4844 24.0528C76.9237 24.0185 77.3655 24.0742 77.7826 24.2164C78.1998 24.3585 78.5835 24.5843 78.9105 24.8798C79.4972 25.5703 79.787 26.4648 79.7167 27.3681V33.9198H77.0973V28.1112C77.1426 27.5932 77.0179 27.0746 76.742 26.6339C76.5958 26.4766 76.4155 26.3551 76.2149 26.2785C76.0143 26.202 75.7989 26.1724 75.5851 26.1923C75.3164 26.1781 75.0476 26.219 74.7952 26.3126C74.5429 26.4061 74.3124 26.5503 74.1178 26.7362C73.9322 26.9336 73.7885 27.1666 73.6954 27.4211C73.6024 27.6756 73.5619 27.9464 73.5765 28.2169V33.9196L70.957 33.9198Z" fill="#1A0060"/>
<path d="M81.2852 20.8965H83.9046V23.24H81.2852V20.8965ZM81.2852 24.3095H83.9046V33.9196H81.2852V24.3095Z" fill="#1A0060"/>
<path d="M87.9185 33.9187L84.3984 24.3086H87.2969L89.3055 31.2042L91.3309 24.3086H94.0935L90.5915 33.9187H87.9185Z" fill="#1A0060"/>
<path d="M100.569 31.001H103.179C102.951 31.9619 102.383 32.8081 101.581 33.3843C100.721 33.9764 99.694 34.2784 98.6502 34.2461C98.0205 34.2754 97.392 34.1649 96.81 33.9226C96.228 33.6802 95.7069 33.312 95.284 32.8444C94.4104 31.7782 93.9672 30.4237 94.0416 29.0473C93.9662 27.6967 94.4032 26.3675 95.2653 25.3252C95.6905 24.8674 96.2107 24.5083 96.7895 24.2731C97.3682 24.0378 97.9915 23.9322 98.6154 23.9636C99.2568 23.924 99.8992 24.0232 100.499 24.2543C101.098 24.4855 101.641 24.8432 102.09 25.3031C102.966 26.3739 103.404 27.7374 103.314 29.1182C103.314 29.3015 103.312 29.438 103.309 29.529C103.306 29.6166 103.299 29.7039 103.286 29.7907H96.7515C96.7404 30.4066 96.9385 31.0081 97.3135 31.4968C97.5004 31.694 97.7284 31.8476 97.9813 31.9468C98.2341 32.046 98.5057 32.0884 98.7768 32.0709C99.163 32.0867 99.5461 31.9967 99.8848 31.8106C100.19 31.6164 100.428 31.334 100.569 31.001ZM96.7515 28.1012H100.604C100.619 27.5594 100.432 27.0314 100.078 26.6205C99.891 26.4431 99.6691 26.3064 99.4265 26.219C99.1839 26.1316 98.9257 26.0954 98.6684 26.1127C98.4208 26.0993 98.1731 26.1381 97.9414 26.2263C97.7096 26.3146 97.4989 26.4505 97.3229 26.6252C96.967 27.036 96.765 27.5578 96.7515 28.1012Z" fill="#1A0060"/>
<path d="M104.305 33.9186V24.3085H106.735V25.9525C107.008 25.376 107.42 24.8762 107.933 24.4979C108.416 24.1808 108.985 24.019 109.562 24.0342C109.665 24.0342 109.744 24.0355 109.802 24.0389C109.848 24.0408 109.894 24.045 109.94 24.0516L109.95 26.6597H109.076C108.784 26.6376 108.491 26.6748 108.215 26.7691C107.938 26.8634 107.683 27.0128 107.465 27.2083C107.272 27.4301 107.125 27.6881 107.032 27.9673C106.939 28.2465 106.902 28.5414 106.924 28.8349V33.9186H104.305Z" fill="#1A0060"/>
<path d="M110.093 30.7911H112.703C112.701 31.0029 112.748 31.2124 112.842 31.4022C112.936 31.5921 113.074 31.7569 113.244 31.883C113.7 32.1525 114.228 32.2771 114.756 32.2403C115.166 32.2633 115.575 32.1764 115.94 31.9887C116.069 31.9202 116.176 31.8175 116.249 31.692C116.323 31.5665 116.361 31.423 116.358 31.2775C116.358 30.8404 115.836 30.5132 114.791 30.2959C114.366 30.2076 114.026 30.1307 113.775 30.0658C112.818 29.8896 111.912 29.5031 111.123 28.9344C110.876 28.7129 110.681 28.4394 110.553 28.1336C110.425 27.8278 110.366 27.4973 110.38 27.166C110.363 26.718 110.452 26.2724 110.641 25.8658C110.83 25.4592 111.112 25.1033 111.466 24.8275C112.318 24.2123 113.355 23.9079 114.404 23.965C115.499 23.9028 116.583 24.2047 117.489 24.8235C117.859 25.1078 118.158 25.4731 118.365 25.8914C118.571 26.3096 118.679 26.7697 118.68 27.2362H116.134C116.133 27.0529 116.09 26.8723 116.008 26.7083C115.926 26.5443 115.807 26.4014 115.661 26.2908C115.296 26.047 114.861 25.929 114.422 25.9549C114.039 25.9298 113.656 26.006 113.312 26.1757C113.195 26.2418 113.1 26.3387 113.036 26.4557C112.971 26.5728 112.941 26.7054 112.947 26.8388C112.947 27.2222 113.598 27.5612 114.899 27.8558C115.2 27.9207 115.437 27.9735 115.611 28.0144C116.572 28.1684 117.485 28.5405 118.279 29.1023C118.523 29.3306 118.714 29.6097 118.837 29.9198C118.961 30.2299 119.015 30.5635 118.995 30.8968C119.022 31.3774 118.929 31.857 118.724 32.2924C118.519 32.7278 118.208 33.1052 117.821 33.3905C116.799 34.0267 115.605 34.3264 114.404 34.2476C113.278 34.3141 112.161 33.9995 111.235 33.3544C110.862 33.0661 110.563 32.6925 110.365 32.2648C110.166 31.8371 110.072 31.368 110.093 30.8968L110.093 30.7911Z" fill="#1A0060"/>
<path d="M120.025 20.8965H122.645V23.24H120.025V20.8965ZM120.025 24.3095H122.645V33.9196H120.025V24.3095Z" fill="#1A0060"/>
<path d="M128.594 33.9928C128.355 33.9981 128.068 34.0084 127.734 34.0235C127.403 34.0383 127.19 34.0456 127.101 34.0456C126.37 34.1277 125.635 33.9303 125.043 33.493C124.675 33.125 124.49 32.3985 124.49 31.3137V26.1156H123.193V24.3117H124.49V21.6855H127.083V24.3117H128.594V26.1156H127.083V31.4375C127.069 31.5283 127.078 31.6209 127.108 31.7077C127.137 31.7945 127.187 31.873 127.253 31.9367C127.473 32.0382 127.715 32.0795 127.956 32.0564H128.594V33.9928Z" fill="#1A0060"/>
<path d="M129.758 37.774V35.6958C129.841 35.7085 129.928 35.7166 130.018 35.7226C130.108 35.7286 130.225 35.7319 130.371 35.7319C130.789 35.7634 131.204 35.6355 131.532 35.374C131.668 35.2322 131.773 35.0633 131.84 34.8781C131.907 34.6929 131.934 34.4957 131.919 34.2994C131.918 34.2547 131.912 34.2102 131.9 34.1669C131.891 34.1222 131.878 34.0779 131.864 34.0345L128.336 24.3086H131.216L133.278 31.2397L135.285 24.3086H138.039L134.016 35.6436C133.828 36.3243 133.436 36.9306 132.891 37.3799C132.276 37.7315 131.571 37.8932 130.864 37.8449C130.703 37.8449 130.529 37.8389 130.343 37.8269C130.157 37.8148 129.962 37.7974 129.758 37.774Z" fill="#1A0060"/>
<path d="M154.8 29.4477C154.776 30.1256 154.609 30.7907 154.309 31.3989C154.008 32.0071 153.582 32.5446 153.059 32.9758C151.875 33.8888 150.406 34.3524 148.913 34.2839C148.065 34.3329 147.216 34.1971 146.426 33.8857C145.635 33.5744 144.922 33.095 144.335 32.4807C143.245 31.2783 142.701 29.5925 142.701 27.4231C142.701 25.207 143.257 23.5096 144.367 22.3306C145.477 21.1517 147.073 20.5622 149.155 20.5622C150.594 20.482 152.014 20.9126 153.166 21.778C153.663 22.2035 154.064 22.7297 154.343 23.3217C154.622 23.9138 154.771 24.5582 154.782 25.2124H152.09C152.018 24.5519 151.688 23.9467 151.172 23.5283C150.583 23.1149 149.873 22.9111 149.155 22.9495C148.642 22.9157 148.128 23.0011 147.653 23.199C147.178 23.3969 146.756 23.702 146.419 24.0903C145.731 25.0598 145.4 26.2374 145.483 27.4231C145.409 28.5909 145.738 29.7486 146.414 30.7036C147.002 31.3378 147.799 31.7404 148.658 31.8384C149.518 31.9365 150.384 31.7236 151.1 31.2382C151.649 30.7864 152.014 30.1496 152.126 29.4477H154.8Z" fill="#1A0060"/>
<path d="M155.52 29.1041C155.481 28.42 155.578 27.7351 155.805 27.0887C156.032 26.4423 156.385 25.8472 156.843 25.3378C157.848 24.4542 159.14 23.9668 160.478 23.9668C161.816 23.9668 163.108 24.4542 164.113 25.3378C164.572 25.8466 164.926 26.4415 165.153 27.088C165.381 27.7345 165.478 28.4197 165.439 29.1041C165.479 29.7897 165.382 30.4764 165.154 31.1244C164.926 31.7723 164.572 32.3687 164.113 32.8791C163.108 33.7622 161.816 34.2493 160.478 34.2493C159.14 34.2493 157.848 33.7622 156.843 32.8791C156.385 32.3681 156.032 31.7716 155.805 31.1237C155.578 30.4758 155.481 29.7894 155.52 29.1041ZM158.177 29.1041C158.127 29.8864 158.337 30.6634 158.774 31.3141C158.975 31.5716 159.235 31.7768 159.532 31.9122C159.829 32.0476 160.155 32.1091 160.481 32.0915C160.804 32.1076 161.126 32.0453 161.42 31.9099C161.713 31.7745 161.97 31.5701 162.168 31.3141C162.559 30.6458 162.766 29.8855 162.766 29.111C162.767 28.3366 162.562 27.5759 162.172 26.9068C161.974 26.6509 161.716 26.4469 161.422 26.3122C161.127 26.1776 160.804 26.1162 160.481 26.1333C160.155 26.1156 159.83 26.1767 159.533 26.3113C159.236 26.446 158.975 26.6502 158.774 26.9068C158.337 27.5528 158.127 28.3257 158.177 29.1041Z" fill="#1A0060"/>
<path d="M169.196 20.8965H166.576V33.9196H169.196V20.8965Z" fill="#1A0060"/>
<path d="M173.526 20.8965H170.906V33.9196H173.526V20.8965Z" fill="#1A0060"/>
<path d="M181.179 31.0012H183.789C183.561 31.962 182.994 32.8082 182.192 33.3845C181.332 33.9766 180.305 34.2785 179.262 34.2462C178.632 34.2759 178.003 34.1655 177.421 33.9231C176.839 33.6808 176.318 33.3124 175.896 32.8445C175.021 31.7786 174.578 30.4239 174.653 29.0474C174.577 27.6967 175.014 26.3671 175.877 25.3253C176.302 24.8676 176.822 24.5085 177.4 24.2733C177.978 24.0381 178.601 23.9324 179.225 23.9637C179.867 23.9238 180.509 24.0228 181.109 24.254C181.709 24.4852 182.251 24.8431 182.7 25.3032C183.578 26.3736 184.015 27.7373 183.925 29.1183C183.925 29.3017 183.924 29.4382 183.921 29.5292C183.918 29.6167 183.91 29.704 183.898 29.7908H177.363C177.35 30.407 177.549 31.009 177.925 31.497C178.112 31.6943 178.34 31.8481 178.593 31.9473C178.845 32.0465 179.117 32.0888 179.388 32.071C179.774 32.0869 180.157 31.9969 180.495 31.8108C180.8 31.617 181.039 31.3345 181.179 31.0012ZM177.363 28.1013H181.216C181.231 27.5592 181.043 27.031 180.688 26.6206C180.501 26.4434 180.28 26.3068 180.037 26.2194C179.795 26.132 179.537 26.0957 179.28 26.1128C179.032 26.0993 178.784 26.138 178.553 26.2263C178.321 26.3146 178.11 26.4505 177.934 26.6253C177.578 27.0362 177.376 27.5579 177.363 28.1013Z" fill="#1A0060"/>
<path d="M184.691 34.851L187.553 34.8423C187.586 34.9916 187.65 35.1327 187.739 35.2572C187.828 35.3816 187.941 35.487 188.071 35.5669C188.392 35.741 188.755 35.8236 189.12 35.8058C189.424 35.8384 189.732 35.8102 190.026 35.7229C190.319 35.6356 190.592 35.491 190.829 35.2973C191.215 34.7516 191.388 34.0836 191.316 33.4192V32.5614C191.066 33.0025 190.691 33.3605 190.24 33.5911C189.722 33.8288 189.157 33.9424 188.588 33.923C188.013 33.9453 187.441 33.8371 186.914 33.6066C186.387 33.3761 185.92 33.0293 185.546 32.5922C184.745 31.5913 184.338 30.3317 184.403 29.0514C184.331 27.7222 184.728 26.4101 185.523 25.3426C185.884 24.8936 186.346 24.5355 186.87 24.2967C187.395 24.058 187.968 23.9453 188.544 23.9676C189.128 23.9505 189.707 24.0781 190.23 24.339C190.71 24.6004 191.106 24.9931 191.371 25.4711V24.3129H193.855V33.2867C193.886 34.0663 193.789 34.8457 193.567 35.5937C193.374 36.1239 193.034 36.5875 192.585 36.9292C192.133 37.2549 191.621 37.4876 191.078 37.6137C190.396 37.7787 189.695 37.8576 188.993 37.8485C187.908 37.908 186.83 37.6334 185.905 37.0617C185.543 36.8156 185.243 36.4868 185.032 36.1025C184.821 35.7182 184.704 35.2893 184.691 34.851ZM187.058 28.963C187.01 29.6978 187.205 30.4278 187.612 31.0412C187.808 31.2686 188.05 31.451 188.323 31.576C188.596 31.7011 188.892 31.7658 189.192 31.7658C189.492 31.7658 189.788 31.7011 190.061 31.576C190.334 31.451 190.576 31.2686 190.772 31.0412C191.175 30.4128 191.365 29.6717 191.316 28.9269C191.361 28.204 191.163 27.4868 190.753 26.8895C190.564 26.6507 190.32 26.4606 190.042 26.3353C189.764 26.2099 189.46 26.1529 189.156 26.1689C188.857 26.1546 188.56 26.2141 188.29 26.3421C188.02 26.4701 187.786 26.6628 187.608 26.9029C187.206 27.5121 187.013 28.2349 187.058 28.963Z" fill="#1A0060"/>
<path d="M201.452 31.0012H204.063C203.835 31.962 203.268 32.8082 202.466 33.3845C201.606 33.9766 200.579 34.2785 199.535 34.2462C198.905 34.2759 198.277 34.1655 197.695 33.9231C197.113 33.6808 196.592 33.3124 196.169 32.8445C195.295 31.7786 194.851 30.4239 194.927 29.0474C194.85 27.6967 195.287 26.3671 196.15 25.3253C196.575 24.8676 197.095 24.5085 197.673 24.2733C198.252 24.0381 198.875 23.9324 199.498 23.9637C200.14 23.9238 200.783 24.0228 201.382 24.254C201.982 24.4852 202.525 24.8431 202.974 25.3032C203.851 26.3736 204.289 27.7373 204.199 29.1183C204.199 29.3017 204.197 29.4382 204.194 29.5292C204.191 29.6167 204.184 29.704 204.171 29.7908H197.636C197.624 30.407 197.822 31.009 198.198 31.497C198.385 31.6943 198.613 31.8481 198.866 31.9473C199.119 32.0465 199.391 32.0888 199.662 32.071C200.047 32.0869 200.43 31.9969 200.768 31.8108C201.074 31.617 201.312 31.3345 201.452 31.0012ZM197.636 28.1013H201.489C201.504 27.5592 201.316 27.031 200.962 26.6206C200.775 26.4434 200.553 26.3068 200.311 26.2194C200.068 26.132 199.81 26.0957 199.553 26.1128C199.306 26.0993 199.058 26.138 198.826 26.2263C198.594 26.3146 198.384 26.4505 198.208 26.6253C197.852 27.0362 197.65 27.5579 197.636 28.1013Z" fill="#1A0060"/>
<path d="M57.9902 46.9058V40.9355H58.8239V46.1524H61.8522V46.9058H57.9902Z" fill="#1A0060"/>
<path d="M65.3986 45.5019H66.1333C66.073 45.946 65.8457 46.3504 65.4976 46.6326C65.1255 46.9173 64.6658 47.0633 64.1976 47.0455C63.9256 47.0584 63.6542 47.0106 63.4031 46.9055C63.1519 46.8004 62.9273 46.6407 62.7457 46.4379C62.3696 45.9702 62.1801 45.3798 62.2137 44.7806C62.1761 44.1576 62.3632 43.5418 62.741 43.045C62.9205 42.8372 63.1449 42.6731 63.3973 42.5651C63.6497 42.457 63.9234 42.4079 64.1976 42.4214C64.4704 42.4049 64.7436 42.4478 64.9983 42.547C65.253 42.6462 65.4831 42.7995 65.6729 42.9962C66.0466 43.4525 66.2333 44.0335 66.1955 44.622C66.1955 44.711 66.1941 44.7773 66.1941 44.8208C66.1928 44.8642 66.1881 44.9057 66.1834 44.9465H62.9926C62.9764 45.3302 63.0998 45.7067 63.3398 46.0064C63.5606 46.2192 63.8477 46.3497 64.1531 46.3761C64.4586 46.4025 64.7639 46.3233 65.0179 46.1516C65.22 45.9889 65.3554 45.7577 65.3986 45.5019ZM62.9892 44.3383H65.4153C65.4352 43.9967 65.3229 43.6606 65.1015 43.3996C64.8607 43.188 64.5514 43.0708 64.2308 43.0697C63.9103 43.0686 63.6002 43.1837 63.3579 43.3936C63.1284 43.6558 62.998 43.99 62.9892 44.3383Z" fill="#1A0060"/>
<path d="M69.7806 46.3273C69.571 46.5501 69.3214 46.7315 69.0446 46.8619C68.785 46.9809 68.5026 47.0421 68.217 47.0412C67.8336 47.0641 67.4558 46.9402 67.1605 46.6946C67.0319 46.5716 66.9313 46.4222 66.8659 46.2567C66.8004 46.0912 66.7715 45.9135 66.7811 45.7358C66.7718 45.5632 66.8003 45.3907 66.8648 45.2304C66.9294 45.07 67.0282 44.9258 67.1545 44.8078C67.4812 44.5521 67.8773 44.4008 68.2912 44.3735C68.421 44.3602 68.595 44.3414 68.8158 44.3173C69.0499 44.3039 69.2822 44.2672 69.509 44.2076C69.5792 44.1874 69.6395 44.1418 69.6783 44.0798C69.7144 43.9694 69.7285 43.853 69.7197 43.7372C69.7255 43.6396 69.7056 43.5422 69.6619 43.4547C69.6182 43.3673 69.5523 43.2928 69.4708 43.2388C69.2431 43.1127 68.9838 43.0551 68.7241 43.0728C68.45 43.0534 68.177 43.1247 67.9473 43.2756C67.8587 43.3471 67.7886 43.4389 67.7429 43.5433C67.6973 43.6476 67.6774 43.7614 67.685 43.8751H66.9825V43.8428C66.9742 43.645 67.0125 43.4481 67.0943 43.2678C67.1761 43.0875 67.2992 42.929 67.4535 42.8051C67.8283 42.5322 68.2861 42.3977 68.7489 42.4244C69.2085 42.3887 69.6672 42.503 70.0563 42.7502C70.2015 42.8751 70.315 43.0327 70.3875 43.2099C70.4601 43.3871 70.4897 43.579 70.4738 43.7699V45.9424C70.4607 46.0659 70.4825 46.1906 70.5367 46.3024C70.5648 46.3324 70.5995 46.3554 70.6381 46.3695C70.6767 46.3837 70.718 46.3887 70.7588 46.384C70.7859 46.3837 70.813 46.3817 70.8398 46.378C70.8719 46.374 70.9101 46.368 70.9542 46.3599V46.9226C70.8759 46.9444 70.7963 46.9616 70.716 46.9742C70.6524 46.9827 70.5882 46.9872 70.524 46.9875C70.3255 47.0025 70.1281 46.9468 69.9666 46.8303C69.9018 46.7694 69.8515 46.6948 69.8193 46.6119C69.7871 46.529 69.7739 46.4399 69.7806 46.3512V46.3273ZM69.7104 44.698C69.3867 44.8356 69.0427 44.919 68.692 44.9449C68.5214 44.967 68.3936 44.9844 68.3086 44.9985C68.0954 45.0168 67.8925 45.0983 67.7259 45.2326C67.6636 45.2984 67.6155 45.3763 67.5849 45.4615C67.5543 45.5468 67.5417 45.6374 67.5479 45.7278C67.5424 45.821 67.5583 45.9143 67.5942 46.0006C67.6302 46.0868 67.6852 46.1638 67.7553 46.2256C67.9245 46.3525 68.1337 46.4145 68.3448 46.4002C68.6964 46.4152 69.0427 46.311 69.3277 46.1045C69.4477 46.0182 69.5452 45.9043 69.6119 45.7723C69.6785 45.6403 69.7123 45.4942 69.7104 45.3464V44.698Z" fill="#1A0060"/>
<path d="M71.6387 46.9054V42.5644H72.3566V43.3425C72.4513 43.0826 72.6185 42.8553 72.8383 42.6875C73.0575 42.5385 73.3182 42.4628 73.583 42.4714C73.6379 42.4714 73.6781 42.472 73.7021 42.4727C73.7273 42.4745 73.7524 42.4781 73.7771 42.4834V43.2529C73.757 43.2508 73.7356 43.2488 73.7115 43.2468C73.6854 43.2462 73.6486 43.2455 73.5998 43.2455C73.435 43.234 73.2696 43.2562 73.1137 43.3108C72.9578 43.3655 72.8147 43.4514 72.6932 43.5633C72.5829 43.6897 72.4988 43.8367 72.4455 43.9957C72.3922 44.1547 72.3709 44.3227 72.3827 44.49V46.9054H71.6387Z" fill="#1A0060"/>
<path d="M77.388 46.9068V44.2358C77.4183 43.9265 77.3477 43.6157 77.1866 43.3499C77.0978 43.26 76.9899 43.1913 76.871 43.1487C76.752 43.1062 76.625 43.0911 76.4994 43.1043C76.3231 43.0937 76.1465 43.119 75.9802 43.1785C75.8139 43.2381 75.6614 43.3308 75.5319 43.4509C75.4117 43.5834 75.3193 43.7386 75.2601 43.9075C75.2009 44.0763 75.1762 44.2553 75.1873 44.4338V46.9068H74.4453V42.5657H75.1552V43.198C75.3066 42.9629 75.5155 42.7704 75.7621 42.6386C76.0139 42.5126 76.2928 42.4499 76.5744 42.456C76.8623 42.4476 77.149 42.4981 77.4167 42.6045C77.6343 42.6941 77.8185 42.8491 77.944 43.0481C78.0162 43.1615 78.067 43.2871 78.0939 43.4188C78.1296 43.6417 78.1444 43.8675 78.138 44.0932V46.9068H77.388Z" fill="#1A0060"/>
<path d="M80.2656 46.0039H79.4199V46.9078H80.2656V46.0039Z" fill="#1A0060"/>
<path d="M83.2949 46.9058L85.5518 40.9355H86.4631L88.7293 46.9058H87.8334L87.1903 45.122H84.7957L84.148 46.9058H83.2949ZM85.0519 44.4255H86.9461L86.0061 41.7906L85.0519 44.4255Z" fill="#1A0060"/>
<path d="M92.2037 44.0055C92.2007 43.8744 92.1699 43.7453 92.1134 43.6269C92.0569 43.5084 91.9759 43.4033 91.8759 43.3184C91.6431 43.1461 91.3574 43.0609 91.0683 43.0775C90.8906 43.0683 90.7133 43.1021 90.5515 43.176C90.3897 43.25 90.2482 43.362 90.1389 43.5024C89.8983 43.8605 89.783 44.2882 89.8111 44.7188C89.7842 45.1498 89.8945 45.5782 90.1262 45.9426C90.2278 46.0826 90.3626 46.1952 90.5186 46.2702C90.6745 46.3452 90.8466 46.3802 91.0195 46.3721C91.3196 46.3872 91.6151 46.2936 91.8518 46.1085C92.071 45.9102 92.2084 45.6372 92.2372 45.3431H92.9478C92.9412 45.5789 92.8869 45.8109 92.7881 46.0252C92.6893 46.2394 92.5481 46.4314 92.373 46.5896C91.9815 46.9043 91.4877 47.0637 90.986 47.0372C90.7175 47.0503 90.4496 47.002 90.2026 46.8959C89.9557 46.7898 89.7361 46.6287 89.5608 46.425C89.2195 45.9253 89.0389 45.3333 89.043 44.7282C89.0472 44.1231 89.236 43.5336 89.5843 43.0387C89.7699 42.8316 89.9996 42.6686 90.2563 42.5617C90.5131 42.4547 90.7905 42.4065 91.0683 42.4205C91.551 42.3963 92.0261 42.5482 92.4051 42.848C92.5715 42.9917 92.7051 43.1694 92.7971 43.369C92.8891 43.5687 92.9373 43.7857 92.9384 44.0055H92.2037Z" fill="#1A0060"/>
<path d="M96.6477 46.9058V44.2348C96.6787 43.9251 96.608 43.6136 96.4463 43.3476C96.3574 43.2581 96.2495 43.1896 96.1305 43.1474C96.0116 43.1051 95.8847 43.0901 95.7592 43.1034C95.4088 43.0856 95.0653 43.2057 94.8024 43.4379C94.6828 43.5546 94.5893 43.6953 94.528 43.8508C94.4668 44.0063 94.4392 44.173 94.4471 44.3399V46.9058H93.7051V40.9355H94.4471V43.1763C94.5768 42.9469 94.7708 42.7603 95.0051 42.6397C95.2623 42.5117 95.5469 42.4483 95.8341 42.455C96.1221 42.4466 96.4088 42.4972 96.6765 42.6036C96.894 42.6931 97.0783 42.8482 97.2037 43.0472C97.276 43.1605 97.3268 43.2862 97.3536 43.4179C97.3894 43.6408 97.4042 43.8666 97.3978 44.0923V46.9058H96.6477Z" fill="#1A0060"/>
<path d="M98.5137 40.9355H99.2557V41.7659H98.5137V40.9355ZM98.5137 42.5648H99.2557V46.9062H98.5137V42.5648Z" fill="#1A0060"/>
<path d="M103.367 45.5018H104.101C104.04 45.9456 103.813 46.3496 103.466 46.6326C103.093 46.9171 102.634 47.0631 102.166 47.0454C101.893 47.0585 101.622 47.0108 101.37 46.9057C101.119 46.8006 100.894 46.6408 100.712 46.4379C100.337 45.9699 100.147 45.3797 100.18 44.7806C100.143 44.1574 100.331 43.5416 100.709 43.045C100.889 42.8372 101.113 42.6732 101.365 42.5651C101.618 42.4571 101.891 42.4079 102.166 42.4214C102.438 42.405 102.712 42.4479 102.966 42.5471C103.221 42.6463 103.451 42.7995 103.641 42.9961C104.014 43.4529 104.2 44.0337 104.162 44.622C104.162 44.711 104.162 44.7772 104.161 44.8207C104.16 44.8628 104.156 44.9048 104.15 44.9465H100.961C100.943 45.3301 101.066 45.7068 101.307 46.0063C101.527 46.2191 101.814 46.3496 102.12 46.3761C102.425 46.4025 102.731 46.3232 102.985 46.1515C103.187 45.9891 103.323 45.7579 103.367 45.5018ZM100.956 44.3383H103.383C103.403 43.9968 103.29 43.6608 103.07 43.3996C102.829 43.188 102.519 43.0708 102.199 43.0697C101.878 43.0686 101.568 43.1836 101.326 43.3935C101.097 43.6561 100.966 43.99 100.956 44.3383Z" fill="#1A0060"/>
<path d="M106.082 46.9075L104.453 42.5664H105.249L106.483 46.0443L107.689 42.5664H108.484L106.872 46.9075H106.082Z" fill="#1A0060"/>
<path d="M112.054 45.5018H112.789C112.727 45.9456 112.5 46.3496 112.153 46.6326C111.781 46.9171 111.321 47.0631 110.853 47.0454C110.581 47.0585 110.309 47.0108 110.058 46.9057C109.807 46.8006 109.582 46.6408 109.4 46.4379C109.024 45.9699 108.835 45.3797 108.868 44.7806C108.831 44.1574 109.018 43.5416 109.397 43.045C109.576 42.8372 109.8 42.6732 110.053 42.5651C110.305 42.4571 110.579 42.4079 110.853 42.4214C111.126 42.405 111.399 42.4479 111.654 42.5471C111.908 42.6463 112.139 42.7995 112.328 42.9961C112.701 43.4529 112.887 44.0337 112.85 44.622C112.85 44.711 112.85 44.7772 112.848 44.8207C112.847 44.8628 112.844 44.9048 112.838 44.9465H109.648C109.631 45.3301 109.754 45.7068 109.994 46.0063C110.215 46.2191 110.502 46.3496 110.807 46.3761C111.113 46.4025 111.418 46.3232 111.672 46.1515C111.875 45.9891 112.011 45.7579 112.054 45.5018ZM109.643 44.3383H112.071C112.09 43.9968 111.978 43.6608 111.757 43.3996C111.516 43.188 111.207 43.0708 110.886 43.0697C110.566 43.0686 110.256 43.1836 110.013 43.3935C109.784 43.6561 109.654 43.99 109.643 44.3383Z" fill="#1A0060"/>
<path d="M114.715 46.0039H113.869V46.9078H114.715V46.0039Z" fill="#1A0060"/>
<path d="M118.135 44.9381H118.932C118.928 45.1319 118.965 45.3243 119.041 45.5026C119.117 45.6808 119.23 45.8408 119.373 45.9719C119.69 46.2406 120.097 46.3784 120.512 46.3573C120.905 46.3789 121.294 46.2766 121.625 46.0649C121.754 45.9775 121.859 45.8589 121.93 45.72C122.002 45.5812 122.036 45.4266 122.032 45.2707C122.032 44.8137 121.523 44.4664 120.505 44.2289C120.444 44.2155 120.397 44.2041 120.364 44.1968C119.778 44.1053 119.22 43.886 118.728 43.5545C118.592 43.4258 118.486 43.2688 118.417 43.0947C118.349 42.9206 118.319 42.7336 118.33 42.5468C118.322 42.3014 118.372 42.0575 118.475 41.8346C118.578 41.6118 118.732 41.4162 118.925 41.2635C119.378 40.922 119.938 40.7505 120.505 40.7791C121.078 40.7467 121.643 40.9282 122.09 41.2882C122.284 41.4639 122.437 41.68 122.538 41.9214C122.639 42.1627 122.686 42.4232 122.675 42.6846L121.887 42.6887C121.885 42.515 121.847 42.3437 121.775 42.1854C121.704 42.0271 121.601 41.885 121.472 41.768C121.182 41.5411 120.819 41.4275 120.451 41.4482C120.108 41.4309 119.769 41.5225 119.481 41.7098C119.367 41.7858 119.274 41.8894 119.21 42.0109C119.147 42.1324 119.115 42.2679 119.118 42.405C119.118 42.8673 119.619 43.2119 120.621 43.4387C120.769 43.4735 120.883 43.5009 120.962 43.519C120.979 43.5223 121.007 43.529 121.049 43.5397C121.513 43.6162 121.957 43.7858 122.354 44.0382C122.514 44.1713 122.642 44.3402 122.725 44.5313C122.813 44.7353 122.857 44.9556 122.853 45.1777C122.863 45.4399 122.811 45.7007 122.702 45.9392C122.592 46.1778 122.429 46.3874 122.224 46.5513C121.733 46.9141 121.131 47.0946 120.522 47.0618C119.899 47.1001 119.284 46.9044 118.798 46.5132C118.585 46.3104 118.416 46.0659 118.302 45.7949C118.188 45.5238 118.131 45.2322 118.135 44.9381Z" fill="#1A0060"/>
<path d="M124.524 42.5664V45.2294C124.494 45.5401 124.565 45.8523 124.728 46.1186C124.817 46.2096 124.925 46.2794 125.045 46.3227C125.164 46.3661 125.292 46.3818 125.419 46.3688C125.599 46.3814 125.779 46.3547 125.947 46.2906C126.116 46.2265 126.268 46.1264 126.394 45.9975C126.635 45.6862 126.752 45.2972 126.723 44.9049V42.5664H127.467V46.9077H126.757V46.2593C126.614 46.5003 126.406 46.6967 126.158 46.8267C125.89 46.9587 125.594 47.0241 125.296 47.0174C125.019 47.0237 124.745 46.971 124.491 46.8628C124.276 46.772 124.094 46.6197 123.966 46.4252C123.895 46.3116 123.845 46.186 123.818 46.0546C123.782 45.8317 123.767 45.6059 123.773 45.3801V42.5666L124.524 42.5664Z" fill="#1A0060"/>
<path d="M131.529 44.0056C131.526 43.8744 131.495 43.7454 131.438 43.627C131.381 43.5086 131.3 43.4035 131.2 43.3185C130.968 43.1462 130.683 43.0609 130.394 43.0776C130.216 43.0684 130.038 43.1022 129.876 43.1762C129.714 43.2501 129.572 43.362 129.462 43.5025C129.223 43.8611 129.108 44.2885 129.135 44.7189C129.108 45.1498 129.219 45.5783 129.45 45.9426C129.552 46.0826 129.687 46.1951 129.843 46.2701C129.999 46.345 130.171 46.3801 130.344 46.3722C130.644 46.3877 130.94 46.2941 131.176 46.1086C131.395 45.9104 131.533 45.6374 131.561 45.3431H132.271C132.265 45.5788 132.211 45.8108 132.113 46.0251C132.014 46.2393 131.873 46.4314 131.699 46.5896C131.307 46.9042 130.813 47.0635 130.312 47.0372C130.043 47.0502 129.775 47.0019 129.528 46.8958C129.28 46.7897 129.061 46.6287 128.885 46.425C128.544 45.9253 128.363 45.3334 128.367 44.7283C128.371 44.1233 128.56 43.5338 128.908 43.0388C129.094 42.8318 129.324 42.6689 129.581 42.5619C129.838 42.455 130.116 42.4067 130.394 42.4205C130.876 42.396 131.351 42.548 131.729 42.8481C131.895 42.9918 132.029 43.1694 132.121 43.369C132.214 43.5686 132.262 43.7857 132.264 44.0056H131.529Z" fill="#1A0060"/>
<path d="M135.971 44.0055C135.968 43.8744 135.937 43.7453 135.881 43.6269C135.824 43.5084 135.744 43.4033 135.643 43.3184C135.411 43.1461 135.125 43.0609 134.836 43.0775C134.658 43.0683 134.481 43.1021 134.319 43.176C134.157 43.25 134.016 43.362 133.907 43.5024C133.666 43.8605 133.551 44.2882 133.579 44.7188C133.552 45.1498 133.662 45.5782 133.894 45.9426C133.995 46.0826 134.13 46.1952 134.286 46.2702C134.442 46.3452 134.614 46.3802 134.787 46.3721C135.087 46.3872 135.383 46.2936 135.619 46.1085C135.839 45.9102 135.976 45.6372 136.005 45.3431H136.715C136.709 45.5789 136.654 45.8109 136.556 46.0252C136.457 46.2394 136.316 46.4314 136.141 46.5896C135.749 46.9043 135.255 47.0637 134.754 47.0372C134.485 47.0503 134.217 47.002 133.97 46.8959C133.723 46.7898 133.504 46.6287 133.328 46.425C132.987 45.9253 132.806 45.3333 132.811 44.7282C132.815 44.1231 133.004 43.5336 133.352 43.0387C133.538 42.8316 133.767 42.6686 134.024 42.5617C134.281 42.4547 134.558 42.4065 134.836 42.4205C135.319 42.3963 135.794 42.5482 136.173 42.848C136.339 42.9917 136.473 43.1694 136.565 43.369C136.657 43.5687 136.705 43.7857 136.706 44.0055H135.971Z" fill="#1A0060"/>
<path d="M140.449 45.5019H141.184C141.124 45.946 140.896 46.3504 140.548 46.6326C140.176 46.9173 139.717 47.0633 139.248 47.0455C138.976 47.0584 138.705 47.0106 138.454 46.9055C138.203 46.8004 137.978 46.6407 137.796 46.4379C137.42 45.9702 137.231 45.3798 137.265 44.7806C137.227 44.1576 137.414 43.5418 137.792 43.045C137.971 42.8372 138.196 42.6731 138.448 42.5651C138.7 42.457 138.974 42.4079 139.248 42.4214C139.521 42.4049 139.794 42.4478 140.049 42.547C140.304 42.6462 140.534 42.7995 140.724 42.9962C141.097 43.4525 141.284 44.0335 141.246 44.622C141.246 44.711 141.245 44.7773 141.245 44.8208C141.244 44.8642 141.239 44.9057 141.234 44.9465H138.043C138.027 45.3302 138.151 45.7067 138.391 46.0064C138.611 46.2192 138.898 46.3497 139.204 46.3761C139.509 46.4025 139.815 46.3233 140.069 46.1516C140.271 45.9889 140.406 45.7577 140.449 45.5019ZM138.04 44.3383H140.466C140.486 43.9967 140.374 43.6606 140.152 43.3996C139.911 43.188 139.602 43.0708 139.282 43.0697C138.961 43.0686 138.651 43.1837 138.409 43.3936C138.179 43.6558 138.049 43.99 138.04 44.3383Z" fill="#1A0060"/>
<path d="M145.07 45.5019H145.805C145.745 45.946 145.518 46.3504 145.169 46.6326C144.797 46.9173 144.338 47.0633 143.869 47.0455C143.598 47.0584 143.326 47.0106 143.075 46.9055C142.824 46.8004 142.599 46.6407 142.418 46.4379C142.041 45.9702 141.852 45.3798 141.886 44.7806C141.848 44.1576 142.035 43.5418 142.413 43.045C142.592 42.8372 142.817 42.6731 143.069 42.5651C143.322 42.457 143.595 42.4079 143.869 42.4214C144.142 42.4049 144.415 42.4478 144.67 42.547C144.925 42.6462 145.155 42.7995 145.345 42.9962C145.718 43.4525 145.905 44.0335 145.867 44.622C145.867 44.711 145.866 44.7773 145.866 44.8208C145.865 44.8642 145.86 44.9057 145.855 44.9465H142.664C142.648 45.3302 142.772 45.7067 143.012 46.0064C143.232 46.2192 143.52 46.3497 143.825 46.3761C144.13 46.4025 144.436 46.3233 144.69 46.1516C144.892 45.9889 145.027 45.7577 145.07 45.5019ZM142.661 44.3383H145.087C145.107 43.9967 144.995 43.6606 144.773 43.3996C144.533 43.188 144.223 43.0708 143.903 43.0697C143.582 43.0686 143.272 43.1837 143.03 43.3936C142.8 43.6558 142.67 43.99 142.661 44.3383Z" fill="#1A0060"/>
<path d="M150.577 40.9355V46.906H149.859V46.3587C149.685 46.5743 149.465 46.7486 149.216 46.8692C148.968 46.9847 148.697 47.043 148.424 47.0398C148.157 47.0504 147.891 46.9998 147.647 46.892C147.402 46.7842 147.186 46.6219 147.014 46.4176C146.643 45.9431 146.457 45.3508 146.488 44.7495C146.455 44.1393 146.642 43.5376 147.015 43.0534C147.186 42.8475 147.402 42.6836 147.646 42.5744C147.89 42.4651 148.156 42.4134 148.424 42.4231C148.706 42.4174 148.985 42.475 149.242 42.5917C149.486 42.7073 149.697 42.8805 149.859 43.0962V40.9357L150.577 40.9355ZM149.885 44.7052C149.916 44.2737 149.799 43.8445 149.552 43.4888C149.431 43.3492 149.279 43.2396 149.108 43.1687C148.938 43.0977 148.753 43.0674 148.568 43.08C148.382 43.0706 148.197 43.1063 148.028 43.1841C147.859 43.262 147.711 43.3796 147.597 43.5269C147.348 43.9019 147.228 44.3485 147.256 44.7982C147.232 45.2167 147.357 45.6302 147.608 45.9658C147.726 46.1062 147.874 46.2177 148.042 46.2914C148.21 46.3651 148.393 46.399 148.576 46.3906C148.76 46.4002 148.944 46.3655 149.112 46.2894C149.28 46.2132 149.428 46.0979 149.542 45.953C149.793 45.587 149.913 45.1477 149.885 44.7052Z" fill="#1A0060"/>
<path d="M152.754 46.0039H151.908V46.9078H152.754V46.0039Z" fill="#1A0060"/>
</g>
<defs>
<clipPath id="clip0_1804_10701">
<rect width="204.201" height="50.9364" fill="white"/>
</clipPath>
</defs>
</svg>
