<svg width="375" height="98" viewBox="0 0 375 98" fill="none" xmlns="http://www.w3.org/2000/svg">
<rect width="97.9989" height="97.9989" transform="matrix(1 0 0 -1 310.761 98)" fill="white"/>
<path d="M408.762 97.9989C395.892 97.9989 383.149 95.4641 371.259 90.5392C359.369 85.6143 348.566 78.3958 339.466 69.2957C330.366 60.1957 323.147 49.3923 318.222 37.5026C313.298 25.6128 310.763 12.8694 310.763 0L408.762 7.47672e-06V97.9989Z" fill="#E4D7FF"/>
<path d="M408.76 48.9995C402.326 48.9995 395.954 47.7321 390.009 45.2696C384.064 42.8072 378.662 39.1979 374.112 34.6479C369.562 30.0978 365.953 24.6962 363.491 18.7513C361.028 12.8064 359.761 6.4347 359.761 0L408.76 3.73836e-06V48.9995Z" fill="#6617FF"/>
<rect width="48.8299" height="48.8299" transform="matrix(-0.00219698 0.999998 -1 0 261.831 49.0381)" fill="#FF66CC"/>
<path d="M213.003 48.0195L212.894 97.8683L261.833 48.0195H213.003Z" fill="#FF66CC"/>
<rect width="48.8299" height="48.8299" transform="matrix(0.00219698 -0.999998 1 0 261.724 97.8672)" fill="white"/>
<path d="M286.192 73.4531C299.676 73.4531 310.631 62.5222 310.661 49.0382H261.831C261.802 62.5222 272.708 73.4531 286.192 73.4531Z" fill="#6617FF"/>
<path d="M286.192 73.4531C299.676 73.4531 310.583 84.384 310.554 97.868H261.724C261.754 84.384 272.708 73.4531 286.192 73.4531Z" fill="#FFCEEF"/>
<rect width="48.8299" height="48.8299" transform="matrix(-0.00219698 0.999998 1 0 213.125 0)" fill="#FF66CC"/>
<path d="M213.126 0.00030625C213.112 6.41272 214.361 12.7623 216.802 18.6867C219.243 24.611 222.828 29.9939 227.352 34.5282C231.876 39.0624 237.251 42.6592 243.17 45.1131C249.089 47.5671 255.436 48.8301 261.849 48.8301L261.956 0.00030625H213.126Z" fill="#1A0060"/>
<rect width="48.8299" height="48.8299" transform="matrix(-0.00219698 0.999998 1 0 261.956 0)" fill="#FFCEEF"/>
<rect width="24.4149" height="48.8299" transform="matrix(-0.00219698 0.999998 1 0 261.956 0)" fill="#FF66CC"/>
<rect width="24.4149" height="48.8299" transform="matrix(-0.00219698 0.999998 1 0 261.956 0)" fill="#FF66CC"/>
<rect width="48.8299" height="48.8299" transform="matrix(0.00219698 -0.999998 1 0 -11.9194 48.8291)" fill="#6617FF"/>
<path d="M36.9105 48.8291L37.0177 -0.000670312L-11.9194 48.8291L36.9105 48.8291Z" fill="#6617FF"/>
<rect width="48.8299" height="48.8299" transform="matrix(0.00219698 -0.999998 -1 0 36.8032 97.6602)" fill="#FF66CC"/>
<path d="M36.8032 97.6598C36.8173 91.2474 35.5682 84.8978 33.1273 78.9735C30.6864 73.0492 27.1014 67.6662 22.5771 63.132C18.0528 58.5977 12.6777 55.0009 6.75879 52.547C0.839868 50.0931 -5.507 48.8301 -11.9194 48.8301L-12.0267 97.6598L36.8032 97.6598Z" fill="#1A0060"/>
<rect width="97.9989" height="97.9989" transform="matrix(1 0 0 -1 115.101 98)" fill="white"/>
<path d="M213.099 97.9989C200.23 97.9989 187.486 95.4641 175.596 90.5392C163.707 85.6143 152.903 78.3958 143.803 69.2957C134.703 60.1957 127.485 49.3923 122.56 37.5026C117.635 25.6128 115.1 12.8694 115.1 0L213.099 7.47672e-06V97.9989Z" fill="#1A0060"/>
<path d="M213.099 48.9995C206.664 48.9995 200.293 47.7321 194.348 45.2696C188.403 42.8072 183.001 39.1979 178.451 34.6479C173.901 30.0978 170.292 24.6962 167.829 18.7513C165.367 12.8064 164.1 6.4347 164.1 0L213.099 3.73836e-06V48.9995Z" fill="#E4D7FF"/>
<rect width="97.9989" height="97.9989" transform="matrix(-1 0 0 1 134.822 0)" fill="white"/>
<path d="M36.8238 9.15527e-05C49.6932 9.15527e-05 62.4366 2.5349 74.3264 7.45982C86.2162 12.3847 97.0195 19.6033 106.12 28.7033C115.22 37.8034 122.438 48.6067 127.363 60.4965C132.288 72.3862 134.823 85.1296 134.823 97.999L36.8238 97.999L36.8238 9.15527e-05Z" fill="#6617FF"/>
<path d="M36.8218 48.9341C43.2565 48.9341 49.6282 50.2015 55.5731 52.664C61.518 55.1264 66.9197 58.7357 71.4697 63.2857C76.0197 67.8358 79.629 73.2374 82.0914 79.1823C84.5539 85.1272 85.8213 91.4989 85.8213 97.9336L36.8218 97.9336L36.8218 48.9341Z" fill="#E4D7FF"/>
</svg>
