<svg width="1440" height="144" viewBox="0 0 1440 144" fill="none" xmlns="http://www.w3.org/2000/svg">
<rect width="71.6047" height="71.6047" transform="matrix(-0.00219698 0.999998 -1 0 877.413 71.6074)" fill="#3DA75D"/>
<path d="M805.808 71.6074L805.651 143.212L877.413 71.6074H805.808Z" fill="#3DA75D"/>
<rect width="71.6047" height="71.6047" transform="matrix(0.00219698 -0.999998 1 0 877.257 143.212)" fill="white"/>
<path d="M913.137 107.409C932.91 107.409 948.975 91.38 949.018 71.6069H877.413C877.37 91.38 893.364 107.409 913.137 107.409Z" fill="#0C434B"/>
<path d="M913.137 107.409C932.91 107.409 948.904 123.438 948.861 143.211H877.256C877.299 123.438 893.364 107.409 913.137 107.409Z" fill="#B0DDBE"/>
<rect width="71.6047" height="71.6047" transform="matrix(-0.00219698 0.999998 1 0 805.965 0.00292969)" fill="#3DA75D"/>
<path d="M805.966 0.0028529C805.945 9.4061 807.777 18.7173 811.356 27.4047C814.935 36.0922 820.192 43.9858 826.827 50.6349C833.461 57.284 841.344 62.5584 850.023 66.1568C858.703 69.7553 868.01 71.6074 877.413 71.6074L877.57 0.0028529H805.966Z" fill="#A8D7B6"/>
<rect width="71.6047" height="71.6047" transform="matrix(-0.00219698 0.999998 1 0 877.571 0.00292969)" fill="#B0DDBE"/>
<rect width="35.8024" height="71.6047" transform="matrix(-0.00219698 0.999998 1 0 877.571 0.00292969)" fill="#3DA75D"/>
<rect width="35.8024" height="71.6047" transform="matrix(-0.00219698 0.999998 1 0 877.571 0.00292969)" fill="#3DA75D"/>
<rect width="143.707" height="143.707" transform="matrix(1 0 0 -1 662.398 143.707)" fill="#0B434B"/>
<path d="M806.106 143.707C787.234 143.707 768.547 139.99 751.112 132.768C733.676 125.546 717.834 114.96 704.49 101.616C691.145 88.2717 680.56 72.4295 673.338 54.9942C666.116 37.5589 662.399 18.8718 662.399 0L806.106 1.0964e-05V143.707Z" fill="#B0DDBE"/>
<path d="M806.104 71.8534C796.668 71.8534 787.325 69.9949 778.607 66.3839C769.89 62.7729 761.969 57.4802 755.296 50.808C748.624 44.1358 743.331 36.2148 739.72 27.4971C736.11 18.7795 734.251 9.43592 734.251 0L806.104 5.48198e-06V71.8534Z" fill="#3DA75D"/>
<rect width="71.6047" height="71.6047" transform="matrix(-0.00219698 0.999998 -1 0 590.645 71.9111)" fill="#3DA75D"/>
<path d="M519.043 70.417L518.883 143.516L590.648 70.417H519.043Z" fill="#3DA75D"/>
<rect width="71.6047" height="71.6047" transform="matrix(0.00219698 -0.999998 1 0 590.488 143.515)" fill="white"/>
<path d="M626.369 107.714C646.142 107.714 662.206 91.6846 662.25 71.9116H590.645C590.602 91.6846 606.596 107.714 626.369 107.714Z" fill="#0C434B"/>
<path d="M626.369 107.714C646.142 107.714 662.136 123.743 662.092 143.516H590.488C590.531 123.743 606.596 107.714 626.369 107.714Z" fill="#B0DDBE"/>
<rect width="71.6047" height="71.6047" transform="matrix(-0.00219698 0.999998 1 0 519.222 0)" fill="#3DA75D"/>
<path d="M519.223 0.000899779C519.202 9.40414 521.034 18.7153 524.613 27.4028C528.193 36.0902 533.45 43.9839 540.084 50.633C546.719 57.2821 554.601 62.5564 563.28 66.1549C571.96 69.7534 581.267 71.6055 590.67 71.6055L590.828 0.000899779H519.223Z" fill="#A8D7B6"/>
<rect width="71.6047" height="71.6047" transform="matrix(-0.00219698 0.999998 1 0 590.828 0.000976562)" fill="#B0DDBE"/>
<rect width="35.8024" height="71.6047" transform="matrix(-0.00219698 0.999998 1 0 590.828 0.000976562)" fill="#3DA75D"/>
<rect width="35.8024" height="71.6047" transform="matrix(-0.00219698 0.999998 1 0 590.828 0.000976562)" fill="#3DA75D"/>
<rect width="71.6047" height="71.6047" transform="matrix(0.00219698 -0.999998 1 0 189.215 71.6064)" fill="#3DA75D"/>
<path d="M260.82 71.6064L260.977 0.00187634L189.215 71.6064L260.82 71.6064Z" fill="#3DA75D"/>
<rect width="71.6047" height="71.6047" transform="matrix(-0.00219698 0.999998 -1 0 189.372 0.00195312)" fill="white"/>
<path d="M153.491 35.8047C133.718 35.8047 117.654 51.8339 117.61 71.607L189.215 71.607C189.258 51.8339 173.264 35.8047 153.491 35.8047Z" fill="#0C434B"/>
<path d="M153.491 35.8047C133.718 35.8047 117.724 19.7755 117.768 0.00240301L189.372 0.00240301C189.329 19.7755 173.264 35.8047 153.491 35.8047Z" fill="#B0DDBE"/>
<rect width="71.6047" height="71.6047" transform="matrix(0.00219698 -0.999998 -1 0 260.663 143.211)" fill="#3DA75D"/>
<path d="M260.662 143.211C260.683 133.808 258.851 124.497 255.272 115.809C251.693 107.122 246.435 99.228 239.801 92.5789C233.166 85.9298 225.284 80.6555 216.605 77.057C207.925 73.4586 198.618 71.6064 189.215 71.6064L189.058 143.211H260.662Z" fill="#A8D7B6"/>
<rect width="71.6047" height="71.6047" transform="matrix(0.00219698 -0.999998 -1 0 189.057 143.211)" fill="#B0DDBE"/>
<rect width="35.8024" height="71.6047" transform="matrix(0.00219698 -0.999998 -1 0 189.057 143.211)" fill="#3DA75D"/>
<rect width="35.8024" height="71.6047" transform="matrix(0.00219698 -0.999998 -1 0 189.057 143.211)" fill="#3DA75D"/>
<rect width="71.6047" height="71.6047" transform="matrix(0.00219698 0.999998 1 0 46.6731 71.6074)" fill="#3DA75D"/>
<path d="M118.278 71.6074L118.435 143.212L46.6731 71.6074L118.278 71.6074Z" fill="#3DA75D"/>
<rect width="71.6047" height="71.6047" transform="matrix(-0.00219698 -0.999998 -1 0 46.8303 143.212)" fill="white"/>
<path d="M10.9491 107.409C-8.824 107.409 -24.8885 91.38 -24.9319 71.6069L46.6728 71.6069C46.7163 91.38 30.7222 107.409 10.9491 107.409Z" fill="#0C434B"/>
<path d="M10.9491 107.409C-8.824 107.409 -24.8181 123.438 -24.7746 143.211H46.8301C46.7867 123.438 30.7222 107.409 10.9491 107.409Z" fill="#B0DDBE"/>
<rect width="71.6047" height="71.6047" transform="matrix(0.00219698 0.999998 -1 0 118.12 0.000976562)" fill="#3DA75D"/>
<path d="M118.12 0.0028529C118.141 9.4061 116.309 18.7173 112.73 27.4047C109.15 36.0922 103.893 43.9858 97.2587 50.6349C90.6242 57.284 82.7422 62.5584 74.0626 66.1568C65.383 69.7553 56.0759 71.6074 46.6726 71.6074L46.5153 0.0028529L118.12 0.0028529Z" fill="#A8D7B6"/>
<rect width="71.6047" height="71.6047" transform="matrix(0.00219698 0.999998 -1 0 46.5154 0.00292969)" fill="#B0DDBE"/>
<rect width="35.8024" height="71.6047" transform="matrix(0.00219698 0.999998 -1 0 46.5154 0.00292969)" fill="#3DA75D"/>
<rect width="35.8024" height="71.6047" transform="matrix(0.00219698 0.999998 -1 0 46.5154 0.00292969)" fill="#3DA75D"/>
<rect width="143.707" height="143.707" transform="matrix(1 0 0 -1 375.478 143.708)" fill="#0B434B"/>
<path d="M519.184 143.708C500.313 143.708 481.625 139.991 464.19 132.769C446.755 125.547 430.913 114.961 417.568 101.617C404.224 88.2726 393.639 72.4305 386.417 54.9952C379.195 37.5599 375.478 18.8728 375.478 0.000976562L519.184 0.000987526V143.708Z" fill="#A8D7B6"/>
<path d="M519.184 71.8544C509.748 71.8544 500.405 69.9958 491.687 66.3849C482.969 62.7739 475.048 57.4812 468.376 50.809C461.704 44.1368 456.411 36.2157 452.8 27.4981C449.189 18.7804 447.331 9.4369 447.331 0.000976562L519.184 0.000982044V71.8544Z" fill="#3DA75D"/>
<rect width="143.707" height="143.707" transform="matrix(-1 0 0 1 404.397 0)" fill="#0B434B"/>
<path d="M260.692 0.000213623C279.563 0.000213623 298.251 3.7173 315.686 10.9392C333.121 18.1612 348.963 28.7466 362.308 42.091C375.652 55.4354 386.237 71.2775 393.459 88.7128C400.681 106.148 404.398 124.835 404.398 143.707L260.692 143.707V0.000213623Z" fill="white"/>
<path d="M260.689 71.7579C270.125 71.7579 279.469 73.6165 288.186 77.2274C296.904 80.8384 304.825 86.1311 311.497 92.8033C318.17 99.4755 323.462 107.397 327.073 116.114C330.684 124.832 332.543 134.175 332.543 143.611L260.689 143.611V71.7579Z" fill="#3DA75D"/>
<rect width="71.6047" height="71.6047" transform="matrix(0.00219698 -0.999998 1 0 1020.59 72.1006)" fill="#3DA75D"/>
<path d="M1092.19 72.1006L1092.35 0.496017L1020.59 72.1006H1092.19Z" fill="#3DA75D"/>
<rect width="71.6047" height="71.6047" transform="matrix(-0.00219698 0.999998 -1 0 1020.74 0.496094)" fill="white"/>
<path d="M984.863 36.2988C965.09 36.2988 949.026 52.3281 948.982 72.1011H1020.59C1020.63 52.3281 1004.64 36.2988 984.863 36.2988Z" fill="#0C434B"/>
<path d="M984.863 36.2988C965.09 36.2988 949.096 20.2696 949.14 0.496544H1020.74C1020.7 20.2696 1004.64 36.2988 984.863 36.2988Z" fill="#B0DDBE"/>
<rect width="71.6047" height="71.6047" transform="matrix(0.00219698 -0.999998 -1 0 1092.04 143.705)" fill="#3DA75D"/>
<path d="M1092.03 143.705C1092.06 134.302 1090.22 124.991 1086.64 116.303C1083.07 107.616 1077.81 99.7222 1071.17 93.0731C1064.54 86.424 1056.66 81.1496 1047.98 77.5512C1039.3 73.9527 1029.99 72.1006 1020.59 72.1006L1020.43 143.705H1092.03Z" fill="#A8D7B6"/>
<rect width="71.6047" height="71.6047" transform="matrix(0.00219698 -0.999998 -1 0 1020.43 143.705)" fill="#B0DDBE"/>
<rect width="35.8024" height="71.6047" transform="matrix(0.00219698 -0.999998 -1 0 1020.43 143.705)" fill="#3DA75D"/>
<rect width="35.8024" height="71.6047" transform="matrix(0.00219698 -0.999998 -1 0 1020.43 143.705)" fill="#3DA75D"/>
<rect width="143.707" height="143.707" transform="matrix(-1 0 0 1 1235.6 0.000976562)" fill="#0B434B"/>
<path d="M1091.89 0.00119019C1110.77 0.00119019 1129.45 3.71826 1146.89 10.9402C1164.32 18.1622 1180.17 28.7475 1193.51 42.0919C1206.86 55.4363 1217.44 71.2785 1224.66 88.7138C1231.88 106.149 1235.6 124.836 1235.6 143.708L1091.89 143.708V0.00119019Z" fill="#B0DDBE"/>
<path d="M1091.9 71.8546C1101.33 71.8546 1110.68 73.7131 1119.39 77.3241C1128.11 80.9351 1136.03 86.2278 1142.7 92.9C1149.38 99.5722 1154.67 107.493 1158.28 116.211C1161.89 124.929 1163.75 134.272 1163.75 143.708L1091.9 143.708V71.8546Z" fill="#3DA75D"/>
<rect width="71.6047" height="71.6047" transform="matrix(0.00219698 -0.999998 1 0 1307.36 71.7969)" fill="#3DA75D"/>
<path d="M1378.96 73.291L1379.12 0.19218L1307.35 73.291H1378.96Z" fill="#3DA75D"/>
<rect width="71.6047" height="71.6047" transform="matrix(-0.00219698 0.999998 -1 0 1307.51 0.193359)" fill="white"/>
<path d="M1271.63 35.9941C1251.86 35.9941 1235.79 52.0234 1235.75 71.7964H1307.36C1307.4 52.0234 1291.4 35.9941 1271.63 35.9941Z" fill="#0C434B"/>
<path d="M1271.63 35.9941C1251.86 35.9941 1235.86 19.9649 1235.91 0.191856H1307.51C1307.47 19.9649 1291.4 35.9941 1271.63 35.9941Z" fill="#B0DDBE"/>
<rect width="71.6047" height="71.6047" transform="matrix(0.00219698 -0.999998 -1 0 1378.78 143.708)" fill="#3DA75D"/>
<path d="M1378.78 143.707C1378.8 134.304 1376.97 124.993 1373.39 116.305C1369.81 107.618 1364.55 99.7241 1357.92 93.075C1351.28 86.4259 1343.4 81.1516 1334.72 77.5531C1326.04 73.9546 1316.73 72.1025 1307.33 72.1025L1307.17 143.707H1378.78Z" fill="#A8D7B6"/>
<rect width="71.6047" height="71.6047" transform="matrix(0.00219698 -0.999998 -1 0 1307.17 143.707)" fill="#B0DDBE"/>
<rect width="35.8024" height="71.6047" transform="matrix(0.00219698 -0.999998 -1 0 1307.17 143.707)" fill="#3DA75D"/>
<rect width="35.8024" height="71.6047" transform="matrix(0.00219698 -0.999998 -1 0 1307.17 143.707)" fill="#3DA75D"/>
<rect width="143.707" height="143.707" transform="matrix(-1 0 0 1 1522.52 0)" fill="#0B434B"/>
<path d="M1378.82 0.000213623C1397.69 0.000213623 1416.38 3.7173 1433.81 10.9392C1451.25 18.1612 1467.09 28.7466 1480.43 42.091C1493.78 55.4354 1504.36 71.2775 1511.58 88.7128C1518.81 106.148 1522.52 124.835 1522.52 143.707L1378.82 143.707V0.000213623Z" fill="#A8D7B6"/>
<path d="M1378.82 71.8536C1388.25 71.8536 1397.6 73.7122 1406.31 77.3231C1415.03 80.9341 1422.95 86.2268 1429.62 92.899C1436.3 99.5712 1441.59 107.492 1445.2 116.21C1448.81 124.928 1450.67 134.271 1450.67 143.707L1378.82 143.707V71.8536Z" fill="#3DA75D"/>
</svg>
