<svg width="1440" height="244" viewBox="0 0 1440 244" fill="none" xmlns="http://www.w3.org/2000/svg">
<rect width="121.097" height="121.097" transform="matrix(-0.00219698 0.999998 -1 0 194.147 122.064)" fill="#FF66CC"/>
<path d="M73.0504 122.064L72.7844 243.16L194.147 122.064H73.0504Z" fill="#FF66CC"/>
<rect width="121.097" height="121.097" transform="matrix(0.00219698 -0.999998 1 0 193.882 243.16)" fill="white"/>
<path d="M254.563 182.612C288.003 182.612 315.171 155.504 315.244 122.064H194.147C194.074 155.504 221.123 182.612 254.563 182.612Z" fill="#6617FF"/>
<path d="M254.563 182.612C288.003 182.612 315.052 209.721 314.978 243.161H193.881C193.955 209.721 221.123 182.612 254.563 182.612Z" fill="#FFCEEF"/>
<rect width="121.097" height="121.097" transform="matrix(-0.00219698 0.999998 1 0 73.316 0.967773)" fill="#FF66CC"/>
<path d="M73.3158 0.96868C73.2809 16.8713 76.3785 32.6182 82.4319 47.3103C88.4853 62.0024 97.3759 75.352 108.596 86.5968C119.816 97.8417 133.146 106.762 147.825 112.847C162.504 118.933 178.244 122.065 194.147 122.065L194.413 0.96868H73.3158Z" fill="#1A0060"/>
<rect width="121.097" height="121.097" transform="matrix(-0.00219698 0.999998 1 0 194.412 0.968506)" fill="#FFCEEF"/>
<rect width="60.5484" height="121.097" transform="matrix(-0.00219698 0.999998 1 0 194.412 0.968506)" fill="#FF66CC"/>
<rect width="60.5484" height="121.097" transform="matrix(-0.00219698 0.999998 1 0 194.412 0.968506)" fill="#FF66CC"/>
<rect width="243.035" height="243.035" transform="matrix(1 0 0 -1 -169.484 243.998)" fill="white"/>
<path d="M73.5526 243.998C41.6368 243.998 10.0336 237.711 -19.4528 225.498C-48.9391 213.284 -75.731 195.382 -98.2989 172.814C-120.867 150.247 -138.769 123.455 -150.982 93.9683C-163.196 64.4819 -169.482 32.8787 -169.482 0.962891L73.5526 0.962909L73.5526 243.998Z" fill="#E4D7FF"/>
<path d="M73.5507 122.48C57.5928 122.48 41.7912 119.337 27.048 113.23C12.3048 107.123 -1.09114 98.1726 -12.3751 86.8886C-23.659 75.6047 -32.6099 62.2087 -38.7167 47.4656C-44.8235 32.7224 -47.9667 16.9208 -47.9667 0.962891L73.5507 0.9629L73.5507 122.48Z" fill="#6617FF"/>
<rect width="121.097" height="121.097" transform="matrix(0.00219698 -0.999998 1 0 436.28 122.898)" fill="#FF66CC"/>
<path d="M557.377 122.898L557.643 1.80193L436.28 122.898H557.377Z" fill="#FF66CC"/>
<rect width="121.097" height="121.097" transform="matrix(-0.00219698 0.999998 -1 0 436.545 1.80273)" fill="white"/>
<path d="M375.865 62.3501C342.425 62.3501 315.257 89.4585 315.183 122.898H436.28C436.353 89.4585 409.305 62.3501 375.865 62.3501Z" fill="#6617FF"/>
<path d="M375.865 62.3501C342.425 62.3501 315.376 35.2417 315.449 1.80184H436.546C436.473 35.2417 409.305 62.3501 375.865 62.3501Z" fill="#FFCEEF"/>
<rect width="121.097" height="121.097" transform="matrix(0.00219698 -0.999998 -1 0 557.112 243.995)" fill="#FF66CC"/>
<path d="M557.112 243.994C557.147 228.092 554.049 212.345 547.996 197.653C541.942 182.961 533.052 169.611 521.831 158.366C510.611 147.121 497.281 138.202 482.602 132.116C467.924 126.03 452.184 122.898 436.281 122.898L436.015 243.994H557.112Z" fill="#1A0060"/>
<rect width="121.097" height="121.097" transform="matrix(0.00219698 -0.999998 -1 0 436.015 243.994)" fill="#FFCEEF"/>
<rect width="60.5484" height="121.097" transform="matrix(0.00219698 -0.999998 -1 0 436.015 243.994)" fill="#FF66CC"/>
<rect width="60.5484" height="121.097" transform="matrix(0.00219698 -0.999998 -1 0 436.015 243.994)" fill="#FF66CC"/>
<rect width="243.035" height="243.035" transform="matrix(-1 0 0 1 799.912 0.964844)" fill="white"/>
<path d="M556.875 0.96505C588.79 0.96505 620.394 7.25132 649.88 19.465C679.366 31.6786 706.158 49.5804 728.726 72.1483C751.294 94.7161 769.196 121.508 781.409 150.994C793.623 180.481 799.909 212.084 799.909 244L556.875 244V0.96505Z" fill="#6617FF"/>
<path d="M556.877 122.482C572.835 122.482 588.637 125.626 603.38 131.732C618.123 137.839 631.519 146.79 642.803 158.074C654.087 169.358 663.038 182.754 669.144 197.497C675.251 212.24 678.394 228.042 678.394 244L556.877 244V122.482Z" fill="#FF66CC"/>
<rect width="121.097" height="121.097" transform="matrix(0.00219698 -0.999998 1 0 921.259 122.385)" fill="#FF66CC"/>
<path d="M1042.35 124.913L1042.62 1.28901L921.254 124.913H1042.35Z" fill="#FF66CC"/>
<rect width="121.097" height="121.097" transform="matrix(-0.00219698 0.999998 -1 0 921.525 1.29004)" fill="white"/>
<path d="M860.843 61.8367C827.403 61.8367 800.235 88.945 800.161 122.385H921.258C921.332 88.945 894.283 61.8367 860.843 61.8367Z" fill="#6617FF"/>
<path d="M860.843 61.8367C827.403 61.8367 800.354 34.7283 800.427 1.28842H921.524C921.451 34.7283 894.283 61.8367 860.843 61.8367Z" fill="#FFCEEF"/>
<rect width="121.097" height="121.097" transform="matrix(0.00219698 -0.999998 -1 0 1042.05 244)" fill="#FF66CC"/>
<path d="M1042.05 243.998C1042.08 228.096 1038.98 212.349 1032.93 197.657C1026.88 182.965 1017.99 169.615 1006.77 158.37C995.546 147.125 982.216 138.205 967.538 132.12C952.859 126.034 937.119 122.902 921.216 122.902L920.95 243.998H1042.05Z" fill="#1A0060"/>
<rect width="121.097" height="121.097" transform="matrix(0.00219698 -0.999998 -1 0 920.95 243.998)" fill="#FFCEEF"/>
<rect width="60.5484" height="121.097" transform="matrix(0.00219698 -0.999998 -1 0 920.95 243.998)" fill="#FF66CC"/>
<rect width="60.5484" height="121.097" transform="matrix(0.00219698 -0.999998 -1 0 920.95 243.998)" fill="#FF66CC"/>
<rect width="243.035" height="243.035" transform="matrix(-1 0 0 1 1285.15 0.963379)" fill="white"/>
<path d="M1042.11 0.963844C1074.03 0.963844 1105.63 7.25012 1135.12 19.4638C1164.6 31.6774 1191.4 49.5792 1213.96 72.1471C1236.53 94.7149 1254.43 121.507 1266.65 150.993C1278.86 180.48 1285.15 212.083 1285.15 243.999L1042.11 243.999V0.963844Z" fill="#1A0060"/>
<path d="M1042.11 122.481C1058.07 122.481 1073.87 125.624 1088.61 131.731C1103.36 137.838 1116.75 146.789 1128.04 158.073C1139.32 169.357 1148.27 182.753 1154.38 197.496C1160.49 212.239 1163.63 228.041 1163.63 243.999L1042.11 243.999V122.481Z" fill="#FF66CC"/>
<rect width="243.035" height="243.035" transform="matrix(1 0 0 -1 1236.24 244)" fill="white"/>
<path d="M1479.27 244C1447.35 244 1415.75 237.713 1386.27 225.5C1356.78 213.286 1329.99 195.384 1307.42 172.816C1284.85 150.248 1266.95 123.457 1254.74 93.9702C1242.52 64.4839 1236.24 32.8806 1236.24 0.964844L1479.27 0.964862V244Z" fill="white"/>
<path d="M1479.27 122.644C1463.32 122.644 1447.52 119.501 1432.77 113.394C1418.03 107.288 1404.63 98.3366 1393.35 87.0527C1382.07 75.7688 1373.11 62.3728 1367.01 47.6296C1360.9 32.8865 1357.76 17.0848 1357.76 1.12695L1479.27 1.12696V122.644Z" fill="#FF66CC"/>
</svg>
