<svg width="1440" height="245" viewBox="0 0 1440 245" fill="none" xmlns="http://www.w3.org/2000/svg">
<rect width="120.584" height="120.584" transform="matrix(0.00219698 -0.999998 1 0 360.032 121.41)" fill="#1A0060"/>
<path d="M480.617 121.41L480.881 0.826253L360.032 121.41H480.617Z" fill="#1A0060"/>
<rect width="120.584" height="120.584" transform="matrix(-0.00219698 0.999998 -1 0 360.297 0.827637)" fill="#FC66FF"/>
<path d="M299.873 61.1185C266.574 61.1185 239.521 88.1122 239.448 121.411H360.032C360.106 88.1122 333.171 61.1185 299.873 61.1185Z" fill="#BBA2FF"/>
<path d="M299.873 61.1185C266.574 61.1185 239.64 34.1248 239.713 0.826396H360.297C360.224 34.1248 333.171 61.1185 299.873 61.1185Z" fill="#FC66FF"/>
<rect width="241.172" height="120.95" transform="matrix(-1 0 -0.00219698 0.999998 480.616 121.412)" fill="#1E1E1E"/>
<rect width="120.944" height="120.584" transform="matrix(0.00219698 -0.999998 -1 0 480.348 242.361)" fill="#1A0060"/>
<path d="M480.351 242.356C480.386 226.473 477.301 210.746 471.273 196.072C465.246 181.399 456.393 168.066 445.22 156.835C434.048 145.605 420.774 136.696 406.157 130.618C391.541 124.54 375.867 121.412 360.032 121.412L359.766 242.356H480.351Z" fill="#FC66FF"/>
<rect width="120.95" height="120.584" transform="matrix(0.00219698 -0.999998 -1 0 359.763 242.361)" fill="#FC66FF"/>
<rect width="60.475" height="120.584" transform="matrix(0.00219698 -0.999998 -1 0 359.763 242.361)" fill="#1A0060"/>
<rect width="60.475" height="120.584" transform="matrix(0.00219698 -0.999998 -1 0 359.763 242.361)" fill="#1A0060"/>
<rect width="240.497" height="241.532" transform="matrix(-1 0 0 1 720.907 0.826294)" fill="#F6ECFF"/>
<path d="M480.41 0.826765C511.993 0.826765 543.266 7.07416 572.444 19.2123C601.623 31.3504 628.135 49.1415 650.467 71.5698C672.799 93.9981 690.514 120.624 702.6 149.928C714.686 179.232 720.907 210.64 720.907 242.359L480.41 242.359V0.826765Z" fill="#FC66FF"/>
<path d="M480.408 121.59C496.199 121.59 511.836 124.713 526.425 130.782C541.014 136.852 554.271 145.747 565.437 156.961C576.603 168.175 585.46 181.488 591.503 196.14C597.546 210.792 600.657 226.496 600.657 242.356L480.408 242.356V121.59Z" fill="#E3D9FF"/>
<rect width="120.584" height="120.584" transform="matrix(0.00219698 -0.999998 1 0 841.591 121.41)" fill="#FB9685"/>
<path d="M962.175 121.41L962.44 0.826253L841.591 121.41H962.175Z" fill="#FB9685"/>
<rect width="120.584" height="120.584" transform="matrix(-0.00219698 0.999998 -1 0 841.856 0.826294)" fill="#FC66FF"/>
<path d="M781.429 61.1185C748.131 61.1185 721.078 88.1122 721.005 121.411H841.589C841.662 88.1122 814.728 61.1185 781.429 61.1185Z" fill="#BBA2FF"/>
<path d="M781.429 61.1185C748.131 61.1185 721.196 34.1248 721.27 0.826396H841.854C841.781 34.1248 814.728 61.1185 781.429 61.1185Z" fill="#FC66FF"/>
<rect width="120.947" height="120.584" transform="matrix(0.00219698 -0.999998 -1 0 961.909 242.359)" fill="#1A0060"/>
<path d="M961.91 242.357C961.945 226.474 958.86 210.747 952.832 196.073C946.805 181.399 937.952 168.066 926.779 156.835C915.607 145.604 902.333 136.695 887.716 130.617C873.1 124.539 857.426 121.41 841.591 121.41L841.325 242.357H961.91Z" fill="#FB9685"/>
<rect width="120.95" height="120.584" transform="matrix(0.00219698 -0.999998 -1 0 841.325 242.36)" fill="#FC66FF"/>
<rect width="60.475" height="120.584" transform="matrix(0.00219698 -0.999998 -1 0 841.325 242.36)" fill="#1A0060"/>
<rect width="60.475" height="120.584" transform="matrix(0.00219698 -0.999998 -1 0 841.325 242.36)" fill="#1A0060"/>
<g clip-path="url(#clip0_2087_3789)">
<rect width="122.277" height="120.584" transform="matrix(-0.00219698 0.999998 -1 0 119.482 120.082)" fill="#1A0060"/>
<path d="M-1.10196 120.082L-1.3706 242.359L119.482 120.082H-1.10196Z" fill="#1A0060"/>
<rect width="121.31" height="120.584" transform="matrix(0.00219698 -0.999998 1 0 119.214 242.359)" fill="#FC66FF"/>
<path d="M179.641 181.704C212.939 181.704 239.994 154.115 240.069 120.082H119.484C119.409 154.115 146.343 181.704 179.641 181.704Z" fill="#BBA2FF"/>
<path d="M179.641 181.342C212.939 181.342 239.874 208.497 239.8 241.996H119.216C119.289 208.497 146.343 181.342 179.641 181.342Z" fill="#FC66FF"/>
</g>
<rect width="119.859" height="120.584" transform="matrix(-0.00219698 0.999998 1 0 -0.839966 0.824524)" fill="#7D5FCC"/>
<path d="M-0.837034 0.825101C-0.871616 16.5655 2.21315 32.1518 8.24113 46.694C14.2691 61.2362 23.1223 74.4496 34.2951 85.5798C45.468 96.7099 58.7417 105.539 73.3584 111.562C87.9752 117.586 103.649 120.686 119.484 120.686L119.747 0.825101H-0.837034Z" fill="#FB9685"/>
<rect width="119.862" height="120.584" transform="matrix(-0.00219698 0.999998 1 0 119.747 0.824646)" fill="#FC66FF"/>
<rect width="59.3871" height="120.584" transform="matrix(-0.00219698 0.999998 1 0 119.75 0.824646)" fill="#7D5FCC"/>
<rect width="59.3871" height="120.584" transform="matrix(-0.00219698 0.999998 1 0 119.747 0.824646)" fill="#7D5FCC"/>
<rect width="243.042" height="241.533" transform="matrix(-1 0 0 1 1203.96 0.825317)" fill="#F6ECFF"/>
<path d="M960.91 0.824856C992.826 0.824856 1024.43 7.07227 1053.92 19.2104C1083.41 31.3486 1110.2 49.1397 1132.77 71.5681C1155.33 93.9965 1173.24 120.623 1185.45 149.927C1197.67 179.231 1203.95 210.639 1203.95 242.358L960.91 242.358L960.91 0.824856Z" fill="#FC66FF"/>
<path d="M960.89 121.396C976.812 121.45 992.978 124.563 1007.67 130.669C1022.36 136.775 1035.69 145.696 1046.91 156.924C1058.13 168.152 1067.02 181.466 1073.06 196.107C1079.11 210.747 1082.19 226.428 1082.14 242.252L960.89 242.235L960.89 121.396Z" fill="#1A0060"/>
<g clip-path="url(#clip1_2087_3789)">
<rect width="240.023" height="241.533" transform="matrix(-1 0 0 1 1442.49 0.826294)" fill="white"/>
<rect width="242.006" height="242.006" transform="matrix(0.999975 -0.00709266 -0.00709266 -0.999975 1200.48 244.532)" fill="#F6ECFF"/>
<path d="M1444.65 242.181C1412.87 242.181 1381.4 235.922 1352.04 223.76C1322.67 211.598 1296 193.772 1273.52 171.299C1251.05 148.827 1233.22 122.148 1221.06 92.7868C1208.9 63.4252 1202.64 31.9557 1202.64 0.174927L1444.65 0.174945V242.181Z" fill="#FC66FF"/>
<path d="M1444.65 120.32C1428.76 120.432 1413 117.414 1398.28 111.438C1383.55 105.461 1370.15 96.6427 1358.83 85.4865C1347.52 74.3303 1338.51 61.0546 1332.33 46.4173C1326.14 31.78 1322.9 16.0678 1322.79 0.177856L1443.79 -0.680369L1444.65 120.32Z" fill="#C9F6D7"/>
</g>
<defs>
<clipPath id="clip0_2087_3789">
<rect width="241.17" height="121.672" fill="white" transform="matrix(1 0 0.00219698 -0.999998 -1.37042 242.359)"/>
</clipPath>
<clipPath id="clip1_2087_3789">
<rect width="240.023" height="241.533" fill="white" transform="matrix(-1 0 0 1 1442.49 0.826294)"/>
</clipPath>
</defs>
</svg>
