<svg width="1440" height="157" viewBox="0 0 1440 157" fill="none" xmlns="http://www.w3.org/2000/svg">
<rect width="77.8904" height="77.8904" transform="matrix(-0.00219698 0.999998 -1 0 486.629 77.8936)" fill="#FF66CC"/>
<path d="M408.738 77.8936L408.567 155.784L486.629 77.8936H408.738Z" fill="#FF66CC"/>
<rect width="77.8904" height="77.8904" transform="matrix(0.00219698 -0.999998 1 0 486.458 155.783)" fill="white"/>
<path d="M525.489 116.838C546.997 116.838 564.472 99.4021 564.519 77.8933H486.629C486.582 99.4021 503.98 116.838 525.489 116.838Z" fill="#6617FF"/>
<path d="M525.489 116.838C546.997 116.838 564.395 134.275 564.348 155.783H486.458C486.505 134.275 503.98 116.838 525.489 116.838Z" fill="#FFCEEF"/>
<rect width="77.8904" height="77.8904" transform="matrix(-0.00219698 0.999998 1 0 408.909 0.00390625)" fill="#FF66CC"/>
<path d="M408.909 0.00436124C408.887 10.233 410.879 20.3616 414.773 29.8116C418.666 39.2617 424.385 47.8483 431.602 55.081C438.819 62.3138 447.393 68.0511 456.834 71.9655C466.276 75.8798 476.4 77.8945 486.629 77.8945L486.8 0.00436124H408.909Z" fill="#1A0060"/>
<rect width="77.8904" height="77.8904" transform="matrix(-0.00219698 0.999998 1 0 486.8 0.00390625)" fill="#FFCEEF"/>
<rect width="38.9452" height="77.8904" transform="matrix(-0.00219698 0.999998 1 0 486.8 0.00390625)" fill="#FF66CC"/>
<rect width="38.9452" height="77.8904" transform="matrix(-0.00219698 0.999998 1 0 486.8 0.00390625)" fill="#FF66CC"/>
<rect width="156.322" height="156.322" transform="matrix(1 0 0 -1 252.739 156.322)" fill="white"/>
<path d="M409.062 156.322C388.533 156.322 368.206 152.278 349.24 144.422C330.274 136.567 313.042 125.052 298.526 110.536C284.01 96.0203 272.495 78.7876 264.639 59.8217C256.784 40.8559 252.74 20.5285 252.74 0L409.062 1.19264e-05V156.322Z" fill="#E4D7FF"/>
<path d="M409.061 78.1608C398.796 78.1608 388.633 76.1392 379.15 72.2112C369.667 68.2833 361.05 62.526 353.792 55.2681C346.535 48.0102 340.777 39.3938 336.849 29.9109C332.921 20.428 330.9 10.2642 330.9 0L409.061 5.9632e-06V78.1608Z" fill="#6617FF"/>
<rect width="77.8904" height="77.8904" transform="matrix(-0.00219698 0.999998 -1 0 174.688 78.2231)" fill="#FF66CC"/>
<path d="M96.8004 76.5981L96.6257 156.114L174.691 76.5981H96.8004Z" fill="#FF66CC"/>
<rect width="77.8904" height="77.8904" transform="matrix(0.00219698 -0.999998 1 0 174.516 156.113)" fill="white"/>
<path d="M213.547 117.169C235.056 117.169 252.531 99.7326 252.578 78.2239H174.688C174.64 99.7326 192.038 117.169 213.547 117.169Z" fill="#6617FF"/>
<path d="M213.547 117.169C235.056 117.169 252.454 134.605 252.407 156.114H174.517C174.564 134.605 192.038 117.169 213.547 117.169Z" fill="#FFCEEF"/>
<rect width="77.8904" height="77.8904" transform="matrix(-0.00219698 0.999998 1 0 96.9947 0)" fill="#FF66CC"/>
<path d="M96.9955 0.000943274C96.9731 10.2296 98.9655 20.3582 102.859 29.8082C106.753 39.2583 112.471 47.8448 119.688 55.0776C126.905 62.3104 135.479 68.0477 144.92 71.9621C154.362 75.8764 164.486 77.8911 174.715 77.8911L174.886 0.000943274H96.9955Z" fill="#1A0060"/>
<rect width="77.8904" height="77.8904" transform="matrix(-0.00219698 0.999998 1 0 174.886 0.000976562)" fill="#FFCEEF"/>
<rect width="38.9452" height="77.8904" transform="matrix(-0.00219698 0.999998 1 0 174.886 0.000976562)" fill="#FF66CC"/>
<rect width="38.9452" height="77.8904" transform="matrix(-0.00219698 0.999998 1 0 174.886 0.000976562)" fill="#FF66CC"/>
<rect width="156.322" height="156.322" transform="matrix(1 0 0 -1 -59.3677 156.323)" fill="white"/>
<path d="M96.954 156.323C76.4256 156.323 56.0981 152.279 37.1323 144.423C18.1665 136.568 0.9337 125.053 -13.5821 110.537C-28.0979 96.0213 -39.6125 78.7885 -47.4684 59.8227C-55.3243 40.8569 -59.3677 20.5294 -59.3677 0.000976562L96.954 0.000988489L96.954 156.323Z" fill="#1A0060"/>
<path d="M96.9537 78.1618C86.6895 78.1618 76.5257 76.1401 67.0428 72.2122C57.5599 68.2842 48.9435 62.527 41.6856 55.269C34.4277 48.0111 28.6704 39.3948 24.7425 29.9118C20.8145 20.4289 18.7928 10.2652 18.7928 0.000976562L96.9537 0.000982526L96.9537 78.1618Z" fill="#E4D7FF"/>
<rect width="77.8904" height="77.8904" transform="matrix(0.00219698 -0.999998 1 0 642.371 78.4297)" fill="#FF66CC"/>
<path d="M720.261 78.4297L720.433 0.53952L642.371 78.4297H720.261Z" fill="#FF66CC"/>
<rect width="77.8904" height="77.8904" transform="matrix(-0.00219698 0.999998 -1 0 642.541 0.540527)" fill="white"/>
<path d="M603.511 39.4849C582.002 39.4849 564.528 56.9212 564.48 78.4299H642.371C642.418 56.9212 625.02 39.4849 603.511 39.4849Z" fill="#6617FF"/>
<path d="M603.511 39.4849C582.002 39.4849 564.604 22.0486 564.652 0.539779H642.542C642.495 22.0486 625.02 39.4849 603.511 39.4849Z" fill="#FFCEEF"/>
<rect width="77.8904" height="77.8904" transform="matrix(0.00219698 -0.999998 -1 0 720.091 156.319)" fill="#FF66CC"/>
<path d="M720.091 156.319C720.113 146.09 718.121 135.962 714.227 126.512C710.333 117.062 704.615 108.475 697.398 101.242C690.181 94.0094 681.607 88.2721 672.166 84.3577C662.724 80.4434 652.6 78.4287 642.371 78.4287L642.2 156.319H720.091Z" fill="#1A0060"/>
<rect width="77.8904" height="77.8904" transform="matrix(0.00219698 -0.999998 -1 0 642.2 156.319)" fill="#FFCEEF"/>
<rect width="38.9452" height="77.8904" transform="matrix(0.00219698 -0.999998 -1 0 642.2 156.319)" fill="#FF66CC"/>
<rect width="38.9452" height="77.8904" transform="matrix(0.00219698 -0.999998 -1 0 642.2 156.319)" fill="#FF66CC"/>
<rect width="156.322" height="156.322" transform="matrix(-1 0 0 1 876.261 0.000976562)" fill="white"/>
<path d="M719.938 0.00153416C740.467 0.00153416 760.794 4.04491 779.76 11.9008C798.726 19.7567 815.958 31.2713 830.474 45.7871C844.99 60.3029 856.505 77.5357 864.36 96.5015C872.216 115.467 876.26 135.795 876.26 156.323L719.938 156.323V0.00153416Z" fill="#6617FF"/>
<path d="M719.939 78.1624C730.204 78.1624 740.367 80.1841 749.85 84.112C759.333 88.04 767.95 93.7973 775.208 101.055C782.465 108.313 788.223 116.929 792.151 126.412C796.079 135.895 798.1 146.059 798.1 156.323L719.939 156.323V78.1624Z" fill="#FF66CC"/>
<rect width="77.8904" height="77.8904" transform="matrix(0.00219698 -0.999998 1 0 954.312 78.1001)" fill="#FF66CC"/>
<path d="M1032.2 79.7251L1032.37 0.209492L954.309 79.7251H1032.2Z" fill="#FF66CC"/>
<rect width="77.8904" height="77.8904" transform="matrix(-0.00219698 0.999998 -1 0 954.484 0.209961)" fill="white"/>
<path d="M915.453 39.1543C893.944 39.1543 876.469 56.5906 876.422 78.0994H954.312C954.359 56.5906 936.961 39.1543 915.453 39.1543Z" fill="#6617FF"/>
<path d="M915.453 39.1543C893.944 39.1543 876.546 21.718 876.593 0.209213H954.483C954.436 21.718 936.961 39.1543 915.453 39.1543Z" fill="#FFCEEF"/>
<rect width="77.8904" height="77.8904" transform="matrix(0.00219698 -0.999998 -1 0 1032.01 156.323)" fill="#FF66CC"/>
<path d="M1032 156.322C1032.03 146.094 1030.03 135.965 1026.14 126.515C1022.25 117.065 1016.53 108.478 1009.31 101.246C1002.09 94.0129 993.521 88.2755 984.079 84.3612C974.638 80.4468 964.514 78.4321 954.285 78.4321L954.114 156.322H1032Z" fill="#1A0060"/>
<rect width="77.8904" height="77.8904" transform="matrix(0.00219698 -0.999998 -1 0 954.114 156.322)" fill="#FFCEEF"/>
<rect width="38.9452" height="77.8904" transform="matrix(0.00219698 -0.999998 -1 0 954.114 156.322)" fill="#FF66CC"/>
<rect width="38.9452" height="77.8904" transform="matrix(0.00219698 -0.999998 -1 0 954.114 156.322)" fill="#FF66CC"/>
<rect width="77.8904" height="77.8904" transform="matrix(-0.00219698 0.999998 -1 0 1390.98 78.4312)" fill="#FF66CC"/>
<path d="M1313.09 78.4312L1312.92 156.321L1390.98 78.4312L1313.09 78.4312Z" fill="#FF66CC"/>
<rect width="77.8904" height="77.8904" transform="matrix(0.00219698 -0.999998 1 0 1390.81 156.321)" fill="white"/>
<path d="M1429.84 117.376C1451.35 117.376 1468.82 99.9397 1468.87 78.4309L1390.98 78.4309C1390.93 99.9397 1408.33 117.376 1429.84 117.376Z" fill="#6617FF"/>
<path d="M1429.84 117.376C1451.35 117.376 1468.75 134.812 1468.7 156.321L1390.81 156.321C1390.86 134.812 1408.33 117.376 1429.84 117.376Z" fill="#FFCEEF"/>
<rect width="77.8904" height="77.8904" transform="matrix(-0.00219698 0.999998 1 0 1313.26 0.540527)" fill="#FF66CC"/>
<path d="M1313.26 0.540982C1313.24 10.7697 1315.23 20.8982 1319.13 30.3483C1323.02 39.7983 1328.74 48.3849 1335.95 55.6177C1343.17 62.8504 1351.75 68.5878 1361.19 72.5021C1370.63 76.4165 1380.75 78.4312 1390.98 78.4312L1391.15 0.540982L1313.26 0.540982Z" fill="#1A0060"/>
<rect width="77.8904" height="77.8904" transform="matrix(-0.00219698 0.999998 1 0 1391.15 0.541016)" fill="#FFCEEF"/>
<rect width="38.9452" height="77.8904" transform="matrix(-0.00219698 0.999998 1 0 1391.15 0.541016)" fill="#FF66CC"/>
<rect width="38.9452" height="77.8904" transform="matrix(-0.00219698 0.999998 1 0 1391.15 0.541016)" fill="#FF66CC"/>
<rect width="156.322" height="156.322" transform="matrix(-1 0 0 1 1188.37 0)" fill="white"/>
<path d="M1032.05 0.000561232C1052.57 0.000561232 1072.9 4.04394 1091.87 11.8998C1110.83 19.7557 1128.07 31.2703 1142.58 45.7861C1157.1 60.3019 1168.61 77.5347 1176.47 96.5005C1184.32 115.466 1188.37 135.794 1188.37 156.322L1032.05 156.322V0.000561232Z" fill="#1A0060"/>
<path d="M1032.05 78.1614C1042.31 78.1614 1052.47 80.1831 1061.96 84.1111C1071.44 88.039 1080.06 93.7963 1087.31 101.054C1094.57 108.312 1100.33 116.928 1104.26 126.411C1108.19 135.894 1110.21 146.058 1110.21 156.322L1032.05 156.322V78.1614Z" fill="#FF66CC"/>
<rect width="156.322" height="156.322" transform="matrix(1 0 0 -1 1156.91 156.323)" fill="white"/>
<path d="M1313.23 156.323C1292.7 156.323 1272.37 152.279 1253.41 144.423C1234.44 136.568 1217.21 125.053 1202.69 110.537C1188.18 96.0213 1176.66 78.7885 1168.81 59.8227C1160.95 40.8569 1156.91 20.5294 1156.91 0.000976562L1313.23 0.000988489V156.323Z" fill="white"/>
<path d="M1313.23 78.2663C1302.97 78.2663 1292.8 76.2446 1283.32 72.3167C1273.84 68.3887 1265.22 62.6314 1257.96 55.3735C1250.71 48.1156 1244.95 39.4992 1241.02 30.0163C1237.09 20.5334 1235.07 10.3697 1235.07 0.105469L1313.23 0.105475V78.2663Z" fill="#FF66CC"/>
</svg>
