<svg width="375" height="98" viewBox="0 0 375 98" fill="none" xmlns="http://www.w3.org/2000/svg">
<rect width="48.8299" height="48.8299" transform="matrix(-0.00219698 0.999998 -1 0 167.389 48.8311)" fill="#FF66CC"/>
<path d="M118.559 48.8311L118.452 97.6608L167.389 48.8311H118.559Z" fill="#FF66CC"/>
<rect width="48.8299" height="48.8299" transform="matrix(0.00219698 -0.999998 1 0 167.282 97.6611)" fill="white"/>
<path d="M191.75 73.2461C205.234 73.2461 216.189 62.3152 216.219 48.8312H167.389C167.359 62.3152 178.266 73.2461 191.75 73.2461Z" fill="#6617FF"/>
<path d="M191.75 73.2461C205.234 73.2461 216.141 84.177 216.111 97.661H167.282C167.311 84.177 178.266 73.2461 191.75 73.2461Z" fill="#FFCEEF"/>
<rect width="48.8299" height="48.8299" transform="matrix(-0.00219698 0.999998 1 0 118.667 0.00195312)" fill="#FF66CC"/>
<path d="M118.666 0.00225938C118.652 6.41468 119.901 12.7643 122.342 18.6886C124.783 24.6129 128.368 29.9959 132.892 34.5301C137.416 39.0644 142.792 42.6612 148.71 45.1151C154.629 47.569 160.976 48.832 167.389 48.832L167.496 0.00225938H118.666Z" fill="#1A0060"/>
<rect width="48.8299" height="48.8299" transform="matrix(-0.00219698 0.999998 1 0 167.496 0.00195312)" fill="#FFCEEF"/>
<rect width="24.4149" height="48.8299" transform="matrix(-0.00219698 0.999998 1 0 167.496 0.00195312)" fill="#FF66CC"/>
<rect width="24.4149" height="48.8299" transform="matrix(-0.00219698 0.999998 1 0 167.496 0.00195312)" fill="#FF66CC"/>
<rect width="97.9989" height="97.9989" transform="matrix(1 0 0 -1 20.7612 98)" fill="white"/>
<path d="M118.762 97.9989C105.892 97.9989 93.1488 95.4641 81.2591 90.5392C69.3693 85.6143 58.566 78.3958 49.4659 69.2957C40.3659 60.1957 33.1473 49.3923 28.2224 37.5026C23.2975 25.6128 20.7627 12.8694 20.7627 0L118.762 7.47672e-06L118.762 97.9989Z" fill="#E4D7FF"/>
<path d="M118.76 48.9995C112.326 48.9995 105.954 47.7321 100.009 45.2696C94.064 42.8072 88.6624 39.1979 84.1124 34.6479C79.5623 30.0978 75.9531 24.6962 73.4906 18.7513C71.0282 12.8064 69.7607 6.4347 69.7607 0L118.76 3.73836e-06V48.9995Z" fill="#6617FF"/>
<rect width="48.8299" height="48.8299" transform="matrix(0.00219698 -0.999998 1 0 -28.2764 97.8677)" fill="white"/>
<path d="M-3.80752 73.4531C9.67648 73.4531 20.6314 62.5222 20.6611 49.0382H-28.1688C-28.1985 62.5222 -17.2915 73.4531 -3.80752 73.4531Z" fill="#6617FF"/>
<path d="M-3.80752 73.4531C9.67648 73.4531 20.5834 84.384 20.5538 97.868H-28.2761C-28.2465 84.384 -17.2915 73.4531 -3.80752 73.4531Z" fill="#FFCEEF"/>
<rect width="48.8299" height="48.8299" transform="matrix(-0.00219698 0.999998 1 0 -28.0439 0)" fill="#FFCEEF"/>
<rect width="24.4149" height="48.8299" transform="matrix(-0.00219698 0.999998 1 0 -28.0439 0)" fill="#FF66CC"/>
<rect width="24.4149" height="48.8299" transform="matrix(-0.00219698 0.999998 1 0 -28.0439 0)" fill="#FF66CC"/>
<rect width="48.8299" height="48.8299" transform="matrix(0.00219698 -0.999998 1 0 265.024 49.168)" fill="#FF66CC"/>
<path d="M313.854 49.168L313.961 0.338197L265.024 49.168H313.854Z" fill="#FF66CC"/>
<rect width="48.8299" height="48.8299" transform="matrix(-0.00219698 0.999998 -1 0 265.131 0.337891)" fill="white"/>
<path d="M240.663 24.7529C227.179 24.7529 216.224 35.6838 216.194 49.1678H265.024C265.054 35.6838 254.147 24.7529 240.663 24.7529Z" fill="#6617FF"/>
<path d="M240.663 24.7529C227.179 24.7529 216.272 13.822 216.302 0.338044H265.132C265.102 13.822 254.147 24.7529 240.663 24.7529Z" fill="#FFCEEF"/>
<rect width="48.8299" height="48.8299" transform="matrix(0.00219698 -0.999998 -1 0 313.747 97.9971)" fill="#FF66CC"/>
<path d="M313.747 97.9968C313.761 91.5843 312.512 85.2347 310.071 79.3104C307.63 73.3861 304.045 68.0032 299.521 63.4689C294.997 58.9346 289.622 55.3379 283.703 52.8839C277.784 50.43 271.437 49.167 265.024 49.167L264.917 97.9968H313.747Z" fill="#1A0060"/>
<rect width="48.8299" height="48.8299" transform="matrix(0.00219698 -0.999998 -1 0 264.917 97.9966)" fill="#FFCEEF"/>
<rect width="24.4149" height="48.8299" transform="matrix(0.00219698 -0.999998 -1 0 264.917 97.9966)" fill="#FF66CC"/>
<rect width="24.4149" height="48.8299" transform="matrix(0.00219698 -0.999998 -1 0 264.917 97.9966)" fill="#FF66CC"/>
<rect width="97.9989" height="97.9989" transform="matrix(-1 0 0 1 411.651 0.000976562)" fill="white"/>
<path d="M313.651 0.000579834C326.521 0.000579834 339.264 2.53539 351.154 7.4603C363.044 12.3852 373.847 19.6038 382.947 28.7038C392.047 37.8038 399.266 48.6072 404.191 60.4969C409.116 72.3867 411.65 85.1301 411.65 97.9995L313.651 97.9995V0.000579834Z" fill="#6617FF"/>
<path d="M313.653 49C320.088 49 326.459 50.2675 332.404 52.7299C338.349 55.1924 343.751 58.8016 348.301 63.3517C352.851 67.9017 356.46 73.3033 358.922 79.2482C361.385 85.1931 362.652 91.5648 362.652 97.9995L313.653 97.9995V49Z" fill="#FF66CC"/>
</svg>
