<svg width="109" height="135" viewBox="0 0 109 135" fill="none" xmlns="http://www.w3.org/2000/svg">
<circle cx="54.241" cy="80.7597" r="54.2411" fill="white"/>
<path d="M66.2401 64.3904C66.2401 71.158 60.7534 76.6447 53.9858 76.6447C47.2182 76.6447 41.7315 71.158 41.7315 64.3904C41.7315 57.6228 47.2182 52.1361 53.9858 52.1361C60.7534 52.1361 66.2401 57.6228 66.2401 64.3904Z" fill="#6617FF" stroke="#6617FF" stroke-width="0.610156"/>
<path d="M53.9871 92.4059L52.3197 90.7385L53.4798 81.4357C53.6519 81.4413 53.8234 81.4413 53.9808 81.4413H53.987H53.9933C54.1506 81.4413 54.3222 81.4413 54.4942 81.4357L55.6544 90.7385L53.9871 92.4059Z" fill="#6617FF" stroke="#6617FF" stroke-width="0.610156"/>
<path d="M65.8444 76.6119C68.7346 79.1707 70.4018 82.8413 70.4235 86.7072V86.8092V108.347C70.4223 108.821 70.2331 109.275 69.898 109.61C69.5629 109.946 69.1084 110.135 68.6346 110.136H39.331C38.8572 110.135 38.4027 109.946 38.0677 109.61C37.7327 109.275 37.5434 108.821 37.5421 108.347L37.5421 86.8092L37.5421 86.8086C37.535 82.9057 39.206 79.1932 42.1214 76.612C43.9958 78.4363 46.2636 79.8068 48.7508 80.6177L47.4218 91.3109C47.4218 91.3113 47.4217 91.3118 47.4217 91.3123C47.3246 92.0445 47.5733 92.7802 48.0938 93.3038L48.0944 93.3045L52.2809 97.4909L52.2809 97.4909L52.2831 97.4931C52.7373 97.9382 53.3475 98.1872 53.9829 98.1872C54.6183 98.1872 55.2286 97.9382 55.6828 97.4931L55.685 97.4909L59.8714 93.3045L59.8721 93.3038C60.3925 92.7802 60.6412 92.0446 60.5442 91.3124C60.5442 91.3119 60.5441 91.3114 60.544 91.3109L59.215 80.6177C61.7021 79.8068 63.9699 78.4363 65.8444 76.6119Z" fill="#6617FF" stroke="#6617FF" stroke-width="0.610156"/>
<path d="M30.961 59.3058C28.8197 59.3058 26.7662 60.1562 25.2519 61.6705C23.7376 63.1844 22.8868 65.2379 22.8863 67.3793C22.8863 69.5211 23.7367 71.5746 25.2511 73.0889C26.7649 74.6032 28.8189 75.454 30.9602 75.454C33.1015 75.454 35.155 74.6036 36.6693 73.0893C38.1836 71.5754 39.0344 69.5219 39.0344 67.3805C39.0321 65.2397 38.1808 63.1875 36.6674 61.6736C35.1541 60.1598 33.1015 59.3087 30.961 59.3058Z" fill="#0B434B"/>
<path d="M34.811 79.0233C33.6495 81.4548 33.0486 84.1157 33.0528 86.8103V94.5974L22.5867 94.5969C22.0321 94.5955 21.5004 94.3745 21.1084 93.982C20.7164 93.59 20.4949 93.0587 20.4935 92.5037V81.7447C20.4814 79.6948 21.0869 77.6891 22.2306 75.9883C24.529 78.3338 27.6758 79.6547 30.9596 79.6514C32.2693 79.6575 33.571 79.4454 34.8111 79.0235L34.811 79.0233Z" fill="#0B434B"/>
<path d="M77.0109 59.3059C74.8696 59.3064 72.8161 60.1567 71.3018 61.671C69.7879 63.1853 68.9375 65.2388 68.9375 67.3801C68.9375 69.5214 69.7879 71.575 71.3022 73.0893C72.8165 74.6031 74.8701 75.454 77.0114 75.454C79.1527 75.454 81.2062 74.6036 82.7201 73.0893C84.2344 71.5754 85.0852 69.5214 85.0852 67.3805C85.0829 65.2397 84.2316 63.187 82.7177 61.6736C81.2039 60.1598 79.1518 59.3085 77.0109 59.3057V59.3059Z" fill="#0B434B"/>
<path d="M87.4773 81.7419V92.501C87.4759 93.056 87.2545 93.5873 86.8624 93.9792C86.4704 94.3717 85.9387 94.5927 85.3842 94.5941H74.918V86.8076C74.9222 84.113 74.3214 81.4521 73.1598 79.0205C74.3999 79.4424 75.7016 79.6546 77.0112 79.6485C80.295 79.6518 83.4419 78.3308 85.7402 75.9854C86.884 77.6861 87.4895 79.6921 87.4773 81.7419Z" fill="#0B434B"/>
<circle cx="53.4525" cy="19.6991" r="19.6991" fill="#FF66CC"/>
<path d="M53.4462 20.881C52.9653 21.3611 52.1863 21.3608 51.7058 20.8803L45.8276 15.0021C45.3491 14.5235 44.574 14.5209 44.0922 14.9963L43.2504 15.8271C42.7642 16.3069 42.7616 17.0909 43.2446 17.574L51.705 26.0344C52.1859 26.5152 52.9654 26.5152 53.4462 26.0344L73.5877 5.89287C74.0685 5.41206 74.0685 4.63252 73.5877 4.15171L72.7677 3.33173C72.2872 2.85122 71.5083 2.85087 71.0274 3.33096L53.4462 20.881Z" fill="white"/>
</svg>
