<svg width="375" height="198" viewBox="0 0 375 198" fill="none" xmlns="http://www.w3.org/2000/svg">
<rect width="98.6559" height="98.6559" transform="matrix(0.00219698 -0.999998 1 0 -10.8867 197.315)" fill="white"/>
<path d="M38.549 147.987C65.7921 147.987 87.9255 125.902 87.9853 98.659H-10.6706C-10.7305 125.902 11.3059 147.987 38.549 147.987Z" fill="#6617FF"/>
<path d="M38.549 147.987C65.7921 147.987 87.8284 170.072 87.7686 197.315H-10.8873C-10.8275 170.072 11.3059 147.987 38.549 147.987Z" fill="#FFCEEF"/>
<rect width="98.6559" height="98.6559" transform="matrix(-0.00219698 0.999998 1 0 -10.4536 0.00488281)" fill="#FFCEEF"/>
<rect width="49.328" height="98.6559" transform="matrix(-0.00219698 0.999998 1 0 -10.4536 0.00488281)" fill="#FF66CC"/>
<rect width="49.328" height="98.6559" transform="matrix(-0.00219698 0.999998 1 0 -10.4536 0.00488281)" fill="#FF66CC"/>
<rect width="98.6559" height="98.6559" transform="matrix(0.00219698 -0.999998 1 0 186.594 99.3389)" fill="#FF66CC"/>
<path d="M285.25 99.3389L285.466 0.683179L186.594 99.3389H285.25Z" fill="#FF66CC"/>
<rect width="98.6559" height="98.6559" transform="matrix(-0.00219698 0.999998 -1 0 186.81 0.683105)" fill="white"/>
<path d="M137.374 50.0122C110.131 50.0122 87.9974 72.097 87.9375 99.3401H186.593C186.653 72.097 164.617 50.0122 137.374 50.0122Z" fill="#6617FF"/>
<path d="M137.374 50.0122C110.131 50.0122 88.0944 27.9274 88.1543 0.684363H186.81C186.75 27.9274 164.617 50.0122 137.374 50.0122Z" fill="#FFCEEF"/>
<rect width="98.6559" height="98.6559" transform="matrix(0.00219698 -0.999998 -1 0 285.032 197.993)" fill="#FF66CC"/>
<path d="M285.033 197.992C285.062 185.036 282.538 172.208 277.607 160.238C272.675 148.269 265.432 137.393 256.291 128.232C247.15 119.071 236.29 111.804 224.332 106.846C212.373 101.888 199.55 99.3364 186.594 99.3364L186.378 197.992H285.033Z" fill="#1A0060"/>
<rect width="98.6559" height="98.6559" transform="matrix(0.00219698 -0.999998 -1 0 186.376 197.992)" fill="#FFCEEF"/>
<rect width="49.328" height="98.6559" transform="matrix(0.00219698 -0.999998 -1 0 186.376 197.992)" fill="#FF66CC"/>
<rect width="49.328" height="98.6559" transform="matrix(0.00219698 -0.999998 -1 0 186.376 197.992)" fill="#FF66CC"/>
<rect width="197.997" height="197.997" transform="matrix(-1 0 0 1 482.839 0.00244141)" fill="white"/>
<path d="M284.84 0.00146484C310.841 0.00146484 336.588 5.1228 360.61 15.0731C384.632 25.0234 406.459 39.6077 424.845 57.9935C443.231 76.3792 457.815 98.2062 467.765 122.228C477.716 146.25 482.837 171.997 482.837 197.999L284.84 197.999V0.00146484Z" fill="#6617FF"/>
<path d="M284.843 99C297.843 99 310.717 101.561 322.728 106.536C334.739 111.511 345.652 118.803 354.845 127.996C364.038 137.189 371.33 148.102 376.305 160.113C381.281 172.124 383.841 184.998 383.841 197.999L284.843 197.999V99Z" fill="#FF66CC"/>
</svg>
