<svg width="375" height="104" viewBox="0 0 375 104" fill="none" xmlns="http://www.w3.org/2000/svg">
<rect width="103.138" height="102.977" transform="matrix(1 -4.37114e-08 -4.37114e-08 -1 356.311 103)" fill="#0B434B"/>
<path d="M460 103C446.343 103 432.819 100.336 420.201 95.1596C407.583 89.9834 396.118 82.3964 386.461 72.832C376.804 63.2676 369.143 51.9129 363.917 39.4164C358.69 26.9199 356 13.5262 356 0L460 3.31229e-06L460 103Z" fill="#F0F9F3"/>
<g clip-path="url(#clip0_1806_14952)">
<rect width="51.7944" height="51.3903" transform="matrix(1.17093e-10 1 -0.999998 0.00219698 309.127 51.1318)" fill="#259D4A"/>
<path d="M257.787 51.1885L257.674 102.579L309.177 51.1885H257.787Z" fill="#259D4A"/>
<rect width="50.1758" height="52.1514" transform="matrix(0.00219698 -0.999998 1 0 309.128 103.039)" fill="white"/>
<path d="M335.258 77.8066C349.66 77.8066 361.359 66.6392 361.389 52.8635L309.238 52.8635C309.207 66.6392 320.857 77.8066 335.258 77.8066Z" fill="#0C434B"/>
<path d="M335.258 77.8066C349.659 77.8066 361.309 89.0673 361.278 102.958H309.127C309.157 89.0673 320.857 77.8066 335.258 77.8066Z" fill="#F0F9F3"/>
</g>
<g clip-path="url(#clip1_1806_14952)">
<rect width="53.3035" height="51.3903" transform="matrix(-0.00219698 0.999998 1 0 258.117 0.0634766)" fill="#259D4A"/>
<path d="M259.035 -0.978272C259.02 6.12244 260.307 13.1536 262.824 19.7138C265.342 26.274 269.039 32.2348 273.706 37.2557C278.373 42.2767 283.918 46.2595 290.024 48.9769C296.13 51.6942 302.677 53.0928 309.293 53.0928L309.412 -0.978272L259.035 -0.978272Z" fill="#A8D7B6"/>
<rect width="55.345" height="51.3903" transform="matrix(-0.00219698 0.999998 1 0 309.512 -1.97852)" fill="#F0F9F3"/>
<rect width="27.6725" height="51.3903" transform="matrix(-0.00219698 0.999998 1 0 309.512 -1.97852)" fill="#259D4A"/>
<rect width="27.6725" height="51.3903" transform="matrix(-0.00219698 0.999998 1 0 309.512 -1.97852)" fill="#259D4A"/>
</g>
<rect width="51.3903" height="51.3903" transform="matrix(0.00219698 -0.999998 1 0 21.4775 51.4111)" fill="#259D4A"/>
<path d="M72.8678 51.4111L72.9808 0.02095L21.4775 51.4111L72.8678 51.4111Z" fill="#259D4A"/>
<rect width="51.3903" height="51.3903" transform="matrix(-0.00219698 0.999998 -1 0 21.5903 0.0214844)" fill="white"/>
<path d="M-4.16147 25.7168C-18.3525 25.7168 -29.8819 37.2209 -29.9131 51.4119L21.4772 51.4119C21.5084 37.2209 10.0296 25.7168 -4.16147 25.7168Z" fill="#0C434B"/>
<path d="M-4.16147 25.7168C-18.3525 25.7168 -29.8314 14.2127 -29.8002 0.0217055L21.5901 0.0217055C21.559 14.2127 10.0296 25.7168 -4.16147 25.7168Z" fill="#F0F9F3"/>
<rect width="51.6097" height="51.3903" transform="matrix(0.00219698 -0.999998 -1 0 72.7541 103.021)" fill="#259D4A"/>
<path d="M72.7544 103.022C72.7693 96.2442 71.4548 89.5331 68.8859 83.2715C66.3171 77.01 62.5442 71.3206 57.7827 66.5282C53.0212 61.7358 47.3643 57.9343 41.1351 55.3407C34.9058 52.747 28.2261 51.4121 21.4775 51.4121L21.3641 103.022H72.7544Z" fill="#A8D7B6"/>
<rect width="51.6099" height="51.3903" transform="matrix(0.00219698 -0.999998 -1 0 21.3637 103.021)" fill="#F0F9F3"/>
<rect width="25.805" height="51.3903" transform="matrix(0.00219698 -0.999998 -1 0 21.3637 103.021)" fill="#259D4A"/>
<rect width="25.805" height="51.3903" transform="matrix(0.00219698 -0.999998 -1 0 21.3637 103.021)" fill="#259D4A"/>
<rect width="104" height="103" transform="matrix(1 -4.37114e-08 -4.37114e-08 -1 155 103)" fill="#0B434B"/>
<path d="M259 103C245.343 103 231.819 100.336 219.201 95.1596C206.583 89.9834 195.118 82.3964 185.461 72.832C175.804 63.2676 168.143 51.9129 162.917 39.4164C157.69 26.9199 155 13.5262 155 0L259 3.31229e-06L259 103Z" fill="#A8D7B6"/>
<path d="M259 52C252.171 52 245.41 50.655 239.101 48.0417C232.792 45.4285 227.059 41.5982 222.231 36.7696C217.402 31.9409 213.572 26.2085 210.958 19.8995C208.345 13.5906 207 6.82874 207 0L259 1.69429e-06L259 52Z" fill="#259D4A"/>
<rect width="103.138" height="102.998" transform="matrix(-1 4.37114e-08 4.37114e-08 1 173.139 0.0214844)" fill="#0B434B"/>
<path d="M70.0012 0.0237014C83.5455 0.0237008 96.957 2.68782 109.47 7.86394C121.983 13.0401 133.353 20.6268 142.931 30.191C152.508 39.7553 160.105 51.1097 165.288 63.6059C170.471 76.1022 173.139 89.4956 173.139 103.021L70.0012 103.021L70.0012 0.0237014Z" fill="white"/>
<path d="M70.0017 51.5226C76.7738 51.5226 83.4796 52.8547 89.7362 55.4427C95.9928 58.0308 101.678 61.8242 106.466 66.6063C111.255 71.3884 115.053 77.0656 117.645 83.3137C120.237 89.5618 121.57 96.2586 121.57 103.021L70.0017 103.021L70.0017 51.5226Z" fill="#259D4A"/>
<defs>
<clipPath id="clip0_1806_14952">
<rect width="103.656" height="50.3811" fill="white" transform="matrix(1 0 0.00219698 -0.999998 257.623 103.039)"/>
</clipPath>
<clipPath id="clip1_1806_14952">
<rect width="102.781" height="53.345" fill="white" transform="matrix(1 0 0.00219698 -0.999998 258 53.3662)"/>
</clipPath>
</defs>
</svg>
