<svg width="259" height="65" viewBox="0 0 259 65" fill="none" xmlns="http://www.w3.org/2000/svg">
<g clip-path="url(#clip0_2086_2133)">
<path d="M12.8271 17.9811H58.412V12.4479H18.3603V5.53316H58.412V0H12.8271V17.9811Z" fill="#1A0060"/>
<path d="M52.879 25.1105V35.4003C52.879 41.6787 50.3849 47.6998 45.9455 52.1393C41.506 56.5787 35.4848 59.0728 29.2065 59.0728C22.9282 59.0728 16.907 56.5787 12.4675 52.1393C8.02806 47.6998 5.534 41.6787 5.534 35.4003V0H0V35.4003C0 43.1463 3.07706 50.5749 8.55426 56.0521C14.0315 61.5293 21.4601 64.6064 29.2061 64.6064C36.952 64.6064 44.3807 61.5293 49.8579 56.0521C55.3351 50.5749 58.4121 43.1463 58.4121 35.4003V25.1105H52.879Z" fill="#1A0060"/>
<path d="M40.0512 34.9572C40.0259 37.8169 38.8722 40.5509 36.841 42.5641C34.8099 44.5774 32.0658 45.7069 29.206 45.7069C26.3461 45.7069 23.602 44.5774 21.5709 42.5641C19.5398 40.5509 18.386 37.8169 18.3607 34.9572V25.1104H12.8276V34.9572C12.812 37.1179 13.2242 39.2604 14.0403 41.2612C14.8564 43.2619 16.0604 45.0815 17.5828 46.6149C19.1052 48.1483 20.916 49.3653 22.9108 50.1958C24.9057 51.0263 27.0451 51.4539 29.206 51.4539C31.3668 51.4539 33.5063 51.0263 35.5011 50.1958C37.4959 49.3653 39.3067 48.1483 40.8292 46.6149C42.3516 45.0815 43.5555 43.2619 44.3716 41.2612C45.1878 39.2604 45.5999 37.1179 45.5844 34.9572V25.1104H40.0512V34.9572Z" fill="#1A0060"/>
<path d="M29.1036 36.0425L32.0637 37.9078V25.1094H26.3506V37.9078L29.1036 36.0425Z" fill="#1A0060"/>
<path d="M74.4627 19.3471V2.8291H77.9209V16.2971H86.1299V19.3471H74.4627Z" fill="#1A0060"/>
<path d="M94.4546 15.6469H97.7661C97.4767 16.8655 96.7575 17.9389 95.7403 18.6698C94.6494 19.4208 93.3471 19.8038 92.0233 19.7628C91.2245 19.8004 90.4272 19.6605 89.689 19.353C88.9507 19.0456 88.2898 18.5784 87.7538 17.9849C86.6449 16.633 86.0827 14.9148 86.1778 13.1689C86.081 11.4557 86.6355 9.76931 87.73 8.44787C88.2688 7.86736 88.9282 7.41192 89.6618 7.11356C90.3955 6.8152 91.1856 6.68116 91.9766 6.72088C92.7903 6.6703 93.6053 6.7959 94.366 7.08911C95.1267 7.38232 95.8152 7.83624 96.3845 8.41986C97.4973 9.77747 98.0527 11.5072 97.9383 13.2588C97.9383 13.4914 97.9358 13.6645 97.9324 13.7799C97.9287 13.8909 97.9191 14.0017 97.9035 14.1117H89.6148C89.5987 14.8932 89.8503 15.6568 90.3277 16.2758C90.5645 16.5261 90.8536 16.7211 91.1744 16.847C91.4952 16.9728 91.8398 17.0264 92.1837 17.0039C92.6729 17.024 93.1583 16.9098 93.5873 16.6738C93.9745 16.4281 94.2772 16.0697 94.4546 15.6469ZM89.6148 11.9689H94.5013C94.5209 11.2813 94.2823 10.6113 93.8326 10.0908C93.5954 9.86603 93.3142 9.69275 93.0068 9.5819C92.6993 9.47105 92.3723 9.42502 92.0462 9.44672C91.7321 9.42966 91.4179 9.4787 91.1239 9.59067C90.8299 9.70265 90.5627 9.87507 90.3396 10.0968C89.8882 10.6179 89.632 11.2797 89.6148 11.9689Z" fill="#1A0060"/>
<path d="M106.308 17.8343C105.902 18.4586 105.333 18.9606 104.663 19.2863C103.925 19.6326 103.117 19.8037 102.301 19.7862C101.793 19.8186 101.284 19.7457 100.805 19.5719C100.326 19.3981 99.8885 19.1272 99.5194 18.7763C98.8269 17.9862 98.4759 16.9538 98.5435 15.9053C98.5109 15.4221 98.5811 14.9374 98.7493 14.4833C98.9175 14.0291 99.18 13.6157 99.5194 13.2703C100.451 12.5496 101.572 12.1169 102.746 12.0253C103.088 11.9727 103.536 11.9133 104.093 11.8462C105.5 11.6663 106.204 11.2663 106.206 10.6463C106.224 10.4443 106.191 10.241 106.109 10.0555C106.027 9.87006 105.899 9.70856 105.737 9.5863C105.256 9.33432 104.713 9.22342 104.172 9.26637C103.63 9.23222 103.091 9.3697 102.631 9.65929C102.456 9.78697 102.315 9.9564 102.221 10.1523C102.127 10.3481 102.084 10.5643 102.094 10.7812V10.9603H98.9899V10.7362C98.965 10.1738 99.0743 9.61355 99.3086 9.10168C99.5429 8.58981 99.8956 8.14099 100.338 7.79227C101.419 7.0216 102.732 6.64373 104.058 6.72128C105.445 6.63835 106.828 6.94525 108.05 7.60727C108.489 7.87014 108.849 8.24605 109.093 8.69571C109.336 9.14536 109.455 9.65225 109.436 10.1634V17.0943C109.417 17.4806 109.471 17.867 109.596 18.2331C109.7 18.4808 109.891 18.6819 110.133 18.7983V19.3483H106.674C106.556 19.1292 106.467 18.8955 106.41 18.6532C106.348 18.3845 106.314 18.1101 106.308 17.8343ZM106.25 13.3492C105.652 13.6146 105.026 13.8135 104.385 13.9424C103.679 14.0926 103.315 14.1712 103.293 14.1783C102.837 14.2741 102.415 14.4868 102.067 14.7953C101.821 15.0762 101.696 15.4426 101.717 15.8153C101.708 16.0157 101.744 16.2156 101.821 16.4008C101.898 16.5859 102.015 16.7517 102.164 16.8863C102.499 17.1655 102.927 17.3077 103.362 17.2844C103.747 17.3063 104.132 17.2518 104.496 17.1239C104.859 16.996 105.194 16.7973 105.48 16.5392C105.742 16.2718 105.946 15.9528 106.079 15.6025C106.211 15.2522 106.27 14.8782 106.25 14.5042V13.3492Z" fill="#1A0060"/>
<path d="M111.401 19.3478V7.15875H114.484V9.24387C114.829 8.5125 115.351 7.87847 116.002 7.39892C116.615 6.99679 117.337 6.7916 118.07 6.81081C118.197 6.81081 118.3 6.8125 118.371 6.81675C118.442 6.82099 118.503 6.82608 118.549 6.83287L118.561 10.1409H117.453C117.083 10.113 116.711 10.1603 116.36 10.2799C116.008 10.3995 115.685 10.5889 115.409 10.8368C115.164 11.1184 114.977 11.4457 114.86 11.7998C114.742 12.1539 114.696 12.5278 114.724 12.8998V19.3478H111.401Z" fill="#1A0060"/>
<path d="M119.438 19.3477V7.15865H122.694V8.60559C123.128 8.03844 123.691 7.58288 124.337 7.27662C124.999 6.97421 125.721 6.82262 126.449 6.83278C127.006 6.78929 127.567 6.85988 128.096 7.04022C128.625 7.22057 129.112 7.50689 129.526 7.8817C130.27 8.75749 130.638 9.89202 130.549 11.0378V19.3477H127.226V11.9806C127.284 11.3237 127.126 10.6658 126.776 10.1068C126.59 9.90742 126.362 9.75323 126.107 9.65612C125.853 9.55901 125.58 9.52159 125.309 9.54674C124.968 9.52876 124.627 9.5807 124.307 9.69935C123.987 9.818 123.694 10.0009 123.447 10.2367C123.212 10.487 123.03 10.7826 122.912 11.1054C122.794 11.4282 122.742 11.7715 122.761 12.1147V19.3477H119.438Z" fill="#1A0060"/>
<path d="M140.12 15.6467H143.431C143.141 16.8655 142.421 17.9388 141.403 18.6696C140.312 19.4206 139.01 19.8036 137.686 19.7627C136.887 19.7998 136.09 19.6597 135.352 19.3523C134.614 19.0449 133.953 18.5779 133.417 17.9848C132.308 16.6325 131.746 14.9145 131.841 13.1687C131.745 11.4557 132.299 9.76975 133.393 8.44771C133.932 7.86711 134.592 7.41163 135.326 7.11328C136.06 6.81492 136.851 6.68093 137.642 6.72072C138.456 6.67054 139.27 6.79633 140.031 7.08952C140.791 7.38272 141.48 7.83641 142.049 8.4197C143.161 9.77792 143.715 11.5073 143.601 13.2587C143.601 13.4912 143.599 13.6643 143.595 13.7797C143.592 13.8908 143.582 14.0015 143.566 14.1116H135.277C135.263 14.8928 135.515 15.6557 135.99 16.2756C136.227 16.5257 136.516 16.7205 136.837 16.8463C137.158 16.9722 137.502 17.0259 137.846 17.0037C138.336 17.0238 138.822 16.9097 139.252 16.6736C139.638 16.4272 139.941 16.0691 140.12 15.6467ZM135.277 11.9687H140.164C140.183 11.2815 139.945 10.6118 139.497 10.0907C139.259 9.86567 138.978 9.69227 138.67 9.58141C138.363 9.47055 138.035 9.42464 137.709 9.44656C137.395 9.42965 137.081 9.47877 136.787 9.59074C136.493 9.7027 136.225 9.87503 136.002 10.0966C135.551 10.6177 135.295 11.2795 135.277 11.9687Z" fill="#1A0060"/>
<path d="M144.856 19.3478V7.15875H147.94V9.24387C148.286 8.51273 148.808 7.87882 149.459 7.39892C150.071 6.9968 150.792 6.79159 151.525 6.81081C151.655 6.81081 151.755 6.8125 151.829 6.81675C151.888 6.81916 151.946 6.82454 152.005 6.83287L152.016 10.1409H150.908C150.539 10.1129 150.167 10.1601 149.816 10.2797C149.465 10.3993 149.142 10.5888 148.866 10.8368C148.62 11.1181 148.433 11.4453 148.316 11.7994C148.198 12.1536 148.151 12.5276 148.179 12.8998V19.3478H144.856Z" fill="#1A0060"/>
<path d="M152.2 15.379H155.511C155.507 15.6476 155.568 15.9133 155.687 16.1541C155.806 16.3949 155.981 16.6039 156.197 16.7639C156.775 17.1057 157.444 17.2638 158.115 17.2171C158.635 17.2462 159.153 17.1361 159.617 16.898C159.78 16.8111 159.915 16.6808 160.009 16.5216C160.102 16.3624 160.15 16.1805 160.146 15.9959C160.146 15.4415 159.484 15.0265 158.159 14.751C157.62 14.6389 157.189 14.5413 156.87 14.459C155.656 14.2355 154.508 13.7454 153.507 13.024C153.193 12.7431 152.947 12.3962 152.784 12.0083C152.621 11.6204 152.546 11.2013 152.565 10.781C152.542 10.2129 152.656 9.64765 152.895 9.13194C153.134 8.61623 153.493 8.16483 153.941 7.81499C155.022 7.03473 156.337 6.64862 157.668 6.72109C159.057 6.64218 160.432 7.02502 161.581 7.8099C162.05 8.17049 162.43 8.63386 162.692 9.16437C162.954 9.69488 163.091 10.2784 163.092 10.8701H159.862C159.861 10.6376 159.807 10.4085 159.703 10.2005C159.599 9.99255 159.448 9.81134 159.263 9.67097C158.799 9.36172 158.248 9.21215 157.691 9.24496C157.205 9.21317 156.719 9.30975 156.283 9.52501C156.135 9.60881 156.014 9.73175 155.933 9.8802C155.851 10.0286 155.812 10.1968 155.82 10.366C155.82 10.8523 156.645 11.2823 158.296 11.656C158.677 11.7383 158.978 11.8053 159.199 11.8571C160.418 12.0524 161.576 12.5245 162.584 13.237C162.893 13.5265 163.134 13.8805 163.291 14.2739C163.448 14.6672 163.517 15.0903 163.492 15.513C163.526 16.1226 163.407 16.731 163.147 17.2832C162.887 17.8355 162.493 18.3141 162.002 18.6759C160.707 19.4828 159.191 19.8631 157.668 19.763C156.239 19.8475 154.824 19.4484 153.649 18.6301C153.176 18.2645 152.797 17.7906 152.545 17.2482C152.292 16.7057 152.174 16.1107 152.2 15.513V15.379Z" fill="#1A0060"/>
<path d="M74.3578 26.4609H77.8525V36.8229C77.7677 37.8186 78.0436 38.8116 78.6299 39.6209C78.9527 39.9368 79.3402 40.1791 79.7656 40.3309C80.1911 40.4826 80.6444 40.5404 81.0943 40.5001C81.5486 40.5412 82.0064 40.4843 82.4368 40.3334C82.8672 40.1825 83.2602 39.9409 83.5893 39.6251C84.1812 38.8167 84.4596 37.821 84.3726 36.8229V26.4609H87.8325V37.1929C87.8884 38.0483 87.7631 38.9059 87.4649 39.7096C87.1668 40.5133 86.7024 41.245 86.1022 41.857C84.7137 43.0241 82.9268 43.6072 81.1172 43.4839C79.2985 43.6074 77.5019 43.0271 76.0992 41.863C75.4951 41.252 75.0276 40.5198 74.7274 39.7148C74.4272 38.9098 74.3012 38.0502 74.3578 37.1929V26.4609Z" fill="#1A0060"/>
<path d="M90.002 43.0235V30.8344H93.2573V32.2814C93.6917 31.7142 94.2549 31.2587 94.9003 30.9524C95.5629 30.6499 96.2843 30.4983 97.0126 30.5086C97.5699 30.4651 98.1302 30.5357 98.6592 30.716C99.1883 30.8964 99.6751 31.1827 100.09 31.5575C100.834 32.4333 101.202 33.5678 101.112 34.7136V43.0235H97.79V35.6561C97.8475 34.9991 97.6893 34.3413 97.3393 33.7823C97.1539 33.5829 96.9252 33.4287 96.6708 33.3316C96.4164 33.2345 96.1431 33.197 95.872 33.2222C95.5312 33.2042 95.1902 33.2561 94.8702 33.3748C94.5501 33.4934 94.2577 33.6763 94.0109 33.9121C93.7755 34.1625 93.5932 34.458 93.4752 34.7808C93.3572 35.1036 93.3059 35.447 93.3244 35.7902V43.0232L90.002 43.0235Z" fill="#1A0060"/>
<path d="M103.099 26.5059H106.421V29.4782H103.099V26.5059ZM103.099 30.8348H106.421V43.0239H103.099V30.8348Z" fill="#1A0060"/>
<path d="M111.514 43.024L107.049 30.835H110.725L113.273 39.5811L115.842 30.835H119.346L114.904 43.024H111.514Z" fill="#1A0060"/>
<path d="M127.56 39.3225H130.87C130.58 40.5413 129.86 41.6146 128.843 42.3454C127.752 43.0964 126.45 43.4794 125.126 43.4385C124.327 43.4756 123.53 43.3355 122.792 43.0281C122.053 42.7207 121.392 42.2537 120.856 41.6605C119.748 40.3082 119.186 38.5903 119.28 36.8445C119.185 35.1315 119.739 33.4455 120.832 32.1235C121.372 31.5429 122.032 31.0874 122.766 30.7891C123.5 30.4907 124.29 30.3567 125.082 30.3965C125.895 30.3463 126.71 30.4721 127.47 30.7653C128.231 31.0585 128.919 31.5122 129.489 32.0955C130.6 33.4537 131.155 35.1831 131.041 36.9344C131.041 37.167 131.038 37.3401 131.035 37.4555C131.031 37.5666 131.022 37.6773 131.006 37.7873H122.717C122.703 38.5686 122.955 39.3315 123.43 39.9514C123.667 40.2014 123.956 40.3963 124.277 40.5221C124.598 40.648 124.942 40.7017 125.286 40.6795C125.776 40.6996 126.262 40.5854 126.692 40.3494C127.078 40.103 127.381 39.7449 127.56 39.3225ZM122.717 35.6445H127.604C127.623 34.9573 127.385 34.2876 126.937 33.7665C126.699 33.5414 126.418 33.3681 126.11 33.2572C125.803 33.1463 125.475 33.1004 125.149 33.1223C124.835 33.1054 124.521 33.1546 124.227 33.2665C123.933 33.3785 123.665 33.5508 123.442 33.7724C122.991 34.2935 122.735 34.9553 122.717 35.6445Z" fill="#1A0060"/>
<path d="M132.297 43.0236V30.8345H135.38V32.9196C135.726 32.1885 136.248 31.5546 136.899 31.0747C137.512 30.6726 138.233 30.4674 138.966 30.4866C139.095 30.4866 139.196 30.4883 139.269 30.4925C139.328 30.4949 139.387 30.5003 139.445 30.5087L139.457 33.8167H138.349C137.979 33.7886 137.607 33.8359 137.256 33.9555C136.905 34.0751 136.582 34.2646 136.306 34.5126C136.061 34.7938 135.874 35.1211 135.756 35.4752C135.638 35.8294 135.592 36.2034 135.619 36.5756V43.0236H132.297Z" fill="#1A0060"/>
<path d="M139.639 39.0547H142.951C142.947 39.3234 143.007 39.5891 143.127 39.8299C143.246 40.0707 143.421 40.2797 143.636 40.4397C144.215 40.7815 144.884 40.9395 145.554 40.8929C146.075 40.922 146.593 40.8119 147.057 40.5738C147.219 40.4869 147.355 40.3566 147.448 40.1974C147.542 40.0382 147.59 39.8563 147.586 39.6717C147.586 39.1172 146.924 38.7023 145.599 38.4267C145.06 38.3147 144.629 38.2171 144.309 38.1348C143.096 37.9113 141.947 37.4212 140.946 36.6997C140.633 36.4188 140.386 36.072 140.223 35.6841C140.06 35.2962 139.986 34.877 140.004 34.4568C139.982 33.8887 140.095 33.3234 140.335 32.8077C140.574 32.292 140.933 31.8406 141.381 31.4908C142.461 30.7105 143.777 30.3244 145.108 30.3969C146.497 30.318 147.872 30.7008 149.02 31.4857C149.489 31.8463 149.87 32.3096 150.132 32.8402C150.394 33.3707 150.53 33.9542 150.532 34.5459H147.302C147.301 34.3134 147.246 34.0843 147.142 33.8763C147.038 33.6683 146.888 33.4871 146.703 33.3468C146.239 33.0375 145.687 32.8879 145.131 32.9207C144.645 32.8889 144.159 32.9855 143.722 33.2008C143.575 33.2846 143.454 33.4075 143.372 33.556C143.29 33.7044 143.252 33.8726 143.26 34.0418C143.26 34.5281 144.085 34.958 145.736 35.3317C146.117 35.414 146.418 35.4811 146.639 35.5329C147.858 35.7282 149.015 36.2002 150.023 36.9128C150.332 37.2023 150.574 37.5563 150.731 37.9497C150.888 38.343 150.956 38.7661 150.931 39.1888C150.965 39.7983 150.847 40.4067 150.587 40.959C150.327 41.5112 149.933 41.9899 149.441 42.3517C148.146 43.1586 146.631 43.5388 145.108 43.4388C143.679 43.5232 142.263 43.1242 141.089 42.3059C140.615 41.9403 140.236 41.4664 139.984 40.9239C139.732 40.3815 139.614 39.7865 139.639 39.1888L139.639 39.0547Z" fill="#1A0060"/>
<path d="M152.234 26.5059H155.557V29.4782H152.234V26.5059ZM152.234 30.8348H155.557V43.0239H152.234V30.8348Z" fill="#1A0060"/>
<path d="M163.104 43.1139C162.8 43.1206 162.437 43.1337 162.014 43.1529C161.593 43.1716 161.324 43.1809 161.21 43.1809C160.283 43.285 159.351 43.0346 158.6 42.4799C158.133 42.0132 157.899 41.0918 157.899 39.7159V33.1228H156.254V30.8348H157.899V27.5039H161.187V30.8348H163.104V33.1228H161.187V39.8729C161.17 39.988 161.181 40.1055 161.219 40.2156C161.256 40.3257 161.32 40.4252 161.403 40.506C161.682 40.6347 161.989 40.6872 162.295 40.6579H163.104V43.1139Z" fill="#1A0060"/>
<path d="M164.579 47.9129V45.2771C164.685 45.2932 164.795 45.3034 164.909 45.311C165.023 45.3186 165.172 45.3229 165.356 45.3229C165.887 45.3628 166.413 45.2006 166.829 44.8689C167.002 44.6891 167.135 44.4747 167.22 44.2399C167.305 44.005 167.339 43.7549 167.32 43.5059C167.319 43.4492 167.311 43.3928 167.296 43.3379C167.284 43.2811 167.269 43.225 167.25 43.1699L162.776 30.834H166.429L169.044 39.6251L171.59 30.834H175.083L169.98 45.2109C169.742 46.0742 169.244 46.8432 168.553 47.4131C167.773 47.859 166.879 48.0642 165.983 48.0029C165.777 48.0029 165.557 47.9953 165.321 47.98C165.086 47.9647 164.838 47.9426 164.579 47.9129Z" fill="#1A0060"/>
<path d="M196.346 37.3494C196.316 38.2092 196.103 39.0528 195.723 39.8242C195.342 40.5957 194.801 41.2774 194.137 41.8243C192.636 42.9823 190.773 43.5702 188.879 43.4834C187.803 43.5456 186.727 43.3733 185.724 42.9784C184.722 42.5835 183.817 41.9754 183.073 41.1963C181.69 39.6713 180.999 37.533 181 34.7814C181 31.9707 181.705 29.8177 183.113 28.3224C184.52 26.8271 186.545 26.0794 189.186 26.0794C191.011 25.9777 192.813 26.5238 194.274 27.6214C194.904 28.1611 195.413 28.8285 195.766 29.5794C196.12 30.3304 196.309 31.1477 196.323 31.9775H192.909C192.817 31.1398 192.399 30.3721 191.744 29.8414C190.998 29.3171 190.097 29.0586 189.186 29.1074C188.535 29.0645 187.883 29.1728 187.281 29.4239C186.679 29.6749 186.143 30.0618 185.715 30.5543C184.843 31.784 184.424 33.2776 184.528 34.7814C184.435 36.2626 184.852 37.731 185.709 38.9423C186.456 39.7467 187.466 40.2573 188.556 40.3817C189.646 40.5061 190.745 40.236 191.653 39.6204C192.349 39.0473 192.812 38.2397 192.954 37.3494H196.346Z" fill="#1A0060"/>
<path d="M197.259 36.9124C197.21 36.0448 197.332 35.176 197.62 34.3562C197.908 33.5363 198.356 32.7815 198.937 32.1354C200.211 31.0146 201.85 30.3965 203.547 30.3965C205.244 30.3965 206.883 31.0146 208.157 32.1354C208.74 32.7807 209.188 33.5353 209.477 34.3553C209.766 35.1752 209.889 36.0444 209.84 36.9124C209.89 37.7821 209.767 38.653 209.478 39.4749C209.189 40.2967 208.74 41.0531 208.157 41.7004C206.883 42.8206 205.244 43.4384 203.547 43.4384C201.85 43.4384 200.211 42.8206 198.937 41.7004C198.355 41.0524 197.907 40.2957 197.62 39.474C197.332 38.6522 197.209 37.7817 197.259 36.9124ZM200.628 36.9124C200.565 37.9047 200.831 38.8902 201.386 39.7154C201.641 40.0421 201.97 40.3024 202.347 40.4741C202.724 40.6458 203.137 40.7238 203.551 40.7016C203.96 40.722 204.369 40.6429 204.742 40.4712C205.114 40.2995 205.44 40.0402 205.69 39.7154C206.187 38.8678 206.449 37.9035 206.45 36.9212C206.451 35.939 206.191 34.9741 205.696 34.1254C205.444 33.8009 205.118 33.5422 204.744 33.3713C204.37 33.2005 203.961 33.1226 203.551 33.1444C203.138 33.122 202.725 33.1994 202.348 33.3702C201.971 33.541 201.641 33.8 201.386 34.1254C200.832 34.9448 200.565 35.9251 200.628 36.9124Z" fill="#1A0060"/>
<path d="M214.603 26.5059H211.28V43.0239H214.603V26.5059Z" fill="#1A0060"/>
<path d="M220.094 26.5059H216.772V43.0239H220.094V26.5059Z" fill="#1A0060"/>
<path d="M229.802 39.3227H233.114C232.824 40.5413 232.105 41.6147 231.088 42.3456C229.997 43.0966 228.695 43.4795 227.371 43.4386C226.572 43.4762 225.775 43.3362 225.037 43.0288C224.298 42.7214 223.637 42.2542 223.101 41.6607C221.993 40.3088 221.43 38.5906 221.525 36.8447C221.429 35.1315 221.983 33.4451 223.078 32.1236C223.616 31.5431 224.276 31.0877 225.009 30.7893C225.743 30.491 226.533 30.3569 227.324 30.3967C228.138 30.3461 228.953 30.4717 229.714 30.7649C230.474 31.0581 231.163 31.512 231.732 32.0956C232.845 33.4533 233.4 35.1829 233.286 36.9346C233.286 37.1671 233.284 37.3403 233.28 37.4557C233.276 37.5667 233.267 37.6775 233.251 37.7875H224.962C224.946 38.569 225.198 39.3326 225.675 39.9515C225.912 40.2019 226.201 40.3969 226.522 40.5227C226.843 40.6486 227.187 40.7022 227.531 40.6797C228.021 40.6998 228.506 40.5856 228.935 40.3496C229.322 40.1039 229.625 39.7455 229.802 39.3227ZM224.962 35.6447H229.849C229.869 34.9571 229.63 34.2871 229.18 33.7666C228.943 33.5418 228.662 33.3685 228.354 33.2577C228.047 33.1468 227.72 33.1008 227.394 33.1225C227.08 33.1054 226.766 33.1545 226.472 33.2665C226.178 33.3784 225.91 33.5509 225.687 33.7726C225.236 34.2936 224.98 34.9555 224.962 35.6447Z" fill="#1A0060"/>
<path d="M234.256 44.2011L237.886 44.1901C237.928 44.3795 238.008 44.5584 238.121 44.7162C238.234 44.8741 238.378 45.0077 238.543 45.1092C238.951 45.3299 239.411 45.4347 239.873 45.4121C240.259 45.4534 240.65 45.4177 241.022 45.307C241.394 45.1963 241.741 45.0128 242.041 44.7672C242.531 44.075 242.75 43.2278 242.658 42.385V41.2971C242.341 41.8565 241.867 42.3106 241.294 42.6031C240.638 42.9045 239.92 43.0487 239.199 43.0241C238.47 43.0523 237.744 42.9151 237.076 42.6228C236.408 42.3304 235.814 41.8905 235.341 41.3361C234.324 40.0667 233.809 38.469 233.89 36.8451C233.8 35.1593 234.303 33.495 235.311 32.141C235.769 31.5716 236.354 31.1173 237.02 30.8145C237.685 30.5117 238.412 30.3687 239.143 30.3971C239.884 30.3754 240.618 30.5372 241.282 30.8681C241.891 31.1997 242.392 31.6977 242.728 32.304V30.835H245.879V42.217C245.918 43.2058 245.795 44.1944 245.513 45.1431C245.27 45.8156 244.837 46.4037 244.268 46.837C243.695 47.2501 243.045 47.5452 242.357 47.7052C241.492 47.9145 240.603 48.0145 239.713 48.003C238.336 48.0785 236.969 47.7302 235.796 47.005C235.336 46.6928 234.956 46.2759 234.689 45.7885C234.421 45.301 234.273 44.757 234.256 44.2011ZM237.258 36.7331C237.198 37.665 237.445 38.5908 237.961 39.3689C238.209 39.6573 238.517 39.8887 238.863 40.0473C239.208 40.2059 239.584 40.288 239.965 40.288C240.345 40.288 240.721 40.2059 241.067 40.0473C241.413 39.8887 241.72 39.6573 241.968 39.3689C242.48 38.5719 242.721 37.6319 242.658 36.6872C242.716 35.7703 242.464 34.8607 241.945 34.1031C241.705 33.8002 241.395 33.5591 241.043 33.4001C240.69 33.2411 240.305 33.1688 239.919 33.1891C239.54 33.171 239.163 33.2464 238.821 33.4088C238.478 33.5712 238.181 33.8155 237.955 34.1201C237.446 34.8927 237.202 35.8096 237.258 36.7331Z" fill="#1A0060"/>
<path d="M255.516 39.3227H258.828C258.538 40.5413 257.819 41.6147 256.802 42.3456C255.711 43.0966 254.409 43.4795 253.085 43.4386C252.286 43.4762 251.489 43.3362 250.75 43.0288C250.012 42.7214 249.351 42.2542 248.815 41.6607C247.706 40.3088 247.144 38.5906 247.239 36.8447C247.142 35.1315 247.697 33.4451 248.791 32.1236C249.33 31.5431 249.99 31.0877 250.723 30.7893C251.457 30.491 252.247 30.3569 253.038 30.3967C253.852 30.3461 254.667 30.4717 255.428 30.7649C256.188 31.0581 256.877 31.512 257.446 32.0956C258.559 33.4533 259.114 35.1829 259 36.9346C259 37.1671 258.998 37.3403 258.994 37.4557C258.99 37.5667 258.981 37.6775 258.965 37.7875H250.676C250.66 38.569 250.912 39.3326 251.389 39.9515C251.626 40.2019 251.915 40.3969 252.236 40.5227C252.557 40.6486 252.901 40.7022 253.245 40.6797C253.734 40.6998 254.22 40.5856 254.649 40.3496C255.036 40.1039 255.339 39.7455 255.516 39.3227ZM250.676 35.6447H255.563C255.582 34.9571 255.344 34.2871 254.894 33.7666C254.657 33.5418 254.376 33.3685 254.068 33.2577C253.761 33.1468 253.434 33.1008 253.108 33.1225C252.794 33.1054 252.479 33.1545 252.185 33.2665C251.891 33.3784 251.624 33.5509 251.401 33.7726C250.95 34.2936 250.693 34.9555 250.676 35.6447Z" fill="#1A0060"/>
<path d="M73.5537 59.4943V51.9219H74.6111V58.5387H78.4521V59.4943H73.5537Z" fill="#1A0060"/>
<path d="M82.9537 57.7162H83.8855C83.8091 58.2795 83.5208 58.7924 83.0793 59.1504C82.6073 59.5114 82.0242 59.6966 81.4304 59.674C81.0855 59.6904 80.7412 59.6298 80.4227 59.4965C80.1041 59.3632 79.8193 59.1606 79.5888 58.9035C79.1118 58.3102 78.8715 57.5614 78.9142 56.8014C78.8664 56.0112 79.1037 55.2301 79.5829 54.6C79.8105 54.3365 80.0952 54.1283 80.4153 53.9913C80.7355 53.8542 81.0826 53.7919 81.4304 53.809C81.7764 53.7882 82.1229 53.8425 82.4459 53.9684C82.769 54.0942 83.0609 54.2886 83.3016 54.538C83.7756 55.1168 84.0124 55.8537 83.9644 56.6002C83.9644 56.7131 83.9627 56.7971 83.9627 56.8523C83.9611 56.9074 83.9551 56.9601 83.9492 57.0118H79.902C79.8815 57.4984 80.038 57.976 80.3424 58.3561C80.6224 58.626 80.9866 58.7915 81.374 58.825C81.7615 58.8585 82.1486 58.758 82.4708 58.5402C82.7271 58.3338 82.8989 58.0407 82.9537 57.7162ZM79.8977 56.2404H82.9749C83.0002 55.8071 82.8576 55.3808 82.5769 55.0498C82.2715 54.7814 81.8791 54.6328 81.4726 54.6314C81.066 54.63 80.6726 54.7759 80.3653 55.0421C80.0743 55.3747 79.9089 55.7986 79.8977 56.2404Z" fill="#1A0060"/>
<path d="M88.5077 58.7592C88.2419 59.0418 87.9252 59.2718 87.5742 59.4373C87.2449 59.5883 86.8867 59.6659 86.5244 59.6647C86.0381 59.6937 85.559 59.5365 85.1844 59.2251C85.0213 59.0691 84.8938 58.8796 84.8107 58.6697C84.7277 58.4598 84.691 58.2344 84.7032 58.009C84.6914 57.7901 84.7276 57.5713 84.8094 57.3679C84.8913 57.1646 85.0166 56.9816 85.1768 56.8319C85.5911 56.5076 86.0936 56.3157 86.6186 56.2811C86.7832 56.2642 87.0039 56.2404 87.284 56.2099C87.5809 56.1929 87.8754 56.1462 88.1631 56.0707C88.2523 56.045 88.3287 55.9873 88.3779 55.9086C88.4236 55.7686 88.4415 55.621 88.4305 55.4741C88.4378 55.3503 88.4125 55.2267 88.3571 55.1158C88.3017 55.0048 88.2181 54.9104 88.1148 54.8418C87.8259 54.682 87.4971 54.6089 87.1677 54.6314C86.8199 54.6068 86.4738 54.6971 86.1824 54.8885C86.07 54.9792 85.981 55.0957 85.9231 55.2281C85.8652 55.3604 85.8401 55.5048 85.8497 55.6489H84.9587V55.608C84.9481 55.3571 84.9967 55.1073 85.1005 54.8787C85.2043 54.65 85.3603 54.449 85.5561 54.2918C86.0315 53.9457 86.6121 53.7751 87.1991 53.8089C87.782 53.7637 88.3638 53.9087 88.8573 54.2222C89.0414 54.3806 89.1854 54.5804 89.2775 54.8052C89.3695 55.03 89.407 55.2734 89.3869 55.5155V58.271C89.3703 58.4277 89.3979 58.5859 89.4667 58.7276C89.5023 58.7656 89.5463 58.7948 89.5953 58.8128C89.6442 58.8308 89.6966 58.837 89.7484 58.8311C89.7828 58.8307 89.8171 58.8282 89.8511 58.8235C89.8918 58.8184 89.9402 58.8108 89.9962 58.8006V59.5143C89.8968 59.5419 89.796 59.5637 89.6941 59.5796C89.6134 59.5905 89.532 59.5962 89.4505 59.5966C89.1988 59.6156 88.9484 59.5449 88.7436 59.3972C88.6614 59.32 88.5976 59.2253 88.5567 59.1201C88.5159 59.015 88.4992 58.902 88.5077 58.7896V58.7592ZM88.4186 56.6927C88.0081 56.8672 87.5717 56.973 87.1269 57.0059C86.9105 57.0339 86.7484 57.056 86.6407 57.0738C86.3702 57.097 86.1129 57.2004 85.9015 57.3708C85.8225 57.4542 85.7616 57.553 85.7227 57.6611C85.6839 57.7692 85.6679 57.8842 85.6758 57.9988C85.6689 58.1171 85.689 58.2354 85.7346 58.3448C85.7801 58.4542 85.85 58.5518 85.9388 58.6302C86.1535 58.7912 86.4188 58.8698 86.6865 58.8517C87.1324 58.8707 87.5717 58.7385 87.9332 58.4766C88.0855 58.3672 88.2091 58.2227 88.2936 58.0553C88.3782 57.8879 88.421 57.7026 88.4186 57.5151V56.6927Z" fill="#1A0060"/>
<path d="M90.8633 59.4949V53.9889H91.7739V54.9759C91.894 54.6463 92.106 54.3579 92.3849 54.1451C92.6628 53.9561 92.9935 53.8601 93.3294 53.8709C93.399 53.8709 93.4499 53.8718 93.4805 53.8726C93.5125 53.875 93.5442 53.8795 93.5755 53.8862V54.8622C93.5501 54.8596 93.5229 54.8571 93.4924 54.8545C93.4593 54.8537 93.4126 54.8528 93.3507 54.8528C93.1416 54.8382 92.9318 54.8664 92.7341 54.9357C92.5364 55.005 92.3549 55.114 92.2007 55.2559C92.061 55.4163 91.9542 55.6026 91.8866 55.8043C91.8191 56.006 91.792 56.2191 91.807 56.4313V59.4949H90.8633Z" fill="#1A0060"/>
<path d="M98.1571 59.495V56.1072C98.1956 55.7149 98.106 55.3207 97.9017 54.9836C97.7891 54.8696 97.6523 54.7824 97.5014 54.7285C97.3506 54.6745 97.1895 54.6553 97.0301 54.6721C96.8065 54.6587 96.5825 54.6907 96.3715 54.7662C96.1606 54.8418 95.9672 54.9593 95.803 55.1117C95.6505 55.2797 95.5333 55.4766 95.4582 55.6908C95.3831 55.9049 95.3518 56.1319 95.366 56.3584V59.495H94.4248V53.989H95.3252V54.7909C95.5172 54.4927 95.7821 54.2485 96.0949 54.0815C96.4144 53.9216 96.768 53.842 97.1252 53.8498C97.4905 53.8391 97.854 53.9032 98.1936 54.0382C98.4695 54.1518 98.7032 54.3484 98.8624 54.6008C98.954 54.7446 99.0184 54.9039 99.0525 55.071C99.0978 55.3537 99.1166 55.6401 99.1085 55.9264V59.495H98.1571Z" fill="#1A0060"/>
<path d="M101.807 58.3486H100.734V59.4952H101.807V58.3486Z" fill="#1A0060"/>
<path d="M105.647 59.4943L108.51 51.9219H109.666L112.54 59.4943H111.404L110.588 57.2318H107.551L106.729 59.4943H105.647ZM107.876 56.3484H110.279L109.086 53.0064L107.876 56.3484Z" fill="#1A0060"/>
<path d="M116.948 55.8193C116.944 55.6529 116.905 55.4892 116.833 55.339C116.761 55.1887 116.659 55.0554 116.532 54.9477C116.236 54.7292 115.874 54.6211 115.507 54.6422C115.282 54.6305 115.057 54.6733 114.852 54.7672C114.647 54.861 114.467 55.003 114.329 55.1811C114.023 55.6353 113.877 56.1778 113.913 56.7239C113.879 57.2706 114.019 57.814 114.312 58.2761C114.441 58.4537 114.612 58.5966 114.81 58.6917C115.008 58.7868 115.226 58.8312 115.445 58.8209C115.826 58.8401 116.201 58.7214 116.501 58.4866C116.779 58.235 116.953 57.8889 116.99 57.5157H117.891C117.883 57.8148 117.814 58.1092 117.689 58.3809C117.563 58.6527 117.384 58.8962 117.162 59.0967C116.666 59.496 116.039 59.6981 115.403 59.6645C115.062 59.6811 114.723 59.6198 114.409 59.4852C114.096 59.3507 113.818 59.1464 113.595 58.888C113.162 58.2542 112.933 57.5033 112.939 56.7358C112.944 55.9683 113.183 55.2207 113.625 54.593C113.861 54.3303 114.152 54.1236 114.477 53.9879C114.803 53.8522 115.155 53.7911 115.507 53.8088C116.12 53.7781 116.722 53.9708 117.203 54.3511C117.414 54.5334 117.583 54.7587 117.7 55.0119C117.817 55.2652 117.878 55.5405 117.879 55.8193H116.948Z" fill="#1A0060"/>
<path d="M122.586 59.4943V56.1065C122.625 55.7136 122.535 55.3186 122.33 54.9812C122.217 54.8677 122.081 54.7809 121.93 54.7272C121.779 54.6736 121.618 54.6546 121.459 54.6715C121.014 54.6489 120.579 54.8012 120.245 55.0958C120.093 55.2438 119.975 55.4223 119.897 55.6195C119.819 55.8167 119.784 56.0281 119.794 56.2398V59.4943H118.853V51.9219H119.794V54.764C119.959 54.4729 120.205 54.2364 120.502 54.0834C120.828 53.921 121.189 53.8406 121.554 53.8491C121.919 53.8385 122.283 53.9026 122.622 54.0375C122.898 54.1511 123.132 54.3478 123.291 54.6002C123.383 54.7439 123.447 54.9033 123.481 55.0703C123.526 55.3531 123.545 55.6395 123.537 55.9258V59.4943H122.586Z" fill="#1A0060"/>
<path d="M124.95 51.9219H125.891V52.975H124.95V51.9219ZM124.95 53.9883H125.891V59.4947H124.95V53.9883Z" fill="#1A0060"/>
<path d="M131.108 57.7161H132.039C131.962 58.2789 131.674 58.7914 131.233 59.1504C130.761 59.5112 130.178 59.6964 129.584 59.674C129.239 59.6906 128.895 59.63 128.576 59.4967C128.257 59.3634 127.972 59.1607 127.741 58.9034C127.265 58.3098 127.025 57.5612 127.066 56.8013C127.019 56.0109 127.257 55.2298 127.737 54.5999C127.965 54.3365 128.249 54.1284 128.569 53.9913C128.889 53.8543 129.237 53.7919 129.584 53.809C129.93 53.7882 130.277 53.8427 130.6 53.9685C130.923 54.0943 131.215 54.2886 131.456 54.538C131.928 55.1174 132.164 55.854 132.117 56.6002C132.117 56.713 132.117 56.7971 132.115 56.8522C132.114 56.9056 132.109 56.9589 132.101 57.0118H128.056C128.034 57.4983 128.19 57.9761 128.495 58.356C128.775 58.6259 129.139 58.7914 129.526 58.825C129.914 58.8585 130.301 58.758 130.623 58.5402C130.88 58.3342 131.053 58.0409 131.108 57.7161ZM128.05 56.2404H131.129C131.153 55.8072 131.011 55.3811 130.731 55.0497C130.425 54.7813 130.033 54.6327 129.627 54.6313C129.22 54.6299 128.827 54.7758 128.519 55.0421C128.229 55.375 128.063 55.7986 128.05 56.2404Z" fill="#1A0060"/>
<path d="M134.556 59.4943L132.489 53.9883H133.498L135.064 58.3995L136.593 53.9883H137.602L135.557 59.4943H134.556Z" fill="#1A0060"/>
<path d="M142.125 57.7161H143.057C142.979 58.2789 142.691 58.7914 142.251 59.1504C141.779 59.5112 141.196 59.6964 140.602 59.674C140.257 59.6906 139.912 59.63 139.593 59.4967C139.274 59.3634 138.989 59.1607 138.759 58.9034C138.282 58.3098 138.042 57.5612 138.084 56.8013C138.037 56.0109 138.275 55.2298 138.754 54.5999C138.982 54.3365 139.267 54.1284 139.587 53.9913C139.907 53.8543 140.254 53.7919 140.602 53.809C140.948 53.7882 141.294 53.8427 141.617 53.9685C141.94 54.0943 142.232 54.2886 142.473 54.538C142.946 55.1174 143.182 55.854 143.134 56.6002C143.134 56.713 143.134 56.7971 143.132 56.8522C143.131 56.9056 143.126 56.9589 143.119 57.0118H139.073C139.052 57.4983 139.207 57.9761 139.512 58.356C139.792 58.6259 140.156 58.7914 140.544 58.825C140.931 58.8585 141.318 58.758 141.641 58.5402C141.898 58.3342 142.07 58.0409 142.125 57.7161ZM139.067 56.2404H142.146C142.171 55.8072 142.028 55.3811 141.748 55.0497C141.443 54.7813 141.051 54.6327 140.644 54.6313C140.237 54.6299 139.844 54.7758 139.537 55.0421C139.246 55.375 139.08 55.7986 139.067 56.2404Z" fill="#1A0060"/>
<path d="M145.5 58.3486H144.428V59.4952H145.5V58.3486Z" fill="#1A0060"/>
<path d="M149.84 57.0005H150.851C150.845 57.2463 150.892 57.4903 150.989 57.7164C151.085 57.9425 151.229 58.1455 151.41 58.3117C151.812 58.6526 152.329 58.8274 152.855 58.8005C153.353 58.8279 153.847 58.6982 154.266 58.4297C154.43 58.3188 154.564 58.1683 154.654 57.9922C154.744 57.8161 154.788 57.6201 154.782 57.4223C154.782 56.8427 154.137 56.4023 152.846 56.101C152.769 56.084 152.708 56.0696 152.668 56.0602C151.924 55.9442 151.216 55.666 150.592 55.2455C150.419 55.0823 150.285 54.8833 150.198 54.6625C150.111 54.4416 150.073 54.2044 150.088 53.9675C150.078 53.6562 150.14 53.3469 150.271 53.0642C150.402 52.7816 150.597 52.5335 150.841 52.3398C151.417 51.9066 152.126 51.6892 152.846 51.7254C153.573 51.6844 154.289 51.9145 154.856 52.3712C155.102 52.594 155.296 52.8681 155.424 53.1742C155.552 53.4803 155.612 53.8108 155.598 54.1423L154.599 54.1474C154.596 53.9272 154.547 53.7099 154.457 53.5091C154.366 53.3083 154.236 53.1281 154.073 52.9797C153.705 52.692 153.244 52.5478 152.778 52.574C152.343 52.5521 151.912 52.6682 151.547 52.9058C151.402 53.0023 151.284 53.1336 151.204 53.2878C151.123 53.4419 151.083 53.6138 151.087 53.7876C151.087 54.374 151.722 54.811 152.993 55.0987C153.18 55.1429 153.325 55.1777 153.425 55.2006C153.447 55.2048 153.483 55.2133 153.536 55.2269C154.124 55.3239 154.687 55.5389 155.191 55.8591C155.394 56.0279 155.556 56.2421 155.662 56.4846C155.773 56.7433 155.829 57.0227 155.825 57.3044C155.837 57.637 155.771 57.9678 155.632 58.2703C155.493 58.5729 155.286 58.8387 155.026 59.0466C154.403 59.5068 153.64 59.7357 152.867 59.6941C152.077 59.7427 151.297 59.4945 150.681 58.9983C150.411 58.7411 150.197 58.431 150.052 58.0872C149.907 57.7434 149.835 57.3735 149.84 57.0005Z" fill="#1A0060"/>
<path d="M157.944 53.9883V57.3659C157.905 57.76 157.996 58.156 158.203 58.4937C158.315 58.6092 158.453 58.6977 158.604 58.7527C158.756 58.8076 158.918 58.8276 159.079 58.8111C159.307 58.8271 159.535 58.7932 159.749 58.7119C159.963 58.6305 160.156 58.5037 160.316 58.3401C160.621 57.9452 160.769 57.4519 160.733 56.9543V53.9883H161.676V59.4945H160.776V58.6722C160.594 58.9779 160.331 59.227 160.016 59.3919C159.676 59.5593 159.301 59.6423 158.922 59.6337C158.572 59.6417 158.224 59.5749 157.902 59.4377C157.63 59.3225 157.398 59.1294 157.236 58.8827C157.146 58.7386 157.082 58.5793 157.049 58.4125C157.002 58.1298 156.983 57.8434 156.991 57.5571V53.9885L157.944 53.9883Z" fill="#1A0060"/>
<path d="M166.832 55.8194C166.827 55.6529 166.788 55.4893 166.716 55.3391C166.644 55.189 166.541 55.0556 166.414 54.9478C166.12 54.7293 165.758 54.6212 165.392 54.6423C165.166 54.6306 164.941 54.6735 164.735 54.7673C164.53 54.8611 164.35 55.0031 164.211 55.1812C163.907 55.636 163.761 56.1781 163.796 56.724C163.761 57.2706 163.901 57.814 164.195 58.2762C164.324 58.4537 164.495 58.5964 164.693 58.6915C164.891 58.7866 165.109 58.8311 165.328 58.821C165.709 58.8408 166.084 58.722 166.384 58.4866C166.662 58.2353 166.837 57.8891 166.873 57.5158H167.773C167.765 57.8148 167.697 58.109 167.572 58.3808C167.447 58.6525 167.268 58.8961 167.047 59.0968C166.55 59.4958 165.924 59.6979 165.287 59.6646C164.947 59.681 164.607 59.6197 164.293 59.4851C163.98 59.3506 163.701 59.1464 163.478 58.888C163.045 58.2543 162.816 57.5035 162.821 56.736C162.827 55.9686 163.066 55.221 163.507 54.5931C163.743 54.3305 164.035 54.1239 164.361 53.9883C164.687 53.8526 165.039 53.7914 165.392 53.8089C166.003 53.7778 166.605 53.9706 167.085 54.3512C167.296 54.5334 167.466 54.7587 167.583 55.0119C167.7 55.2651 167.762 55.5404 167.764 55.8194H166.832Z" fill="#1A0060"/>
<path d="M172.46 55.8193C172.456 55.6529 172.417 55.4892 172.346 55.339C172.274 55.1887 172.171 55.0554 172.044 54.9477C171.749 54.7292 171.387 54.6211 171.02 54.6422C170.795 54.6305 170.57 54.6733 170.365 54.7672C170.159 54.861 169.98 55.003 169.841 55.1811C169.536 55.6353 169.39 56.1778 169.425 56.7239C169.391 57.2706 169.531 57.814 169.825 58.2761C169.954 58.4537 170.125 58.5966 170.323 58.6917C170.521 58.7868 170.739 58.8312 170.958 58.8209C171.339 58.8401 171.714 58.7214 172.014 58.4866C172.292 58.235 172.466 57.8889 172.503 57.5157H173.404C173.396 57.8148 173.327 58.1092 173.201 58.3809C173.076 58.6527 172.897 58.8962 172.675 59.0967C172.178 59.496 171.552 59.6981 170.916 59.6645C170.575 59.6811 170.235 59.6198 169.922 59.4852C169.609 59.3507 169.33 59.1464 169.108 58.888C168.675 58.2542 168.446 57.5033 168.451 56.7358C168.457 55.9683 168.696 55.2207 169.138 54.593C169.373 54.3303 169.664 54.1236 169.99 53.9879C170.316 53.8522 170.668 53.7911 171.02 53.8088C171.632 53.7781 172.235 53.9708 172.716 54.3511C172.927 54.5334 173.096 54.7587 173.213 55.0119C173.329 55.2652 173.391 55.5405 173.392 55.8193H172.46Z" fill="#1A0060"/>
<path d="M178.138 57.7162H179.07C178.994 58.2795 178.705 58.7924 178.264 59.1504C177.792 59.5114 177.209 59.6966 176.615 59.674C176.27 59.6904 175.926 59.6298 175.607 59.4965C175.289 59.3632 175.004 59.1606 174.773 58.9035C174.296 58.3102 174.056 57.5614 174.099 56.8014C174.051 56.0112 174.288 55.2301 174.768 54.6C174.995 54.3365 175.28 54.1283 175.6 53.9913C175.92 53.8542 176.267 53.7919 176.615 53.809C176.961 53.7882 177.308 53.8425 177.631 53.9684C177.954 54.0942 178.246 54.2886 178.486 54.538C178.96 55.1168 179.197 55.8537 179.149 56.6002C179.149 56.7131 179.147 56.7971 179.147 56.8523C179.146 56.9074 179.14 56.9601 179.134 57.0118H175.087C175.066 57.4984 175.223 57.976 175.527 58.3561C175.807 58.626 176.171 58.7915 176.559 58.825C176.946 58.8585 177.333 58.758 177.655 58.5402C177.912 58.3338 178.084 58.0407 178.138 57.7162ZM175.082 56.2404H178.16C178.185 55.8071 178.042 55.3808 177.762 55.0498C177.456 54.7814 177.064 54.6328 176.657 54.6314C176.251 54.63 175.857 54.7759 175.55 55.0421C175.259 55.3747 175.094 55.7986 175.082 56.2404Z" fill="#1A0060"/>
<path d="M184.001 57.7162H184.932C184.856 58.2795 184.568 58.7924 184.126 59.1504C183.654 59.5114 183.071 59.6966 182.477 59.674C182.132 59.6904 181.788 59.6298 181.47 59.4965C181.151 59.3632 180.866 59.1606 180.636 58.9035C180.159 58.3102 179.918 57.5614 179.961 56.8014C179.913 56.0112 180.151 55.2301 180.63 54.6C180.857 54.3365 181.142 54.1283 181.462 53.9913C181.782 53.8542 182.129 53.7919 182.477 53.809C182.823 53.7882 183.17 53.8425 183.493 53.9684C183.816 54.0942 184.108 54.2886 184.349 54.538C184.822 55.1168 185.059 55.8537 185.011 56.6002C185.011 56.7131 185.01 56.7971 185.01 56.8523C185.008 56.9074 185.002 56.9601 184.996 57.0118H180.949C180.928 57.4984 181.085 57.976 181.389 58.3561C181.669 58.626 182.033 58.7915 182.421 58.825C182.808 58.8585 183.196 58.758 183.518 58.5402C183.774 58.3338 183.946 58.0407 184.001 57.7162ZM180.945 56.2404H184.022C184.047 55.8071 183.905 55.3808 183.624 55.0498C183.318 54.7814 182.926 54.6328 182.519 54.6314C182.113 54.63 181.72 54.7759 181.412 55.0421C181.121 55.3747 180.956 55.7986 180.945 56.2404Z" fill="#1A0060"/>
<path d="M190.989 51.9219V59.4946H190.078V58.8004C189.857 59.0738 189.579 59.295 189.263 59.4479C188.948 59.5944 188.605 59.6683 188.258 59.6643C187.919 59.6777 187.582 59.6136 187.272 59.4768C186.962 59.34 186.688 59.1342 186.47 58.8751C186 58.2732 185.763 57.5219 185.803 56.7594C185.761 55.9854 185.998 55.2222 186.471 54.6081C186.688 54.347 186.962 54.1391 187.272 54.0005C187.581 53.8619 187.919 53.7963 188.258 53.8087C188.615 53.8014 188.97 53.8745 189.296 54.0225C189.605 54.1691 189.873 54.3887 190.078 54.6624V51.9221L190.989 51.9219ZM190.111 56.7031C190.151 56.1558 190.002 55.6115 189.689 55.1603C189.536 54.9832 189.343 54.8442 189.126 54.7543C188.91 54.6643 188.675 54.6258 188.441 54.6418C188.205 54.6298 187.97 54.6751 187.756 54.7739C187.541 54.8726 187.354 55.0218 187.21 55.2087C186.893 55.6843 186.741 56.2507 186.777 56.8211C186.746 57.3519 186.905 57.8764 187.223 58.302C187.373 58.4802 187.561 58.6215 187.774 58.715C187.987 58.8084 188.218 58.8515 188.45 58.8409C188.684 58.853 188.918 58.809 189.131 58.7124C189.344 58.6159 189.532 58.4696 189.677 58.2858C189.994 57.8215 190.147 57.2644 190.111 56.7031Z" fill="#1A0060"/>
<path d="M193.747 58.3486H192.674V59.4952H193.747V58.3486Z" fill="#1A0060"/>
</g>
<defs>
<clipPath id="clip0_2086_2133">
<rect width="259" height="64.6055" fill="white"/>
</clipPath>
</defs>
</svg>
