<svg width="123" height="123" viewBox="0 0 123 123" fill="none" xmlns="http://www.w3.org/2000/svg">
<g filter="url(#filter0_b_1780_2510)">
<circle cx="61.4404" cy="61.4404" r="61.4404" fill="white"/>
</g>
<path fill-rule="evenodd" clip-rule="evenodd" d="M72.3083 22.6558C71.1281 22.8558 69.8127 23.2394 68.6383 23.7263C63.8217 25.7232 60.1692 30.2536 59.2246 35.4026C58.9668 36.808 58.9357 39.3151 59.1582 40.7434C59.8086 44.9166 62.2262 48.7946 65.6977 51.2332C73.5271 56.7331 84.3704 54.1038 88.815 45.6273C90.0166 43.3357 90.5684 41.1652 90.5982 38.6143C90.6286 35.9951 90.175 33.8864 89.0755 31.5359C86.9335 26.957 82.6595 23.6584 77.6615 22.7268C76.412 22.4939 73.4922 22.4552 72.3083 22.6558ZM77.3536 28.6796C84.0725 30.476 86.914 38.3996 82.8803 44.0909C80.4783 47.4801 76.066 48.9961 72.0001 47.8292C70.1689 47.3037 67.9858 45.8185 66.8861 44.35C64.6584 41.3749 64.2361 37.2724 65.8222 34.0134C67.3036 30.9693 70.1621 28.8903 73.53 28.4072C74.5132 28.2662 76.2775 28.3919 77.3536 28.6796ZM72.9086 32.5036C68.6307 33.957 67.3317 39.3089 70.4708 42.5473C72.8075 44.9578 76.6426 45.0026 79.035 42.6475C80.9303 40.7818 81.4084 38.0807 80.2791 35.6197C79.668 34.2881 78.1404 32.9553 76.6904 32.4887C75.5923 32.1355 73.9736 32.1419 72.9086 32.5036ZM55.9604 52.392C55.1898 52.5414 54.5334 52.8937 53.9333 53.4799C53.2289 54.168 52.8789 54.8864 52.8039 55.799C52.75 56.4522 52.7067 56.5532 52.3785 56.7906C52.0181 57.0512 40.8306 64.472 40.5569 64.632C40.4794 64.6773 40.1523 64.6246 39.83 64.5151C39.0344 64.2445 37.7771 64.315 36.9924 64.6742C36.2751 65.0026 35.4268 65.8319 35.0509 66.5721C34.8134 67.0396 34.7658 67.3055 34.7535 68.2284C34.7396 69.2628 34.7617 69.3714 35.1271 70.0646C35.5534 70.8733 36.148 71.4601 36.9572 71.8707C37.3917 72.0912 37.6761 72.1401 38.5832 72.1508C39.5167 72.1617 39.7706 72.1217 40.2647 71.8861C41.52 71.2873 42.44 70.0049 42.5379 68.7178L42.5912 68.017L48.7161 63.9512L54.841 59.8853L55.6072 60.0875C57.1065 60.4829 58.4628 60.1123 59.5072 59.0217C60.5143 57.9699 60.8648 56.6309 60.4879 55.2751C59.9307 53.2715 57.9454 52.0072 55.9604 52.392ZM70.3519 59.5238L66.1107 64.255L67.6133 64.3048L69.116 64.3547L68.9812 75.8666L68.8465 87.3785L65.3166 87.3372L61.7869 87.2959L61.8844 78.9632L61.9819 70.6306L56.5426 70.5669L51.1032 70.5032L51.0057 78.8359L50.9081 87.1685L47.3783 87.1272L43.8485 87.0859L43.9115 81.7044L43.9745 76.3229L38.5351 76.2592L33.0958 76.1955L33.0328 81.5705L32.9699 86.9454L30.617 86.9534C28.3297 86.9611 28.2525 86.9692 27.8418 87.2438C26.6272 88.0561 26.6233 89.8891 27.8349 90.5887L28.2681 90.8389L56.329 91.1674L84.3899 91.4959L84.7755 91.24C85.3762 90.8413 85.6269 90.4312 85.6861 89.7507C85.7497 89.0168 85.5167 88.505 84.8767 87.9742L84.4485 87.619L82.0292 87.5534L79.6097 87.4877L79.7443 75.9843L79.879 64.4807L81.3874 64.4661L82.8959 64.4514L79.0567 59.9502C76.9451 57.4746 75.077 55.3013 74.9053 55.1208L74.5931 54.7925L70.3519 59.5238Z" fill="#044D57"/>
<path fill-rule="evenodd" clip-rule="evenodd" d="M68.4296 22.9926C69.6622 22.4816 71.0428 22.0789 72.2815 21.869C73.524 21.6585 76.5886 21.6991 77.8999 21.9435C83.1456 22.9213 87.6314 26.3833 89.8795 31.1891C91.0335 33.6561 91.5096 35.8693 91.4776 38.6182C91.4464 41.2956 90.8673 43.5736 89.6061 45.9788C84.9412 54.8752 73.5607 57.6349 65.3434 51.8624C61.6998 49.303 59.1625 45.2328 58.4799 40.8528C58.2463 39.3538 58.2789 36.7225 58.5495 35.2475C59.5409 29.8433 63.3744 25.0884 68.4296 22.9926ZM83.3773 44.3662C87.6109 38.3929 84.6286 30.0767 77.5767 28.1914C76.4473 27.8894 74.5957 27.7574 73.5638 27.9054C70.0289 28.4124 67.0289 30.5945 65.474 33.7894C63.8093 37.2099 64.2526 41.5157 66.5906 44.6381C67.7448 46.1794 70.036 47.7383 71.958 48.2898C76.2254 49.5145 80.8564 47.9233 83.3773 44.3662ZM70.353 42.7461C67.0583 39.3472 68.4216 33.7302 72.9115 32.2048C74.0293 31.8251 75.7282 31.8184 76.8808 32.1892C78.4025 32.6789 80.0059 34.0777 80.6472 35.4753C81.8325 38.0583 81.3307 40.8931 79.3414 42.8513C76.8305 45.3232 72.8054 45.276 70.353 42.7461ZM75.1296 56.0791C75.0685 56.0098 75.027 55.9636 75.0071 55.9427L74.6795 55.5981L74.1325 56.2083C74.399 56.0962 74.6427 56.0002 74.8367 55.9279L75.1296 56.0791Z" fill="#299E4D"/>
<defs>
<filter id="filter0_b_1780_2510" x="-2.94914" y="-2.94914" width="128.779" height="128.779" filterUnits="userSpaceOnUse" color-interpolation-filters="sRGB">
<feFlood flood-opacity="0" result="BackgroundImageFix"/>
<feGaussianBlur in="BackgroundImageFix" stdDeviation="1.47457"/>
<feComposite in2="SourceAlpha" operator="in" result="effect1_backgroundBlur_1780_2510"/>
<feBlend mode="normal" in="SourceGraphic" in2="effect1_backgroundBlur_1780_2510" result="shape"/>
</filter>
</defs>
</svg>
