<svg width="316" height="316" viewBox="0 0 316 316" fill="none" xmlns="http://www.w3.org/2000/svg">
<circle cx="158" cy="158" r="158" fill="white"/>
<path fill-rule="evenodd" clip-rule="evenodd" d="M85.394 185.701V74.6367H66.8833V185.701C66.8833 236.249 107.86 277.226 158.408 277.226C208.956 277.226 249.933 236.249 249.933 185.701V152.793H231.423V185.701C231.423 226.025 198.733 258.715 158.408 258.715C118.084 258.715 85.394 226.025 85.394 185.701ZM106.988 74.6367H248.903V130.169H106.988V74.6367ZM125.498 93.1465H248.902V113.714H125.498V93.1465ZM126.509 152.797V185.705C126.509 203.311 140.782 217.584 158.389 217.584C175.995 217.584 190.268 203.311 190.268 185.705V152.797H208.779V185.705C208.779 213.534 186.218 236.095 158.389 236.095C130.559 236.095 107.999 213.534 107.999 185.705V152.797H126.509ZM148.119 152.795H168.687V193.655L158.41 186.732L148.119 193.664V152.795Z" fill="#1B0160"/>
</svg>
