<svg width="471" height="20" viewBox="0 0 471 20" fill="none" xmlns="http://www.w3.org/2000/svg">
<path d="M451.075 4.8692C449.315 4.94148 447.731 4.93473 445.972 5.007C443.684 5.07703 441.396 5.22684 438.933 5.29611C435.061 5.43917 431.189 5.74179 427.492 6.12494C423.444 6.58638 419.57 7.20813 415.872 8.06998C415.167 8.22655 414.462 8.4629 413.582 8.53893C412.702 8.69474 411.997 8.8513 411.117 9.00712C409.884 9.24121 408.828 9.39627 407.596 9.55059C406.187 9.70415 404.779 9.85771 403.371 9.93149C402.139 10.006 400.908 10.0008 399.676 9.99551C398.444 9.99026 397.389 9.90597 396.157 9.90072C394.574 9.81418 392.991 9.64786 391.409 9.40176C389.827 9.15565 388.244 8.90955 386.662 8.58366C384.025 8.01392 381.389 7.3644 378.752 6.71488C377.522 6.39049 376.468 6.06686 375.238 5.66269C373.832 5.25777 372.426 4.85285 371.02 4.44793C369.966 4.1243 368.735 3.8797 367.505 3.63509C366.802 3.47252 365.922 3.38899 365.043 3.30545C364.163 3.22192 363.46 3.21892 362.58 3.13538C362.052 3.13313 361.525 3.13088 361.172 3.20916C360.468 3.28594 359.764 3.36272 359.06 3.4395C358.004 3.59456 356.947 3.82941 355.89 4.06426C353.777 4.53395 351.839 5.00439 349.726 5.47408C347.084 6.10109 344.619 6.64906 341.801 7.19553C340.216 7.50791 338.456 7.73976 336.871 7.97235C334.583 8.28172 332.471 8.43228 330.183 8.58209C328.071 8.73265 325.783 8.7229 323.672 8.79367C321.208 8.78317 318.745 8.69288 316.283 8.5228C313.117 8.26994 310.127 8.01784 306.961 7.6852C304.147 7.35405 301.334 6.94313 298.697 6.45318C296.06 5.88344 293.423 5.3137 290.787 4.66418C287.799 3.93337 284.811 3.20257 281.646 2.71036C280.415 2.46576 279.184 2.38072 277.777 2.21515C276.37 2.04958 274.787 2.04282 273.203 2.03607C271.62 2.02931 270.212 2.18288 268.627 2.33569C267.043 2.4885 265.634 2.80163 264.225 3.11475C260.879 3.89832 257.883 4.92274 254.888 5.94716C253.126 6.57792 251.364 7.20868 249.601 7.83944C248.192 8.31213 246.606 8.86386 245.02 9.3358C243.435 9.80775 241.674 10.1992 239.913 10.5906C239.032 10.7464 238.328 10.9029 237.448 10.979C236.391 11.134 235.159 11.2086 234.103 11.2838C233.576 11.2816 233.224 11.2801 232.696 11.2778C232.344 11.2763 231.992 11.2748 231.64 11.2733C230.761 11.1898 229.882 11.0265 229.003 10.8632C225.839 10.1316 222.851 9.24124 220.04 8.27183C218.635 7.78713 217.405 7.30318 216.176 6.73945C215.298 6.33678 214.42 6.01389 213.542 5.61123C211.258 4.64407 209.152 3.51811 206.692 2.62999C205.638 2.30635 204.584 1.98272 203.353 1.65833C202.65 1.49576 201.947 1.41298 201.243 1.33019C201.068 1.32944 200.716 1.24816 200.54 1.24741C200.012 1.24516 199.485 1.16312 199.133 1.16162C198.957 1.16087 198.605 1.15937 198.429 1.15862L198.253 1.15787C197.901 1.15637 197.373 1.15411 197.021 1.2324C196.141 1.30843 195.437 1.38521 194.557 1.46124C192.972 1.69383 191.388 1.92643 189.803 2.2388C188.57 2.4729 187.338 2.70699 186.105 3.02087C185.224 3.17669 184.344 3.41228 183.463 3.5681C182.054 3.88122 180.821 4.1951 179.412 4.50823C178.708 4.66479 178.003 4.82136 177.475 4.97867C176.242 5.29255 175.009 5.68621 173.952 6.00084C173.071 6.23644 172.19 6.47203 171.309 6.78741C169.019 7.41592 166.905 8.12496 164.615 8.75347C159.858 10.1693 154.925 11.5844 149.643 12.599C148.41 12.8331 147.354 12.9882 146.121 13.2223C144.712 13.4556 143.128 13.6084 141.544 13.6815C140.841 13.6785 140.312 13.756 139.609 13.753C138.553 13.7485 137.673 13.7447 136.618 13.6605C135.211 13.5747 133.804 13.4091 132.573 13.1645C131.167 12.8394 129.761 12.4344 128.531 12.0303C126.423 11.3032 124.667 10.4181 122.912 9.53299C122.034 9.13032 121.156 8.64787 120.278 8.2452C119.224 7.762 117.995 7.27805 116.941 6.79485C115.887 6.39143 115.009 6.06855 113.778 5.82395C112.722 5.97901 112.019 5.81644 111.315 5.73365C110.612 5.65087 109.908 5.56808 109.205 5.56508C108.677 5.56283 108.325 5.56133 107.797 5.63886C107.093 5.71564 106.564 5.79317 105.86 5.94974C105.331 6.10705 104.627 6.26362 104.098 6.42093C103.57 6.65803 103.041 6.89513 102.688 7.13297C101.806 7.60792 100.924 8.08286 100.218 8.55856C99.5129 8.95447 98.8078 9.2706 98.2783 9.66727C97.5728 10.0632 96.691 10.5381 95.9855 10.934C94.3983 11.8049 92.6358 12.5154 90.6973 13.2252C89.2877 13.6979 87.7025 14.0901 86.1173 14.4822C84.5328 14.7148 83.1245 14.8684 81.5403 15.0212C79.2527 15.0912 77.1414 15.0822 74.8544 14.9927C71.3366 14.7383 67.9957 14.2454 64.6554 13.5929C61.6671 12.9418 58.8547 12.2916 56.043 11.4817C54.6371 11.0768 53.2312 10.6719 51.8257 10.1872C50.4199 9.78226 49.0144 9.29755 47.6085 8.89264C46.203 8.40793 44.7971 8.00301 43.3913 7.5981C41.9854 7.19318 40.4036 6.78751 38.8215 6.46162C35.8331 5.8106 32.6678 5.39817 29.5005 5.46445C28.7967 5.46144 27.9166 5.53747 27.2128 5.53447C26.3328 5.6105 25.6287 5.68728 24.9245 5.76406C24.2204 5.84085 23.516 5.99741 22.9878 6.07494C22.2833 6.2315 21.5789 6.38807 20.8747 6.46485C17.1775 7.00757 14.183 7.79264 11.3642 8.65825C8.89755 9.44557 6.43058 10.3127 4.31481 11.3408C3.2571 11.815 2.37533 12.29 1.49357 12.7649C1.14066 13.0028 0.787746 13.2406 0.61044 13.559C0.6101 13.6388 0.433474 13.7976 0.433134 13.8774C0.256168 14.116 0.255147 14.3553 0.078181 14.5939C-0.0991252 14.9123 0.0754584 15.2322 0.602272 15.4738C1.12943 15.6356 1.83287 15.7184 2.53699 15.6416C3.06516 15.5641 3.41739 15.4858 3.94523 15.4881C4.64935 15.4113 5.17786 15.254 5.88232 15.0974C6.76307 14.8618 7.11734 14.3048 6.59121 13.9037C6.24034 13.6628 5.88879 13.5815 5.36129 13.4995C7.12449 12.6294 9.06328 11.8398 11.0021 11.0502C14.3498 9.94753 17.8724 9.08493 21.5707 8.30286C22.4511 8.14705 23.3315 7.99123 24.2119 7.83542C25.2679 7.76014 26.5002 7.60583 27.5562 7.53055C28.6122 7.45527 29.492 7.45902 30.5473 7.54331C31.2507 7.62609 31.7786 7.62834 32.482 7.71113C33.537 7.8752 34.416 8.03852 35.2951 8.20183C37.0528 8.60825 38.8106 9.01468 40.392 9.50013C42.325 10.0669 44.0818 10.7126 46.0144 11.3592C47.7715 11.9251 49.7042 12.5717 51.6372 13.1384C53.5702 13.7051 55.5032 14.2719 57.4366 14.7588C61.3033 15.7327 65.3466 16.5478 69.391 17.1236C73.6113 17.7001 78.1848 17.9589 82.7607 17.6593C84.8728 17.5087 86.8092 17.2777 88.7459 16.9668C90.683 16.5761 92.4442 16.1847 94.0301 15.633C95.7919 15.082 97.3785 14.3707 98.965 13.6594C99.8464 13.2643 100.552 12.8683 101.257 12.4724C102.316 11.8387 103.374 11.2847 104.432 10.6509C105.667 9.93814 106.902 9.14556 108.489 8.43427C108.664 8.43502 108.665 8.35524 108.841 8.35599C109.017 8.35674 109.193 8.2777 109.369 8.27845L109.545 8.27921C109.897 8.28071 110.072 8.36124 110.424 8.36274C111.127 8.52531 111.83 8.68788 112.533 8.93023C114.466 9.57675 116.046 10.3813 117.626 11.1859C119.733 12.1523 121.84 13.1985 124.124 14.0859C125.178 14.4893 126.232 14.8129 127.286 15.1366C128.516 15.5407 129.923 15.7861 131.329 16.0314C132.56 16.276 133.967 16.3618 135.374 16.5274C136.957 16.6139 138.716 16.7012 140.3 16.6282C141.708 16.6342 143.116 16.4806 144.348 16.4061C145.932 16.2533 147.517 16.0207 149.101 15.7881C152.094 15.3222 154.912 14.6959 157.554 14.0689C161.605 13.1288 165.305 11.9478 169.004 10.8466C170.766 10.2956 172.528 9.74464 174.466 9.19441C176.58 8.56515 178.694 8.01568 180.808 7.38642C180.984 7.30739 181.336 7.22911 181.512 7.22986C182.217 7.07329 182.921 6.91673 183.626 6.68038C184.683 6.44554 185.74 6.13091 186.972 5.89681C187.148 5.81778 187.5 5.81928 187.677 5.74025C188.381 5.58368 189.262 5.42787 189.966 5.27131C191.199 5.03721 192.608 4.72408 193.84 4.48999C195.073 4.25589 196.481 4.10233 197.889 3.94877C198.241 3.95027 198.417 3.95102 198.769 3.95252C198.945 3.95327 199.297 3.95477 199.473 3.95553C200 4.03756 200.528 4.11959 201.231 4.20238C202.11 4.44548 202.989 4.68858 203.867 5.01147C206.502 6.0599 208.784 7.18662 211.243 8.23431C212.824 8.87933 214.405 9.52435 215.985 10.1694C217.567 10.7346 219.148 11.2201 220.729 11.7853C222.486 12.3513 224.244 12.7577 226.001 13.2439C227.583 13.6496 229.518 13.8972 231.276 14.0642C232.156 14.1478 232.859 14.1508 233.74 14.0747C234.795 14.0793 235.851 14.004 236.908 13.8489C238.668 13.6968 240.428 13.465 242.013 13.1526C243.95 12.762 245.711 12.3706 247.473 11.8994C249.939 11.1918 252.054 10.403 254.344 9.61493C255.578 9.14149 256.988 8.66879 258.221 8.19535C259.279 7.80094 260.336 7.48631 261.393 7.0919C263.684 6.30382 265.974 5.67532 268.615 5.12809C269.848 4.894 271.08 4.73968 272.488 4.66591C273.192 4.66891 273.72 4.59138 274.424 4.59438C274.952 4.59663 275.48 4.59888 276.183 4.68167C278.294 4.85024 280.228 5.09784 282.162 5.42523C283.744 5.75112 285.502 6.15754 287.084 6.48342C288.139 6.72728 289.018 6.97038 290.072 7.21423C290.951 7.45733 292.006 7.70118 293.06 7.94504C294.994 8.35221 296.928 8.75938 298.861 9.16655C300.971 9.57447 303.081 9.82282 305.192 10.0712C309.764 10.6492 314.337 10.9878 318.911 11.2467C321.197 11.416 323.66 11.4265 325.948 11.4363C328.235 11.446 330.523 11.2962 332.811 11.1464C336.859 10.9243 340.908 10.3831 344.782 9.68157C347.247 9.21337 349.536 8.66465 352.002 8.11668C354.82 7.49042 357.638 6.78438 360.632 6.15888C361.16 6.08135 361.864 6.00457 362.392 5.92703C362.744 5.92854 363.096 5.93004 363.448 5.93154C364.327 6.01507 365.031 6.09786 365.91 6.26118C368.547 6.83092 370.831 7.6385 373.291 8.36706C375.751 9.17539 378.387 9.82492 381.023 10.4744C383.66 11.124 386.473 11.6147 389.286 12.1054C392.451 12.5976 395.793 12.8512 399.136 12.9452C402.126 13.0378 405.118 12.891 407.935 12.5838C410.399 12.355 412.864 11.8868 415.153 11.4179C416.21 11.183 417.091 11.0272 418.147 10.7924C418.852 10.6358 419.38 10.4785 420.085 10.3219C420.965 10.0863 422.022 9.93126 422.902 9.69566C427.657 8.83832 432.585 8.38063 437.689 8.08327C440.329 7.93496 443.144 7.86718 445.96 7.71962C448.248 7.6496 450.711 7.58032 452.999 7.5103C457.75 7.371 462.677 7.23244 467.427 7.33249C469.363 7.34075 470.773 6.6287 470.777 5.83087C470.78 5.03304 469.2 4.30824 467.44 4.30074C463.746 4.28498 460.05 4.42878 456.531 4.49355C454.594 4.72465 452.835 4.79692 451.075 4.8692ZM361.864 6.00457C362.04 6.00532 362.04 6.00532 362.216 6.00607C362.04 6.00532 361.864 6.00457 361.864 6.00457Z" fill="#EE9B4E"/>
</svg>
