<svg width="104" height="13" viewBox="0 0 104 13" fill="none" xmlns="http://www.w3.org/2000/svg">
<path fill-rule="evenodd" clip-rule="evenodd" d="M103.989 9.8491C103.411 9.83705 102.827 9.82205 102.236 9.80409C97.4299 9.53914 92.8655 9.03076 88.3018 8.35943C84.2188 7.69014 80.3761 7.02188 76.5341 6.19065C74.6132 5.77504 72.6922 5.35943 70.7715 4.86233C69.811 4.65453 68.8506 4.42635 67.8902 4.19817C66.9298 3.97 65.9694 3.74182 65.0089 3.53401C63.0883 3.03692 61.1673 2.6213 59.2463 2.20569C57.3253 1.79008 55.164 1.37344 53.0023 1.03828C48.9193 0.368998 44.5949 -0.0568668 40.2684 0.00616164C39.7877 0.00411122 39.2469 0.022175 38.706 0.0402388C38.1652 0.0583027 37.6243 0.0763665 37.1436 0.074316C35.9416 0.15067 34.9799 0.22805 34.0182 0.30543L34.0182 0.305435C33.4145 0.354009 32.8106 0.434689 32.2663 0.507422C31.9435 0.550557 31.6416 0.590898 31.373 0.620087C30.411 0.77895 29.4489 0.937814 28.4872 1.0152C23.4376 1.56404 19.3483 2.36143 15.499 3.24134C12.1308 4.04181 8.76221 4.92376 5.8736 5.97072C4.42947 6.45347 3.22568 6.93723 2.02189 7.421C1.54016 7.6634 1.05844 7.90579 0.816709 8.2307C0.816535 8.27144 0.756189 8.33229 0.695843 8.39315C0.635498 8.454 0.575152 8.51486 0.574978 8.5556C0.454286 8.67731 0.39368 8.79928 0.333073 8.92125C0.272466 9.04321 0.21186 9.16518 0.091168 9.28689C-0.150563 9.61179 0.0883874 9.93875 0.808367 10.1863C1.52869 10.3523 2.48971 10.4379 3.45142 10.3605C3.60198 10.3441 3.74207 10.3277 3.87606 10.312C4.38404 10.2525 4.80431 10.2033 5.37484 10.2057C6.08811 10.1484 6.66936 10.0456 7.31456 9.9315C7.5393 9.89176 7.77179 9.85066 8.02033 9.80962C9.22308 9.57029 9.70619 9.00197 8.98691 8.59148C8.50727 8.34499 8.02693 8.26145 7.30626 8.1769C9.71349 7.29084 12.3607 6.4873 15.0079 5.68375C19.5793 4.56248 24.3899 3.68668 29.4406 2.89339L33.0478 2.41987C33.7689 2.38221 34.5503 2.32443 35.3317 2.26665C36.113 2.20887 36.8944 2.15109 37.6156 2.11342C39.058 2.03809 40.2597 2.04322 41.7014 2.13085C42.1819 2.17364 42.6024 2.19581 43.0229 2.21797C43.4434 2.24014 43.864 2.2623 44.3445 2.30509C45.7858 2.4742 46.9867 2.64229 48.1877 2.81037L48.1878 2.81039C50.5895 3.22805 52.9912 3.64572 55.1522 4.14384C57.0021 4.55122 58.7339 4.99806 60.513 5.45708C61.2741 5.65345 62.0438 5.85205 62.8351 6.05073C63.3797 6.18243 63.9366 6.31837 64.5031 6.45665C66.4341 6.92799 68.4761 7.42643 70.5183 7.87615L70.5185 7.8762C73.1598 8.45783 75.801 9.03947 78.4426 9.53963C83.7259 10.54 89.2503 11.3784 94.7757 11.9723C97.7409 12.2783 100.834 12.4986 103.989 12.5998V9.8491Z" fill="#EE9B4E"/>
</svg>
